<svg width="102" height="102" viewBox="0 0 102 102" fill="none" xmlns="http://www.w3.org/2000/svg">
<g filter="url(#filter0_di)">
<circle cx="51" cy="47" r="46" fill="url(#paint0_linear)"/>
<g clip-path="url(#clip0)">
<path d="M63.4992 39.5025H38.5008C37.8109 39.5025 37.2509 40.0625 37.2509 40.7524V60.7512C37.2509 63.771 39.4008 66.2933 42.2506 66.8758V73.2504C42.2506 75.3178 43.9329 77.0001 46.0003 77.0001C48.0677 77.0001 49.7501 75.3178 49.7501 73.2504V67.0008H52.2499V73.2504C52.2499 75.3178 53.9322 77.0001 55.9996 77.0001C58.067 77.0001 59.7494 75.3178 59.7494 73.2504V66.8758C62.5992 66.2959 64.7491 63.771 64.7491 60.7512V40.7524C64.7491 40.06 64.1892 39.5025 63.4992 39.5025Z" fill="#69EA54"/>
<path d="M57.5421 23.6611L59.6494 18.7439C59.9219 18.1089 59.6269 17.3765 58.9919 17.1039C58.3644 16.8289 57.622 17.124 57.352 17.7614L55.2446 22.6811C53.9073 22.2461 52.4824 22.0037 51.0024 22.0037C49.5225 22.0037 48.0976 22.2461 46.7601 22.6811L44.6479 17.7614C44.378 17.124 43.6355 16.8264 43.008 17.1039C42.373 17.3764 42.0805 18.1113 42.3531 18.7439L44.4605 23.6611C40.1683 25.991 37.251 30.5381 37.251 35.7527C37.251 36.4427 37.811 37.0027 38.5009 37.0027H63.4992C64.1892 37.0027 64.7492 36.4427 64.7492 35.7527C64.7491 30.5381 61.8318 25.991 57.5421 23.6611ZM46.0003 32.003C45.3104 32.003 44.7504 31.443 44.7504 30.753C44.7504 30.0631 45.3104 29.5031 46.0003 29.5031C46.6903 29.5031 47.2503 30.0631 47.2503 30.753C47.2503 31.443 46.6903 32.003 46.0003 32.003ZM55.9997 32.003C55.3098 32.003 54.7498 31.443 54.7498 30.753C54.7498 30.0631 55.3098 29.5031 55.9997 29.5031C56.6897 29.5031 57.2497 30.0631 57.2497 30.753C57.2497 31.443 56.6897 32.003 55.9997 32.003Z" fill="#69EA54"/>
<path d="M70.9987 39.5025C68.9313 39.5025 67.249 41.1848 67.249 43.2522V55.7514C67.249 57.8189 68.9313 59.5012 70.9987 59.5012C73.0661 59.5012 74.7485 57.8189 74.7485 55.7514V43.2522C74.7485 41.185 73.0661 39.5025 70.9987 39.5025Z" fill="#69EA54"/>
<path d="M31.0013 39.5025C28.9339 39.5025 27.2515 41.1848 27.2515 43.2522V55.7514C27.2515 57.8189 28.9339 59.5012 31.0013 59.5012C33.0687 59.5012 34.751 57.8189 34.751 55.7514V43.2522C34.751 41.185 33.0687 39.5025 31.0013 39.5025Z" fill="#69EA54"/>
</g>
</g>
<defs>
<filter id="filter0_di" x="0" y="0" width="102" height="102" filterUnits="userSpaceOnUse" color-interpolation-filters="sRGB">
<feFlood flood-opacity="0" result="BackgroundImageFix"/>
<feColorMatrix in="SourceAlpha" type="matrix" values="0 0 0 0 0 0 0 0 0 0 0 0 0 0 0 0 0 0 127 0"/>
<feOffset dy="4"/>
<feGaussianBlur stdDeviation="2.5"/>
<feColorMatrix type="matrix" values="0 0 0 0 0 0 0 0 0 0 0 0 0 0 0 0 0 0 0.3 0"/>
<feBlend mode="normal" in2="BackgroundImageFix" result="effect1_dropShadow"/>
<feBlend mode="normal" in="SourceGraphic" in2="effect1_dropShadow" result="shape"/>
<feColorMatrix in="SourceAlpha" type="matrix" values="0 0 0 0 0 0 0 0 0 0 0 0 0 0 0 0 0 0 127 0" result="hardAlpha"/>
<feOffset/>
<feGaussianBlur stdDeviation="2.5"/>
<feComposite in2="hardAlpha" operator="arithmetic" k2="-1" k3="1"/>
<feColorMatrix type="matrix" values="0 0 0 0 0 0 0 0 0 0 0 0 0 0 0 0 0 0 0.3 0"/>
<feBlend mode="normal" in2="shape" result="effect2_innerShadow"/>
</filter>
<linearGradient id="paint0_linear" x1="51" y1="1" x2="51" y2="93" gradientUnits="userSpaceOnUse">
<stop stop-color="#369B9B"/>
<stop offset="1" stop-color="#478979"/>
</linearGradient>
<clipPath id="clip0">
<rect width="60" height="60" fill="white" transform="translate(21 17)"/>
</clipPath>
</defs>
</svg>
