<svg width="200" height="200" viewBox="0 0 200 200" fill="none" xmlns="http://www.w3.org/2000/svg">
<g filter="url(#filter0_i)">
<circle cx="100" cy="100" r="100" fill="url(#paint0_linear)"/>
</g>
<g filter="url(#filter1_i)">
<g clip-path="url(#clip0)">
<path d="M119.625 100L67.375 200H174.5L119.625 100Z" fill="#22C98D" fill-opacity="0.48"/>
<path d="M119.625 100L109.113 200H174.5L119.625 100Z" fill="#42C7CF"/>
<path d="M-7.5 200L49.75 147.111L102 200H-7.5Z" fill="#5E00D6"/>
<path d="M42.1249 200L49.7499 147.111L102 200H42.1249Z" fill="#A300B1"/>
<path d="M150.375 121.334L194 200H109.5L150.375 121.334Z" fill="#47D8AC"/>
<path d="M150.375 121.334L194 200H145.25L150.375 121.334Z" fill="#0047B2"/>
<path d="M80.1251 154.445L110.75 200H45.875L80.1251 154.445Z" fill="#007AD3"/>
<path d="M73.3749 200L80.1249 154.445L110.75 200H73.3749Z" fill="#00AC64"/>
<path d="M213.75 200L175.125 140.444L137 200H213.75Z" fill="#40A0D6" fill-opacity="0.55"/>
<path d="M213.75 200L175.125 140.444L170.625 200H213.75Z" fill="#9E0071"/>
<path d="M151.25 200L121.375 152.667L90.625 200H151.25Z" fill="#AA00AA"/>
<path d="M117.875 200H151.25L121.375 152.667L117.875 200Z" fill="#880088"/>
<path d="M30.5596 100.27C29.0921 100.27 27.9316 99.8353 27.0781 98.9668C26.1198 98.0085 25.6406 96.6084 25.6406 94.7666C25.6406 93.8981 25.7604 92.8949 26 91.7568L30.9189 68.7119L37.7246 67.791L32.4463 92.6328C32.3265 93.0221 32.2666 93.5163 32.2666 94.1152C32.2666 94.7441 32.4089 95.1859 32.6934 95.4404C32.9928 95.695 33.472 95.8223 34.1309 95.8223C34.5801 95.8223 35.0143 95.7249 35.4336 95.5303C35.8678 95.3206 36.2646 95.0361 36.624 94.6768C37.3577 93.943 37.9118 92.9697 38.2861 91.7568H40.2178C39.3942 94.0778 38.361 95.9271 37.1182 97.3047C36.07 98.4277 34.887 99.2363 33.5693 99.7305C32.611 100.09 31.6077 100.27 30.5596 100.27ZM54.9072 100.27C53.0055 100.27 51.598 99.7305 50.6846 98.6523C49.891 97.724 49.4941 96.5335 49.4941 95.0811C49.4941 94.3923 49.5765 93.5911 49.7412 92.6777C49.9209 91.7643 50.1829 90.5889 50.5273 89.1514C50.8717 87.6839 51.1263 86.516 51.291 85.6475C51.4707 84.764 51.5605 84.0003 51.5605 83.3564C51.5605 81.7842 51.0065 80.998 49.8984 80.998C49.1198 80.998 48.401 81.4098 47.7422 82.2334C47.1882 82.9372 46.709 83.9404 46.3047 85.2432L43.1826 100H36.5566L41.4307 77H48.0566L47.5625 79.3809C48.4609 78.3776 49.4268 77.6738 50.46 77.2695C51.2236 76.9701 52.0472 76.8203 52.9307 76.8203C54.488 76.8203 55.7158 77.2246 56.6143 78.0332C57.5726 78.9167 58.0518 80.2419 58.0518 82.0088C58.0518 83.0719 57.8571 84.457 57.4678 86.1641C57.363 86.6582 57.1908 87.3994 56.9512 88.3877C56.5169 90.0498 56.2025 91.375 56.0078 92.3633C55.888 92.9922 55.8281 93.5013 55.8281 93.8906C55.8281 94.5046 55.9629 94.9837 56.2324 95.3281C56.5169 95.6576 56.9961 95.8223 57.6699 95.8223C58.5833 95.8223 59.3545 95.4479 59.9834 94.6992C60.4626 94.1302 60.9792 93.1494 61.5332 91.7568H63.4648C62.3268 95.126 60.8893 97.4844 59.1523 98.832C57.9245 99.7904 56.5094 100.27 54.9072 100.27ZM69.2148 74.5068C68.7207 74.5068 68.249 74.417 67.7998 74.2373C67.3506 74.0426 66.9613 73.7806 66.6318 73.4512C66.3024 73.1367 66.0404 72.7549 65.8457 72.3057C65.666 71.8564 65.5762 71.3848 65.5762 70.8906C65.5762 70.3965 65.666 69.9248 65.8457 69.4756C66.0404 69.0264 66.3024 68.6296 66.6318 68.2852C66.9613 67.9408 67.3506 67.6787 67.7998 67.499C68.249 67.3044 68.7207 67.207 69.2148 67.207C69.709 67.207 70.1807 67.3044 70.6299 67.499C71.0791 67.6787 71.4759 67.9408 71.8203 68.2852C72.1647 68.6296 72.4268 69.0264 72.6064 69.4756C72.8011 69.9248 72.8984 70.3965 72.8984 70.8906C72.8984 71.3848 72.8011 71.8564 72.6064 72.3057C72.4268 72.7549 72.1647 73.1367 71.8203 73.4512C71.4759 73.7806 71.0791 74.0426 70.6299 74.2373C70.1807 74.417 69.709 74.5068 69.2148 74.5068ZM66.0928 100.27C64.6253 100.27 63.4648 99.8353 62.6113 98.9668C61.653 98.0085 61.1738 96.6084 61.1738 94.7666C61.1738 93.8981 61.2936 92.8949 61.5332 91.7568L64.6553 77H71.2812L67.9795 92.6328C67.8597 93.0221 67.7998 93.5163 67.7998 94.1152C67.7998 94.7441 67.9421 95.1859 68.2266 95.4404C68.526 95.695 69.0052 95.8223 69.6641 95.8223C70.1133 95.8223 70.5475 95.7249 70.9668 95.5303C71.401 95.3206 71.7979 95.0361 72.1572 94.6768C72.891 93.943 73.445 92.9697 73.8193 91.7568H75.751C74.9274 94.0778 73.8942 95.9271 72.6514 97.3047C71.6032 98.4277 70.4202 99.2363 69.1025 99.7305C68.1442 100.09 67.141 100.27 66.0928 100.27ZM80.4229 100.27C78.1618 100.27 76.4173 99.7005 75.1895 98.5625C73.8867 97.3496 73.2354 95.4854 73.2354 92.9697C73.2354 92.0264 73.3327 90.9782 73.5273 89.8252C73.707 88.6572 73.9915 87.4967 74.3809 86.3438C75.2943 83.5436 76.5895 81.3125 78.2666 79.6504C80.333 77.6139 82.7812 76.5957 85.6113 76.5957C87.4531 76.5957 88.8158 77.0374 89.6992 77.9209C90.388 78.6247 90.7324 79.5905 90.7324 80.8184C90.7324 81.8965 90.4928 82.735 90.0137 83.334C89.5645 83.888 88.988 84.165 88.2842 84.165C87.7751 84.165 87.236 83.9854 86.667 83.626C87.0413 82.6527 87.2285 81.7467 87.2285 80.9082C87.2285 80.3242 87.1162 79.8675 86.8916 79.5381C86.682 79.1937 86.3675 79.0215 85.9482 79.0215C85.0498 79.0215 84.1139 79.8151 83.1406 81.4023C82.2572 82.8099 81.5234 84.5993 80.9395 86.7705C80.3405 88.8968 80.041 90.821 80.041 92.543C80.041 94.0404 80.3255 95.0736 80.8945 95.6426C81.3887 96.1517 82.2122 96.4062 83.3652 96.4062C85.0273 96.4062 86.5472 95.957 87.9248 95.0586C88.5088 94.6842 89.0703 94.2425 89.6094 93.7334C90.1484 93.2093 90.7773 92.5505 91.4961 91.7568H93.0684C91.6159 94.2126 89.9463 96.1667 88.0596 97.6191C85.7386 99.3861 83.193 100.27 80.4229 100.27ZM97.0215 100.27C95.2695 100.27 93.8545 99.723 92.7764 98.6299C91.5186 97.3421 90.8896 95.4255 90.8896 92.8799C90.8896 91.8018 91.002 90.6637 91.2266 89.4658C91.4362 88.2679 91.7507 87.085 92.1699 85.917C93.1283 83.2816 94.4385 81.1553 96.1006 79.5381C98.0173 77.6963 100.226 76.7754 102.727 76.7754C103.969 76.7754 104.898 76.9925 105.512 77.4268C106.141 77.846 106.455 78.4076 106.455 79.1113V79.4482L106.949 77H113.575L110.273 92.6328C110.139 93.082 110.071 93.5762 110.071 94.1152C110.071 95.4329 110.7 96.0918 111.958 96.0918C112.797 96.0918 113.56 95.665 114.249 94.8115C114.833 94.0928 115.312 93.0745 115.687 91.7568H117.618C116.795 94.0928 115.799 95.9421 114.631 97.3047C113.643 98.4277 112.527 99.2363 111.284 99.7305C110.371 100.09 109.405 100.27 108.387 100.27C107.084 100.27 106.043 99.9176 105.265 99.2139C104.501 98.4951 104.037 97.4395 103.872 96.0469C103.004 97.2747 102.09 98.2331 101.132 98.9219C99.904 99.8203 98.5339 100.27 97.0215 100.27ZM100.009 95.8223C100.353 95.8223 100.713 95.7324 101.087 95.5527C101.476 95.373 101.851 95.1185 102.21 94.7891C103.019 94.0104 103.558 92.9997 103.827 91.7568L106.028 81.3799C106.028 81.2301 105.991 81.0579 105.916 80.8633C105.856 80.6536 105.766 80.459 105.646 80.2793C105.287 79.8451 104.785 79.6279 104.142 79.6279C103.528 79.6279 102.929 79.8301 102.345 80.2344C101.776 80.6387 101.237 81.2002 100.728 81.9189C99.8291 83.2217 99.0879 84.9212 98.5039 87.0176C98.2344 87.946 98.0322 88.8669 97.8975 89.7803C97.7627 90.6787 97.6953 91.4948 97.6953 92.2285C97.6953 93.7559 97.9798 94.7891 98.5488 95.3281C98.7435 95.5378 98.9606 95.6725 99.2002 95.7324C99.4398 95.7923 99.7093 95.8223 100.009 95.8223ZM132.308 100.27C130.406 100.27 128.998 99.7305 128.085 98.6523C127.291 97.724 126.895 96.5335 126.895 95.0811C126.895 94.3923 126.977 93.5911 127.142 92.6777C127.321 91.7643 127.583 90.5889 127.928 89.1514C128.272 87.6839 128.527 86.516 128.691 85.6475C128.871 84.764 128.961 84.0003 128.961 83.3564C128.961 81.7842 128.407 80.998 127.299 80.998C126.52 80.998 125.801 81.4098 125.143 82.2334C124.589 82.9372 124.109 83.9404 123.705 85.2432L120.583 100H113.957L118.831 77H125.457L124.963 79.3809C125.861 78.3776 126.827 77.6738 127.86 77.2695C128.624 76.9701 129.448 76.8203 130.331 76.8203C131.888 76.8203 133.116 77.2246 134.015 78.0332C134.973 78.9167 135.452 80.2419 135.452 82.0088C135.452 83.0719 135.257 84.457 134.868 86.1641C134.763 86.6582 134.591 87.3994 134.352 88.3877C133.917 90.0498 133.603 91.375 133.408 92.3633C133.288 92.9922 133.229 93.5013 133.229 93.8906C133.229 94.5046 133.363 94.9837 133.633 95.3281C133.917 95.6576 134.396 95.8223 135.07 95.8223C135.984 95.8223 136.755 95.4479 137.384 94.6992C137.863 94.1302 138.38 93.1494 138.934 91.7568H140.865C139.727 95.126 138.29 97.4844 136.553 98.832C135.325 99.7904 133.91 100.27 132.308 100.27ZM145.649 100.18C143.373 100.18 141.614 99.6257 140.371 98.5176C138.979 97.2897 138.282 95.4255 138.282 92.9248C138.282 91.9814 138.38 90.9408 138.574 89.8027C138.769 88.6497 139.068 87.4893 139.473 86.3213C140.401 83.5361 141.726 81.3125 143.448 79.6504C145.53 77.6139 148.008 76.5957 150.883 76.5957C154.821 76.5957 156.79 79.0439 156.79 83.9404V83.9854C156.88 84.0153 156.955 84.0303 157.015 84.0303H157.284C158.302 84.0303 159.508 83.7458 160.9 83.1768C162.128 82.6676 163.289 82.0312 164.382 81.2676L164.786 82.5254C163.888 83.4688 162.727 84.2699 161.305 84.9287C159.897 85.5876 158.34 86.0592 156.633 86.3438C156.453 88.4251 156.049 90.3268 155.42 92.0488C154.791 93.7559 153.982 95.2233 152.994 96.4512C152.021 97.6491 150.905 98.57 149.647 99.2139C148.39 99.8577 147.057 100.18 145.649 100.18ZM147.491 96.0469C148.03 96.0469 148.577 95.8073 149.131 95.3281C149.7 94.834 150.231 94.1527 150.726 93.2842C151.22 92.4157 151.646 91.3975 152.006 90.2295C152.365 89.0615 152.635 87.8112 152.814 86.4785C152.365 86.3587 152.043 86.1341 151.849 85.8047C151.669 85.4753 151.579 85.056 151.579 84.5469C151.579 83.918 151.706 83.3939 151.961 82.9746C152.215 82.5553 152.567 82.2484 153.017 82.0537C152.957 81.0804 152.799 80.3841 152.545 79.9648C152.41 79.7552 152.238 79.6055 152.028 79.5156C151.834 79.4258 151.579 79.3809 151.265 79.3809C150.231 79.3809 149.221 80.1595 148.232 81.7168C147.319 83.1243 146.57 84.8613 145.986 86.9277C145.417 88.9492 145.133 90.7461 145.133 92.3184C145.133 93.082 145.17 93.7035 145.245 94.1826C145.335 94.6618 145.477 95.0361 145.672 95.3057C145.852 95.5752 146.084 95.7699 146.368 95.8896C146.653 95.9945 147.027 96.0469 147.491 96.0469ZM162.271 77H168.896L168.312 79.8525C169.361 78.9242 170.214 78.2653 170.873 77.876C171.891 77.292 172.887 77 173.86 77C174.849 77 175.642 77.3519 176.241 78.0557C176.511 78.3701 176.713 78.737 176.848 79.1562C176.982 79.5605 177.05 79.9948 177.05 80.459C177.05 80.8783 176.982 81.2826 176.848 81.6719C176.713 82.0612 176.511 82.4131 176.241 82.7275C175.942 83.057 175.575 83.319 175.141 83.5137C174.721 83.7083 174.25 83.8057 173.726 83.8057C173.321 83.8057 172.999 83.7383 172.76 83.6035C172.52 83.4688 172.333 83.2741 172.198 83.0195C172.078 82.765 171.996 82.5179 171.951 82.2783C171.816 81.6344 171.682 81.2077 171.547 80.998C171.442 80.8483 171.277 80.7734 171.053 80.7734C170.409 80.7734 169.862 80.9082 169.413 81.1777C168.964 81.4473 168.395 81.8965 167.706 82.5254L164.022 100H157.396L162.271 77Z" fill="white"/>
<path d="M27.0781 98.9668L27.4348 98.6163L27.4317 98.6132L27.0781 98.9668ZM26 91.7568L25.511 91.6525L25.5107 91.6538L26 91.7568ZM30.9189 68.7119L30.8519 68.2164L30.5034 68.2636L30.43 68.6075L30.9189 68.7119ZM37.7246 67.791L38.2137 67.8949L38.3613 67.2003L37.6576 67.2955L37.7246 67.791ZM32.4463 92.6328L32.9242 92.7799L32.9307 92.7585L32.9354 92.7367L32.4463 92.6328ZM32.6934 95.4404L32.3599 95.8132L32.3695 95.8214L32.6934 95.4404ZM35.4336 95.5303L35.6442 95.9838L35.651 95.9805L35.4336 95.5303ZM38.2861 91.7568V91.2568H37.9172L37.8084 91.6094L38.2861 91.7568ZM40.2178 91.7568L40.689 91.924L40.9257 91.2568H40.2178V91.7568ZM37.1182 97.3047L37.4837 97.6459L37.4894 97.6396L37.1182 97.3047ZM30.5596 99.7695C29.1968 99.7695 28.1754 99.37 27.4347 98.6163L26.7215 99.3173C27.6879 100.301 28.9875 100.77 30.5596 100.77V99.7695ZM27.4317 98.6132C26.5968 97.7783 26.1406 96.5246 26.1406 94.7666H25.1406C25.1406 96.6922 25.6428 98.2386 26.7246 99.3204L27.4317 98.6132ZM26.1406 94.7666C26.1406 93.9421 26.2546 92.9746 26.4893 91.8598L25.5107 91.6538C25.2662 92.8151 25.1406 93.8541 25.1406 94.7666H26.1406ZM26.489 91.8612L31.4079 68.8163L30.43 68.6075L25.511 91.6525L26.489 91.8612ZM30.986 69.2074L37.7917 68.2865L37.6576 67.2955L30.8519 68.2164L30.986 69.2074ZM37.2355 67.6871L31.9572 92.5289L32.9354 92.7367L38.2137 67.8949L37.2355 67.6871ZM31.9684 92.4858C31.8288 92.9394 31.7666 93.4876 31.7666 94.1152H32.7666C32.7666 93.545 32.8242 93.1049 32.9242 92.7799L31.9684 92.4858ZM31.7666 94.1152C31.7666 94.7973 31.9175 95.4172 32.36 95.8131L33.0268 95.0678C32.9002 94.9546 32.7666 94.6909 32.7666 94.1152H31.7666ZM32.3695 95.8214C32.8032 96.19 33.4273 96.3223 34.1309 96.3223V95.3223C33.5167 95.3223 33.1825 95.2 33.0172 95.0595L32.3695 95.8214ZM34.1309 96.3223C34.655 96.3223 35.1609 96.2082 35.6441 95.9838L35.223 95.0768C34.8678 95.2417 34.5052 95.3223 34.1309 95.3223V96.3223ZM35.651 95.9805C36.1384 95.7452 36.5807 95.4272 36.9776 95.0303L36.2705 94.3232C35.9486 94.6451 35.5973 94.896 35.2162 95.08L35.651 95.9805ZM36.9776 95.0303C37.7803 94.2275 38.3708 93.1778 38.7639 91.9043L37.8084 91.6094C37.4527 92.7616 36.9351 93.6585 36.2705 94.3232L36.9776 95.0303ZM38.2861 92.2568H40.2178V91.2568H38.2861V92.2568ZM39.7466 91.5896C38.9382 93.8679 37.9339 95.6541 36.7469 96.9698L37.4894 97.6396C38.7881 96.2001 39.8503 94.2877 40.689 91.924L39.7466 91.5896ZM36.7526 96.9635C35.7522 98.0354 34.6328 98.7977 33.3938 99.2623L33.7449 100.199C35.1413 99.675 36.3878 98.8201 37.4837 97.6458L36.7526 96.9635ZM33.3938 99.2623C32.4929 99.6001 31.5493 99.7695 30.5596 99.7695V100.77C31.6662 100.77 32.7291 100.58 33.7449 100.199L33.3938 99.2623ZM50.6846 98.6523L51.0661 98.3291L51.0646 98.3275L50.6846 98.6523ZM49.7412 92.6777L49.2506 92.5812L49.2491 92.589L49.7412 92.6777ZM50.5273 89.1514L51.0136 89.2679L51.0141 89.2656L50.5273 89.1514ZM51.291 85.6475L50.801 85.5478L50.7998 85.5543L51.291 85.6475ZM47.7422 82.2334L47.3517 81.921L47.3493 81.9241L47.7422 82.2334ZM46.3047 85.2432L45.8272 85.095L45.8203 85.117L45.8155 85.1397L46.3047 85.2432ZM43.1826 100V100.5H43.5879L43.6718 100.103L43.1826 100ZM36.5566 100L36.0675 99.8963L35.9396 100.5H36.5566V100ZM41.4307 77V76.5H41.0255L40.9415 76.8963L41.4307 77ZM48.0566 77L48.5462 77.1016L48.6711 76.5H48.0566V77ZM47.5625 79.3809L47.0729 79.2793L46.6953 81.0987L47.935 79.7144L47.5625 79.3809ZM50.46 77.2695L50.6422 77.7352L50.6425 77.735L50.46 77.2695ZM56.6143 78.0332L56.9532 77.6656L56.9487 77.6616L56.6143 78.0332ZM57.4678 86.1641L56.9802 86.0529L56.9787 86.0603L57.4678 86.1641ZM56.9512 88.3877L57.435 88.5141L57.4371 88.5055L56.9512 88.3877ZM56.0078 92.3633L55.5172 92.2667L55.5166 92.2697L56.0078 92.3633ZM56.2324 95.3281L55.8387 95.6363L55.8461 95.6458L55.854 95.6549L56.2324 95.3281ZM59.9834 94.6992L59.6009 94.3772L59.6005 94.3776L59.9834 94.6992ZM61.5332 91.7568V91.2568H61.194L61.0686 91.572L61.5332 91.7568ZM63.4648 91.7568L63.9386 91.9168L64.1615 91.2568H63.4648V91.7568ZM59.1523 98.832L58.8458 98.437L58.8447 98.4379L59.1523 98.832ZM54.9072 99.7695C53.0987 99.7695 51.8545 99.2597 51.0661 98.3291L50.3031 98.9756C51.3415 100.201 52.9123 100.77 54.9072 100.77V99.7695ZM51.0646 98.3275C50.3625 97.5061 49.9941 96.438 49.9941 95.0811H48.9941C48.9941 96.629 49.4194 97.9418 50.3045 98.9772L51.0646 98.3275ZM49.9941 95.0811C49.9941 94.4302 50.0722 93.66 50.2333 92.7665L49.2491 92.589C49.0808 93.5223 48.9941 94.3543 48.9941 95.0811H49.9941ZM50.2318 92.7742C50.4096 91.8702 50.67 90.7021 51.0136 89.2679L50.0411 89.0349C49.6959 90.4756 49.4321 91.6584 49.2506 92.5812L50.2318 92.7742ZM51.0141 89.2656C51.3592 87.7953 51.6156 86.6194 51.7823 85.7406L50.7998 85.5543C50.637 86.4125 50.3843 87.5725 50.0406 89.0371L51.0141 89.2656ZM51.781 85.7471C51.9649 84.8428 52.0605 84.0441 52.0605 83.3564H51.0605C51.0605 83.9565 50.9765 84.6852 50.801 85.5478L51.781 85.7471ZM52.0605 83.3564C52.0605 82.5268 51.9171 81.8153 51.5537 81.2996C51.1677 80.7519 50.5866 80.498 49.8984 80.498V81.498C50.3184 81.498 50.5683 81.6372 50.7363 81.8757C50.9269 82.1462 51.0605 82.6138 51.0605 83.3564H52.0605ZM49.8984 80.498C48.9185 80.498 48.0696 81.0237 47.3518 81.9211L48.1326 82.5457C48.7324 81.796 49.3211 81.498 49.8984 81.498V80.498ZM47.3493 81.9241C46.743 82.6943 46.2411 83.7612 45.8272 85.095L46.7822 85.3914C47.1769 84.1197 47.6333 83.1801 48.1351 82.5427L47.3493 81.9241ZM45.8155 85.1397L42.6934 99.8965L43.6718 100.103L46.7939 85.3467L45.8155 85.1397ZM43.1826 99.5H36.5566V100.5H43.1826V99.5ZM37.0458 100.104L41.9198 77.1037L40.9415 76.8963L36.0675 99.8963L37.0458 100.104ZM41.4307 77.5H48.0566V76.5H41.4307V77.5ZM47.5671 76.8984L47.0729 79.2793L48.0521 79.4825L48.5462 77.1016L47.5671 76.8984ZM47.935 79.7144C48.7922 78.7572 49.6958 78.1055 50.6422 77.7352L50.2778 76.8039C49.1577 77.2422 48.1297 77.998 47.19 79.0473L47.935 79.7144ZM50.6425 77.735C51.3437 77.46 52.1048 77.3203 52.9307 77.3203V76.3203C51.9896 76.3203 51.1036 76.4801 50.2774 76.804L50.6425 77.735ZM52.9307 77.3203C54.4011 77.3203 55.4972 77.7005 56.2798 78.4049L56.9487 77.6616C55.9345 76.7487 54.5748 76.3203 52.9307 76.3203V77.3203ZM56.2754 78.4008C57.0983 79.1595 57.5518 80.3299 57.5518 82.0088H58.5518C58.5518 80.1539 58.0468 78.6738 56.9532 77.6656L56.2754 78.4008ZM57.5518 82.0088C57.5518 83.0183 57.3659 84.3621 56.9803 86.0529L57.9553 86.2752C58.3483 84.5519 58.5518 83.1256 58.5518 82.0088H57.5518ZM56.9787 86.0603C56.8754 86.5471 56.7046 87.2826 56.4652 88.2699L57.4371 88.5055C57.6769 87.5162 57.8505 86.7693 57.9569 86.2678L56.9787 86.0603ZM56.4674 88.2613C56.0321 89.9275 55.7148 91.2639 55.5172 92.2667L56.4984 92.4599C56.6902 91.4861 57.0017 90.1722 57.4349 88.5141L56.4674 88.2613ZM55.5166 92.2697C55.3942 92.9125 55.3281 93.4564 55.3281 93.8906H56.3281C56.3281 93.5462 56.3818 93.0719 56.499 92.4568L55.5166 92.2697ZM55.3281 93.8906C55.3281 94.5721 55.4773 95.1745 55.8387 95.6363L56.6262 95.02C56.4485 94.793 56.3281 94.4371 56.3281 93.8906H55.3281ZM55.854 95.6549C56.2754 96.1429 56.9303 96.3223 57.6699 96.3223V95.3223C57.0619 95.3223 56.7585 95.1722 56.6108 95.0013L55.854 95.6549ZM57.6699 96.3223C58.7425 96.3223 59.65 95.8735 60.3663 95.0208L59.6005 94.3776C59.059 95.0223 58.4242 95.3223 57.6699 95.3223V96.3223ZM60.3659 95.0213C60.8993 94.3878 61.4398 93.3442 61.9978 91.9417L61.0686 91.572C60.5185 92.9546 60.0258 93.8726 59.6009 94.3772L60.3659 95.0213ZM61.5332 92.2568H63.4648V91.2568H61.5332V92.2568ZM62.9911 91.5968C61.8669 94.9252 60.4708 97.1762 58.8458 98.437L59.4588 99.2271C61.3078 97.7925 62.7867 95.3268 63.9386 91.9168L62.9911 91.5968ZM58.8447 98.4379C57.7074 99.3255 56.4014 99.7695 54.9072 99.7695V100.77C56.6175 100.77 58.1416 100.255 59.46 99.2262L58.8447 98.4379ZM67.7998 74.2373L67.601 74.6961L67.6075 74.6989L67.6141 74.7015L67.7998 74.2373ZM66.6318 73.4512L66.9855 73.0975L66.9771 73.0895L66.6318 73.4512ZM65.8457 72.3057L65.3815 72.4914L65.3841 72.498L65.3869 72.5045L65.8457 72.3057ZM65.8457 69.4756L65.3869 69.2768L65.3841 69.2833L65.3815 69.2899L65.8457 69.4756ZM67.7998 67.499L67.9855 67.9633L67.9921 67.9606L67.9986 67.9578L67.7998 67.499ZM70.6299 67.499L70.4311 67.9578L70.4376 67.9606L70.4442 67.9633L70.6299 67.499ZM72.6064 69.4756L72.1422 69.6613L72.1448 69.6679L72.1477 69.6744L72.6064 69.4756ZM72.6064 72.3057L72.1477 72.1069L72.1448 72.1134L72.1422 72.12L72.6064 72.3057ZM71.8203 73.4512L71.4831 73.0818L71.4747 73.0899L71.8203 73.4512ZM70.6299 74.2373L70.8156 74.7015L70.8222 74.6989L70.8287 74.6961L70.6299 74.2373ZM62.6113 98.9668L62.968 98.6163L62.9649 98.6132L62.6113 98.9668ZM61.5332 91.7568L61.044 91.6533L61.0439 91.6538L61.5332 91.7568ZM64.6553 77V76.5H64.25L64.1661 76.8965L64.6553 77ZM71.2812 77L71.7705 77.1033L71.8979 76.5H71.2812V77ZM67.9795 92.6328L68.4574 92.7799L68.464 92.7583L68.4687 92.7361L67.9795 92.6328ZM68.2266 95.4404L67.8931 95.8132L67.9027 95.8214L68.2266 95.4404ZM70.9668 95.5303L71.1774 95.9838L71.1842 95.9805L70.9668 95.5303ZM73.8193 91.7568V91.2568H73.4504L73.3416 91.6094L73.8193 91.7568ZM75.751 91.7568L76.2222 91.924L76.4589 91.2568H75.751V91.7568ZM72.6514 97.3047L73.0169 97.6459L73.0226 97.6396L72.6514 97.3047ZM69.2148 74.0068C68.7829 74.0068 68.3744 73.9286 67.9855 73.7731L67.6141 74.7015C68.1237 74.9054 68.6585 75.0068 69.2148 75.0068V74.0068ZM67.9986 73.7785C67.6042 73.6076 67.2681 73.3803 66.9854 73.0976L66.2783 73.8047C66.6545 74.1809 67.097 74.4777 67.601 74.6961L67.9986 73.7785ZM66.9771 73.0895C66.6995 72.8246 66.4746 72.4994 66.3045 72.1069L65.3869 72.5045C65.6061 73.0104 65.9053 73.4489 66.2866 73.8128L66.9771 73.0895ZM66.3099 72.12C66.1544 71.7311 66.0762 71.3225 66.0762 70.8906H65.0762C65.0762 71.447 65.1776 71.9818 65.3815 72.4914L66.3099 72.12ZM66.0762 70.8906C66.0762 70.4587 66.1544 70.0502 66.3099 69.6613L65.3815 69.2899C65.1776 69.7994 65.0762 70.3343 65.0762 70.8906H66.0762ZM66.3045 69.6744C66.4763 69.278 66.7058 68.9312 66.9932 68.6308L66.2705 67.9395C65.899 68.3279 65.6045 68.7748 65.3869 69.2768L66.3045 69.6744ZM66.9932 68.6308C67.2724 68.3388 67.6016 68.1168 67.9855 67.9633L67.6141 67.0348C67.0996 67.2406 66.6501 67.5427 66.2705 67.9395L66.9932 68.6308ZM67.9986 67.9578C68.3845 67.7906 68.7884 67.707 69.2148 67.707V66.707C68.653 66.707 68.1136 66.8181 67.601 67.0402L67.9986 67.9578ZM69.2148 67.707C69.6413 67.707 70.0452 67.7906 70.4311 67.9578L70.8287 67.0402C70.3161 66.8181 69.7767 66.707 69.2148 66.707V67.707ZM70.4442 67.9633C70.8301 68.1176 71.1699 68.3419 71.4668 68.6387L72.1739 67.9316C71.7819 67.5397 71.3281 67.2398 70.8156 67.0348L70.4442 67.9633ZM71.4668 68.6387C71.7636 68.9356 71.9878 69.2754 72.1422 69.6613L73.0707 69.2899C72.8657 68.7774 72.5658 68.3236 72.1739 67.9316L71.4668 68.6387ZM72.1477 69.6744C72.3149 70.0603 72.3984 70.4642 72.3984 70.8906H73.3984C73.3984 70.3288 73.2873 69.7894 73.0652 69.2768L72.1477 69.6744ZM72.3984 70.8906C72.3984 71.317 72.3149 71.721 72.1477 72.1069L73.0652 72.5045C73.2873 71.9919 73.3984 71.4525 73.3984 70.8906H72.3984ZM72.1422 72.12C71.9894 72.5019 71.7698 72.8202 71.4832 73.0819L72.1574 73.8204C72.5596 73.4532 72.8641 73.0079 73.0707 72.4914L72.1422 72.12ZM71.4747 73.0899C71.1743 73.3772 70.8275 73.6068 70.4311 73.7785L70.8287 74.6961C71.3307 74.4785 71.7776 74.184 72.1659 73.8125L71.4747 73.0899ZM70.4442 73.7731C70.0553 73.9286 69.6468 74.0068 69.2148 74.0068V75.0068C69.7712 75.0068 70.306 74.9054 70.8156 74.7015L70.4442 73.7731ZM66.0928 99.7695C64.73 99.7695 63.7086 99.37 62.9679 98.6163L62.2547 99.3173C63.2211 100.301 64.5207 100.77 66.0928 100.77V99.7695ZM62.9649 98.6132C62.13 97.7783 61.6738 96.5246 61.6738 94.7666H60.6738C60.6738 96.6922 61.176 98.2386 62.2578 99.3204L62.9649 98.6132ZM61.6738 94.7666C61.6738 93.9421 61.7878 92.9746 62.0225 91.8598L61.0439 91.6538C60.7994 92.8151 60.6738 93.8541 60.6738 94.7666H61.6738ZM62.0224 91.8603L65.1444 77.1035L64.1661 76.8965L61.044 91.6533L62.0224 91.8603ZM64.6553 77.5H71.2812V76.5H64.6553V77.5ZM70.792 76.8967L67.4903 92.5295L68.4687 92.7361L71.7705 77.1033L70.792 76.8967ZM67.5016 92.4858C67.362 92.9394 67.2998 93.4876 67.2998 94.1152H68.2998C68.2998 93.545 68.3574 93.1049 68.4574 92.7799L67.5016 92.4858ZM67.2998 94.1152C67.2998 94.7973 67.4507 95.4172 67.8932 95.8131L68.56 95.0678C68.4334 94.9546 68.2998 94.6909 68.2998 94.1152H67.2998ZM67.9027 95.8214C68.3364 96.19 68.9605 96.3223 69.6641 96.3223V95.3223C69.0499 95.3223 68.7157 95.2 68.5504 95.0595L67.9027 95.8214ZM69.6641 96.3223C70.1882 96.3223 70.6941 96.2082 71.1774 95.9838L70.7562 95.0768C70.401 95.2417 70.0384 95.3223 69.6641 95.3223V96.3223ZM71.1842 95.9805C71.6716 95.7452 72.1139 95.4272 72.5108 95.0303L71.8037 94.3232C71.4818 94.6451 71.1305 94.896 70.7494 95.08L71.1842 95.9805ZM72.5108 95.0303C73.3135 94.2275 73.904 93.1778 74.2971 91.9043L73.3416 91.6094C72.9859 92.7616 72.4684 93.6585 71.8037 94.3232L72.5108 95.0303ZM73.8193 92.2568H75.751V91.2568H73.8193V92.2568ZM75.2798 91.5896C74.4714 93.8679 73.4671 95.6541 72.2801 96.9698L73.0226 97.6396C74.3213 96.2001 75.3835 94.2877 76.2222 91.924L75.2798 91.5896ZM72.2858 96.9635C71.2854 98.0354 70.166 98.7977 68.927 99.2623L69.2781 100.199C70.6745 99.675 71.921 98.8201 73.0169 97.6458L72.2858 96.9635ZM68.927 99.2623C68.0261 99.6001 67.0825 99.7695 66.0928 99.7695V100.77C67.1994 100.77 68.2623 100.58 69.2781 100.199L68.927 99.2623ZM75.1895 98.5625L74.8487 98.9284L74.8496 98.9292L75.1895 98.5625ZM73.5273 89.8252L74.0204 89.9084L74.0215 89.9012L73.5273 89.8252ZM74.3809 86.3438L74.8546 86.5037L74.8562 86.4988L74.3809 86.3438ZM78.2666 79.6504L77.9156 79.2943L77.9146 79.2953L78.2666 79.6504ZM89.6992 77.9209L90.0566 77.5711L90.0528 77.5673L89.6992 77.9209ZM90.0137 83.334L90.4021 83.6489L90.4041 83.6463L90.0137 83.334ZM86.667 83.626L86.2003 83.4465L86.053 83.8296L86.4 84.0487L86.667 83.626ZM86.8916 79.5381L86.4645 79.7981L86.4712 79.8091L86.4785 79.8198L86.8916 79.5381ZM83.1406 81.4023L83.5641 81.6682L83.5669 81.6637L83.1406 81.4023ZM80.9395 86.7705L81.4208 86.9061L81.4223 86.9004L80.9395 86.7705ZM80.8945 95.6426L81.2534 95.2943L81.2481 95.289L80.8945 95.6426ZM87.9248 95.0586L87.655 94.6376L87.6517 94.6398L87.9248 95.0586ZM89.6094 93.7334L89.9527 94.0969L89.9579 94.0919L89.6094 93.7334ZM91.4961 91.7568V91.2568H91.2743L91.1255 91.4212L91.4961 91.7568ZM93.0684 91.7568L93.4987 92.0114L93.945 91.2568H93.0684V91.7568ZM88.0596 97.6191L88.3624 98.017L88.3646 98.0153L88.0596 97.6191ZM80.4229 99.7695C78.2429 99.7695 76.6364 99.2218 75.5293 98.1958L74.8496 98.9292C76.1983 100.179 78.0807 100.77 80.4229 100.77V99.7695ZM75.5302 98.1966C74.3652 97.1119 73.7354 95.4052 73.7354 92.9697H72.7354C72.7354 95.5655 73.4082 97.5873 74.8487 98.9284L75.5302 98.1966ZM73.7354 92.9697C73.7354 92.0599 73.8293 91.0402 74.0204 89.9084L73.0343 89.742C72.8361 90.9162 72.7354 91.9928 72.7354 92.9697H73.7354ZM74.0215 89.9012C74.1967 88.7626 74.4742 87.6302 74.8546 86.5037L73.9071 86.1838C73.5089 87.3633 73.2174 88.5518 73.0332 89.7492L74.0215 89.9012ZM74.8562 86.4988C75.7509 83.7559 77.0102 81.5996 78.6186 80.0055L77.9146 79.2953C76.1689 81.0254 74.8376 83.3313 73.9055 86.1887L74.8562 86.4988ZM78.6176 80.0065C80.593 78.0597 82.9162 77.0957 85.6113 77.0957V76.0957C82.6463 76.0957 80.073 77.1682 77.9156 79.2943L78.6176 80.0065ZM85.6113 77.0957C87.3831 77.0957 88.5925 77.5213 89.3457 78.2745L90.0528 77.5673C89.039 76.5536 87.5232 76.0957 85.6113 76.0957V77.0957ZM89.3419 78.2706C89.9179 78.8592 90.2324 79.6872 90.2324 80.8184H91.2324C91.2324 79.4938 90.8581 78.3902 90.0566 77.5712L89.3419 78.2706ZM90.2324 80.8184C90.2324 81.8282 90.0076 82.5412 89.6232 83.0216L90.4041 83.6463C90.9781 82.9289 91.2324 81.9648 91.2324 80.8184H90.2324ZM89.6253 83.0191C89.2695 83.4579 88.8349 83.665 88.2842 83.665V84.665C89.141 84.665 89.8594 84.3182 90.402 83.6489L89.6253 83.0191ZM88.2842 83.665C87.8955 83.665 87.4482 83.528 86.934 83.2032L86.4 84.0487C87.0238 84.4427 87.6547 84.665 88.2842 84.665V83.665ZM87.1337 83.8055C87.5249 82.7883 87.7285 81.821 87.7285 80.9082H86.7285C86.7285 81.6725 86.5578 82.517 86.2003 83.4465L87.1337 83.8055ZM87.7285 80.9082C87.7285 80.2681 87.6066 79.6992 87.3047 79.2564L86.4785 79.8198C86.6258 80.0358 86.7285 80.3804 86.7285 80.9082H87.7285ZM87.3187 79.2781C87.014 78.7775 86.5335 78.5215 85.9482 78.5215V79.5215C86.2015 79.5215 86.3499 79.6098 86.4645 79.7981L87.3187 79.2781ZM85.9482 78.5215C85.3435 78.5215 84.7744 78.79 84.2491 79.2354C83.7256 79.6793 83.216 80.323 82.7144 81.141L83.5669 81.6637C84.0386 80.8944 84.4836 80.3477 84.8959 79.998C85.3065 79.6498 85.6546 79.5215 85.9482 79.5215V78.5215ZM82.7171 81.1365C81.7998 82.5981 81.0493 84.4371 80.4566 86.6406L81.4223 86.9004C81.9976 84.7614 82.7145 83.0217 83.5641 81.6682L82.7171 81.1365ZM80.4582 86.6349C79.8501 88.7936 79.541 90.7643 79.541 92.543H80.541C80.541 90.8776 80.8309 89 81.4207 86.9061L80.4582 86.6349ZM79.541 92.543C79.541 94.0704 79.8246 95.2797 80.541 95.9961L81.2481 95.289C80.8265 94.8674 80.541 94.0104 80.541 92.543H79.541ZM80.5357 95.9908C81.1686 96.6428 82.1582 96.9062 83.3652 96.9062V95.9062C82.2663 95.9062 81.6088 95.6606 81.2533 95.2943L80.5357 95.9908ZM83.3652 96.9062C85.1232 96.9062 86.7382 96.4294 88.1979 95.4774L87.6517 94.6398C86.3562 95.4846 84.9314 95.9062 83.3652 95.9062V96.9062ZM88.1946 95.4795C88.8066 95.0873 89.3925 94.626 89.9527 94.0969L89.2661 93.3699C88.7481 93.8591 88.211 94.2812 87.655 94.6377L88.1946 95.4795ZM89.9579 94.0919C90.507 93.5581 91.1435 92.891 91.8667 92.0925L91.1255 91.4212C90.4111 92.21 89.7899 92.8606 89.2608 93.3749L89.9579 94.0919ZM91.4961 92.2568H93.0684V91.2568H91.4961V92.2568ZM92.638 91.5023C91.2116 93.9139 89.5819 95.8162 87.7546 97.2229L88.3646 98.0153C90.3106 96.5172 92.0201 94.5113 93.4987 92.0114L92.638 91.5023ZM87.7567 97.2213C85.5179 98.9257 83.0776 99.7695 80.4229 99.7695V100.77C83.3085 100.77 85.9594 99.8464 88.3624 98.017L87.7567 97.2213ZM92.7764 98.6299L92.4187 98.9793L92.4204 98.981L92.7764 98.6299ZM91.2266 89.4658L91.718 89.558L91.7191 89.552L91.2266 89.4658ZM92.1699 85.917L91.7 85.7461L91.6993 85.7481L92.1699 85.917ZM96.1006 79.5381L95.7541 79.1776L95.7519 79.1797L96.1006 79.5381ZM105.512 77.4268L105.223 77.8351L105.234 77.8428L105.512 77.4268ZM106.455 79.4482H105.955L106.945 79.5472L106.455 79.4482ZM106.949 77V76.5H106.54L106.459 76.9011L106.949 77ZM113.575 77L114.064 77.1033L114.192 76.5H113.575V77ZM110.273 92.6328L110.752 92.7765L110.758 92.7565L110.763 92.7361L110.273 92.6328ZM114.249 94.8115L113.861 94.4962L113.86 94.4975L114.249 94.8115ZM115.687 91.7568V91.2568H115.309L115.206 91.6202L115.687 91.7568ZM117.618 91.7568L118.09 91.9231L118.325 91.2568H117.618V91.7568ZM114.631 97.3047L115.006 97.635L115.01 97.6301L114.631 97.3047ZM111.284 99.7305L111.467 100.196L111.469 100.195L111.284 99.7305ZM105.265 99.2139L104.922 99.578L104.929 99.5848L105.265 99.2139ZM103.872 96.0469L104.369 95.9881L104.216 94.6952L103.464 95.7581L103.872 96.0469ZM101.132 98.9219L100.84 98.5159L100.837 98.5184L101.132 98.9219ZM101.087 95.5527L100.877 95.0987L100.871 95.102L101.087 95.5527ZM102.21 94.7891L102.548 95.1578L102.557 95.1492L102.21 94.7891ZM103.827 91.7568L104.316 91.8628L104.316 91.8606L103.827 91.7568ZM106.028 81.3799L106.517 81.4836L106.528 81.4323V81.3799H106.028ZM105.916 80.8633L105.435 81.0006L105.441 81.022L105.449 81.0428L105.916 80.8633ZM105.646 80.2793L106.063 80.0019L106.048 79.9804L106.032 79.9605L105.646 80.2793ZM102.345 80.2344L102.06 79.8232L102.055 79.8268L102.345 80.2344ZM100.728 81.9189L100.319 81.6299L100.316 81.6351L100.728 81.9189ZM98.5039 87.0176L98.9841 87.157L98.9856 87.1518L98.5039 87.0176ZM97.8975 89.7803L98.3919 89.8544L98.3921 89.8533L97.8975 89.7803ZM98.5488 95.3281L98.9152 94.9879L98.9043 94.9762L98.8927 94.9651L98.5488 95.3281ZM97.0215 99.7695C95.3828 99.7695 94.103 99.2629 93.1324 98.2788L92.4204 98.981C93.606 100.183 95.1563 100.77 97.0215 100.77V99.7695ZM93.1341 98.2805C91.9995 97.119 91.3896 95.3494 91.3896 92.8799H90.3896C90.3896 95.5016 91.0376 97.5653 92.4187 98.9793L93.1341 98.2805ZM91.3896 92.8799C91.3896 91.8364 91.4984 90.7294 91.718 89.558L90.7351 89.3737C90.5055 90.5981 90.3896 91.7672 90.3896 92.8799H91.3896ZM91.7191 89.552C91.9237 88.3828 92.2307 87.2275 92.6405 86.0859L91.6993 85.7481C91.2706 86.9424 90.9487 88.153 90.734 89.3796L91.7191 89.552ZM92.6398 86.0879C93.5777 83.5087 94.8513 81.4512 96.4493 79.8964L95.7519 79.1797C94.0256 80.8593 92.6788 83.0545 91.7 85.7461L92.6398 86.0879ZM96.447 79.8986C98.277 78.1401 100.364 77.2754 102.727 77.2754V76.2754C100.088 76.2754 97.7575 77.2525 95.7541 79.1776L96.447 79.8986ZM102.727 77.2754C103.927 77.2754 104.733 77.4881 105.223 77.835L105.8 77.0185C105.063 76.4969 104.012 76.2754 102.727 76.2754V77.2754ZM105.234 77.8428C105.736 78.1775 105.955 78.5889 105.955 79.1113H106.955C106.955 78.2262 106.545 77.5146 105.789 77.0107L105.234 77.8428ZM105.955 79.1113V79.4482H106.955V79.1113H105.955ZM106.945 79.5472L107.439 77.0989L106.459 76.9011L105.965 79.3493L106.945 79.5472ZM106.949 77.5H113.575V76.5H106.949V77.5ZM113.086 76.8967L109.784 92.5295L110.763 92.7361L114.064 77.1033L113.086 76.8967ZM109.795 92.4891C109.644 92.9913 109.571 93.5346 109.571 94.1152H110.571C110.571 93.6177 110.633 93.1727 110.752 92.7765L109.795 92.4891ZM109.571 94.1152C109.571 94.8455 109.745 95.486 110.181 95.9429C110.622 96.4041 111.246 96.5918 111.958 96.5918V95.5918C111.412 95.5918 111.093 95.45 110.905 95.2524C110.712 95.0504 110.571 94.7027 110.571 94.1152H109.571ZM111.958 96.5918C112.992 96.5918 113.886 96.0576 114.638 95.1255L113.86 94.4975C113.235 95.2725 112.602 95.5918 111.958 95.5918V96.5918ZM114.637 95.1268C115.279 94.3365 115.783 93.2479 116.167 91.8935L115.206 91.6202C114.842 92.9012 114.387 93.8491 113.861 94.4962L114.637 95.1268ZM115.687 92.2568H117.618V91.2568H115.687V92.2568ZM117.147 91.5906C116.336 93.8889 115.367 95.6777 114.251 96.9793L115.01 97.6301C116.231 96.2064 117.253 94.2967 118.09 91.9231L117.147 91.5906ZM114.256 96.9744C113.313 98.0453 112.261 98.8041 111.099 99.2658L111.469 100.195C112.793 99.6685 113.972 98.8101 115.006 97.635L114.256 96.9744ZM111.101 99.2652C110.248 99.6008 109.345 99.7695 108.387 99.7695V100.77C109.465 100.77 110.493 100.579 111.467 100.196L111.101 99.2652ZM108.387 99.7695C107.177 99.7695 106.266 99.4449 105.6 98.8429L104.929 99.5848C105.821 100.39 106.991 100.77 108.387 100.77V99.7695ZM105.607 98.8498C104.954 98.2352 104.524 97.3036 104.369 95.9881L103.376 96.1056C103.549 97.5753 104.048 98.755 104.922 99.578L105.607 98.8498ZM103.464 95.7581C102.619 96.9526 101.743 97.8669 100.84 98.5159L101.424 99.3279C102.437 98.5992 103.388 97.5969 104.28 96.3356L103.464 95.7581ZM100.837 98.5184C99.6938 99.3545 98.427 99.7695 97.0215 99.7695V100.77C98.6407 100.77 100.114 100.286 101.427 99.3254L100.837 98.5184ZM100.009 96.3223C100.442 96.3223 100.875 96.209 101.303 96.0035L100.871 95.102C100.55 95.2558 100.264 95.3223 100.009 95.3223V96.3223ZM101.296 96.0067C101.739 95.8026 102.155 95.5173 102.548 95.1576L101.872 94.4205C101.546 94.7197 101.214 94.9435 100.877 95.0988L101.296 96.0067ZM102.557 95.1492C103.446 94.2929 104.028 93.1893 104.316 91.8628L103.339 91.6509C103.087 92.8101 102.591 93.7279 101.863 94.4289L102.557 95.1492ZM104.316 91.8606L106.517 81.4836L105.539 81.2761L103.338 91.6531L104.316 91.8606ZM106.528 81.3799C106.528 81.1498 106.472 80.9149 106.383 80.6838L105.449 81.0428C105.51 81.201 105.528 81.3105 105.528 81.3799H106.528ZM106.397 80.7259C106.323 80.467 106.211 80.2251 106.063 80.0019L105.23 80.5566C105.321 80.6929 105.389 80.8403 105.435 81.0006L106.397 80.7259ZM106.032 79.9605C105.563 79.3944 104.911 79.1279 104.142 79.1279V80.1279C104.66 80.1279 105.011 80.2958 105.261 80.5981L106.032 79.9605ZM104.142 79.1279C103.411 79.1279 102.714 79.3705 102.06 79.8233L102.629 80.6455C103.143 80.2897 103.645 80.1279 104.142 80.1279V79.1279ZM102.055 79.8268C101.43 80.2709 100.853 80.8768 100.32 81.6299L101.136 82.208C101.62 81.5236 102.121 81.0064 102.634 80.642L102.055 79.8268ZM100.316 81.6351C99.3766 82.997 98.6159 84.7522 98.0222 86.8834L98.9856 87.1518C99.5598 85.0902 100.282 83.4463 101.139 82.2028L100.316 81.6351ZM98.0237 86.8782C97.7482 87.8273 97.541 88.7704 97.4028 89.7073L98.3921 89.8533C98.5234 88.9633 98.7206 88.0646 98.9841 87.157L98.0237 86.8782ZM97.403 89.7061C97.2654 90.6236 97.1953 91.4649 97.1953 92.2285H98.1953C98.1953 91.5246 98.26 90.7339 98.3919 89.8544L97.403 89.7061ZM97.1953 92.2285C97.1953 93.7778 97.4756 95.0002 98.205 95.6911L98.8927 94.9651C98.484 94.578 98.1953 93.734 98.1953 92.2285H97.1953ZM98.1824 95.6684C98.4323 95.9375 98.7312 96.1306 99.0789 96.2175L99.3215 95.2474C99.1901 95.2145 99.0546 95.138 98.9152 94.9879L98.1824 95.6684ZM99.0789 96.2175C99.3655 96.2891 99.6768 96.3223 100.009 96.3223V95.3223C99.7419 95.3223 99.514 95.2955 99.3215 95.2474L99.0789 96.2175ZM128.085 98.6523L128.466 98.3291L128.465 98.3275L128.085 98.6523ZM127.142 92.6777L126.651 92.5812L126.65 92.589L127.142 92.6777ZM127.928 89.1514L128.414 89.2679L128.415 89.2656L127.928 89.1514ZM128.691 85.6475L128.201 85.5478L128.2 85.5543L128.691 85.6475ZM125.143 82.2334L124.752 81.921L124.75 81.9241L125.143 82.2334ZM123.705 85.2432L123.228 85.095L123.221 85.117L123.216 85.1397L123.705 85.2432ZM120.583 100V100.5H120.988L121.072 100.103L120.583 100ZM113.957 100L113.468 99.8963L113.34 100.5H113.957V100ZM118.831 77V76.5H118.426L118.342 76.8963L118.831 77ZM125.457 77L125.947 77.1016L126.071 76.5H125.457V77ZM124.963 79.3809L124.473 79.2793L124.096 81.0987L125.335 79.7144L124.963 79.3809ZM127.86 77.2695L128.043 77.7352L128.043 77.735L127.86 77.2695ZM134.015 78.0332L134.354 77.6656L134.349 77.6616L134.015 78.0332ZM134.868 86.1641L134.381 86.0529L134.379 86.0603L134.868 86.1641ZM134.352 88.3877L134.835 88.5141L134.837 88.5055L134.352 88.3877ZM133.408 92.3633L132.918 92.2667L132.917 92.2697L133.408 92.3633ZM133.633 95.3281L133.239 95.6363L133.247 95.6458L133.254 95.6549L133.633 95.3281ZM137.384 94.6992L137.001 94.3772L137.001 94.3776L137.384 94.6992ZM138.934 91.7568V91.2568H138.594L138.469 91.572L138.934 91.7568ZM140.865 91.7568L141.339 91.9168L141.562 91.2568H140.865V91.7568ZM136.553 98.832L136.246 98.437L136.245 98.4379L136.553 98.832ZM132.308 99.7695C130.499 99.7695 129.255 99.2597 128.466 98.3291L127.703 98.9756C128.742 100.201 130.313 100.77 132.308 100.77V99.7695ZM128.465 98.3275C127.763 97.5061 127.395 96.438 127.395 95.0811H126.395C126.395 96.629 126.82 97.9418 127.705 98.9772L128.465 98.3275ZM127.395 95.0811C127.395 94.4302 127.473 93.66 127.634 92.7665L126.65 92.589C126.481 93.5223 126.395 94.3543 126.395 95.0811H127.395ZM127.632 92.7742C127.81 91.8702 128.07 90.7021 128.414 89.2679L127.441 89.0349C127.096 90.4756 126.833 91.6584 126.651 92.5812L127.632 92.7742ZM128.415 89.2656C128.76 87.7953 129.016 86.6194 129.183 85.7406L128.2 85.5543C128.037 86.4125 127.785 87.5725 127.441 89.0371L128.415 89.2656ZM129.181 85.7471C129.365 84.8428 129.461 84.0441 129.461 83.3564H128.461C128.461 83.9565 128.377 84.6852 128.201 85.5478L129.181 85.7471ZM129.461 83.3564C129.461 82.5268 129.318 81.8153 128.954 81.2996C128.568 80.7519 127.987 80.498 127.299 80.498V81.498C127.719 81.498 127.969 81.6372 128.137 81.8757C128.327 82.1462 128.461 82.6138 128.461 83.3564H129.461ZM127.299 80.498C126.319 80.498 125.47 81.0237 124.752 81.9211L125.533 82.5457C126.133 81.796 126.721 81.498 127.299 81.498V80.498ZM124.75 81.9241C124.143 82.6943 123.641 83.7612 123.228 85.095L124.183 85.3914C124.577 84.1197 125.034 83.1801 125.535 82.5427L124.75 81.9241ZM123.216 85.1397L120.094 99.8965L121.072 100.103L124.194 85.3467L123.216 85.1397ZM120.583 99.5H113.957V100.5H120.583V99.5ZM114.446 100.104L119.32 77.1037L118.342 76.8963L113.468 99.8963L114.446 100.104ZM118.831 77.5H125.457V76.5H118.831V77.5ZM124.967 76.8984L124.473 79.2793L125.452 79.4825L125.947 77.1016L124.967 76.8984ZM125.335 79.7144C126.193 78.7572 127.096 78.1055 128.043 77.7352L127.678 76.8039C126.558 77.2422 125.53 77.998 124.59 79.0473L125.335 79.7144ZM128.043 77.735C128.744 77.46 129.505 77.3203 130.331 77.3203V76.3203C129.39 76.3203 128.504 76.4801 127.678 76.804L128.043 77.735ZM130.331 77.3203C131.801 77.3203 132.898 77.7005 133.68 78.4049L134.349 77.6616C133.335 76.7487 131.975 76.3203 130.331 76.3203V77.3203ZM133.676 78.4008C134.499 79.1595 134.952 80.3299 134.952 82.0088H135.952C135.952 80.1539 135.447 78.6738 134.354 77.6656L133.676 78.4008ZM134.952 82.0088C134.952 83.0183 134.766 84.3621 134.381 86.0529L135.356 86.2752C135.749 84.5519 135.952 83.1256 135.952 82.0088H134.952ZM134.379 86.0603C134.276 86.5471 134.105 87.2826 133.866 88.2699L134.837 88.5055C135.077 87.5162 135.251 86.7693 135.357 86.2678L134.379 86.0603ZM133.868 88.2613C133.433 89.9275 133.115 91.2639 132.918 92.2667L133.899 92.4599C134.091 91.4861 134.402 90.1722 134.835 88.5141L133.868 88.2613ZM132.917 92.2697C132.795 92.9125 132.729 93.4564 132.729 93.8906H133.729C133.729 93.5462 133.782 93.0719 133.899 92.4568L132.917 92.2697ZM132.729 93.8906C132.729 94.5721 132.878 95.1745 133.239 95.6363L134.027 95.02C133.849 94.793 133.729 94.4371 133.729 93.8906H132.729ZM133.254 95.6549C133.676 96.1429 134.331 96.3223 135.07 96.3223V95.3223C134.462 95.3223 134.159 95.1722 134.011 95.0013L133.254 95.6549ZM135.07 96.3223C136.143 96.3223 137.05 95.8735 137.767 95.0208L137.001 94.3776C136.459 95.0223 135.825 95.3223 135.07 95.3223V96.3223ZM137.766 95.0213C138.3 94.3878 138.84 93.3442 139.398 91.9417L138.469 91.572C137.919 92.9546 137.426 93.8726 137.001 94.3772L137.766 95.0213ZM138.934 92.2568H140.865V91.2568H138.934V92.2568ZM140.392 91.5968C139.267 94.9252 137.871 97.1762 136.246 98.437L136.859 99.2271C138.708 97.7925 140.187 95.3268 141.339 91.9168L140.392 91.5968ZM136.245 98.4379C135.108 99.3255 133.802 99.7695 132.308 99.7695V100.77C134.018 100.77 135.542 100.255 136.86 99.2262L136.245 98.4379ZM140.371 98.5176L140.704 98.1444L140.702 98.1425L140.371 98.5176ZM138.574 89.8027L139.067 89.887L139.067 89.886L138.574 89.8027ZM139.473 86.3213L139.945 86.4849L139.947 86.4794L139.473 86.3213ZM143.448 79.6504L143.795 80.0102L143.798 80.0078L143.448 79.6504ZM156.79 83.9854H156.29V84.3457L156.632 84.4597L156.79 83.9854ZM160.9 83.1768L161.09 83.6396L161.092 83.6386L160.9 83.1768ZM164.382 81.2676L164.858 81.1146L164.651 80.4699L164.095 80.8577L164.382 81.2676ZM164.786 82.5254L165.148 82.8702L165.353 82.6551L165.262 82.3724L164.786 82.5254ZM161.305 84.9287L161.095 84.475L161.093 84.4759L161.305 84.9287ZM156.633 86.3438L156.551 85.8506L156.168 85.9143L156.135 86.3007L156.633 86.3438ZM155.42 92.0488L155.889 92.2217L155.89 92.2204L155.42 92.0488ZM152.994 96.4512L153.382 96.7665L153.384 96.7647L152.994 96.4512ZM149.131 95.3281L149.458 95.7063L149.459 95.7056L149.131 95.3281ZM152.814 86.4785L153.31 86.5453L153.369 86.1089L152.943 85.9954L152.814 86.4785ZM151.849 85.8047L151.41 86.0441L151.414 86.0517L151.418 86.0591L151.849 85.8047ZM153.017 82.0537L153.215 82.5125L153.537 82.373L153.516 82.023L153.017 82.0537ZM152.545 79.9648L152.972 79.7053L152.966 79.6945L152.545 79.9648ZM152.028 79.5156L151.819 79.9698L151.831 79.9752L152.028 79.5156ZM148.232 81.7168L148.652 81.989L148.655 81.9847L148.232 81.7168ZM145.986 86.9277L145.505 86.7918L145.505 86.7923L145.986 86.9277ZM145.245 94.1826L144.751 94.2598L144.752 94.2673L144.754 94.2748L145.245 94.1826ZM145.672 95.3057L146.088 95.0283L146.083 95.0205L146.077 95.0129L145.672 95.3057ZM146.368 95.8896L146.174 96.3505L146.185 96.3549L146.195 96.3588L146.368 95.8896ZM145.649 99.6797C143.451 99.6797 141.826 99.145 140.704 98.1444L140.038 98.8908C141.402 100.106 143.296 100.68 145.649 100.68V99.6797ZM140.702 98.1425C139.451 97.0394 138.782 95.3342 138.782 92.9248H137.782C137.782 95.5167 138.506 97.54 140.04 98.8926L140.702 98.1425ZM138.782 92.9248C138.782 92.0151 138.876 91.0031 139.067 89.887L138.081 89.7184C137.883 90.8784 137.782 91.9478 137.782 92.9248H138.782ZM139.067 89.886C139.257 88.7618 139.549 87.6281 139.945 86.4848L139 86.1577C138.587 87.3504 138.281 88.5377 138.081 89.7195L139.067 89.886ZM139.947 86.4794C140.856 83.7536 142.143 81.605 143.795 80.0101L143.101 79.2906C141.309 81.02 139.946 83.3186 138.998 86.1632L139.947 86.4794ZM143.798 80.0078C145.787 78.0614 148.14 77.0957 150.883 77.0957V76.0957C147.875 76.0957 145.272 77.1664 143.099 79.293L143.798 80.0078ZM150.883 77.0957C152.742 77.0957 154.058 77.6684 154.924 78.7452C155.806 79.8429 156.29 81.5461 156.29 83.9404H157.29C157.29 81.4383 156.789 79.4691 155.703 78.1185C154.6 76.7471 152.961 76.0957 150.883 76.0957V77.0957ZM156.29 83.9404V83.9854H157.29V83.9404H156.29ZM156.632 84.4597C156.747 84.498 156.879 84.5303 157.015 84.5303V83.5303C157.025 83.5303 157.025 83.5314 157.012 83.5288C156.999 83.5262 156.978 83.5209 156.948 83.511L156.632 84.4597ZM157.015 84.5303H157.284V83.5303H157.015V84.5303ZM157.284 84.5303C158.39 84.5303 159.663 84.2225 161.09 83.6396L160.711 82.7139C159.353 83.269 158.214 83.5303 157.284 83.5303V84.5303ZM161.092 83.6386C162.353 83.1156 163.546 82.4618 164.668 81.6775L164.095 80.8577C163.032 81.6007 161.903 82.2197 160.709 82.7149L161.092 83.6386ZM163.906 81.4206L164.31 82.6784L165.262 82.3724L164.858 81.1146L163.906 81.4206ZM164.424 82.1806C163.577 83.0702 162.471 83.8373 161.095 84.475L161.515 85.3824C162.983 84.7024 164.199 83.8673 165.148 82.8702L164.424 82.1806ZM161.093 84.4759C159.731 85.1134 158.218 85.5727 156.551 85.8506L156.715 86.8369C158.462 86.5458 160.064 86.0617 161.517 85.3816L161.093 84.4759ZM156.135 86.3007C155.958 88.3442 155.562 90.202 154.95 91.8773L155.89 92.2204C156.536 90.4517 156.948 88.5061 157.131 86.3868L156.135 86.3007ZM154.951 91.876C154.338 93.5398 153.554 94.958 152.605 96.1377L153.384 96.7647C154.411 95.4886 155.244 93.9719 155.889 92.2217L154.951 91.876ZM152.606 96.1359C151.673 97.2849 150.61 98.1594 149.42 98.7688L149.875 99.6589C151.2 98.9806 152.369 98.0133 153.382 96.7665L152.606 96.1359ZM149.42 98.7688C148.232 99.3767 146.977 99.6797 145.649 99.6797V100.68C147.137 100.68 148.547 100.339 149.875 99.6589L149.42 98.7688ZM147.491 96.5469C148.188 96.5469 148.846 96.2357 149.458 95.7063L148.804 94.9499C148.308 95.3789 147.873 95.5469 147.491 95.5469V96.5469ZM149.459 95.7056C150.082 95.1646 150.647 94.434 151.16 93.5314L150.291 93.0369C149.816 93.8713 149.318 94.5034 148.803 94.9506L149.459 95.7056ZM151.16 93.5314C151.676 92.6251 152.116 91.572 152.484 90.3765L151.528 90.0824C151.177 91.2229 150.764 92.2063 150.291 93.0369L151.16 93.5314ZM152.484 90.3765C152.852 89.1799 153.127 87.9025 153.31 86.5453L152.319 86.4117C152.143 87.7199 151.879 88.9432 151.528 90.0824L152.484 90.3765ZM152.943 85.9954C152.592 85.9017 152.393 85.7435 152.279 85.5503L151.418 86.0591C151.693 86.5247 152.139 86.8158 152.686 86.9616L152.943 85.9954ZM152.288 85.5653C152.16 85.3308 152.079 85.0009 152.079 84.5469H151.079C151.079 85.1111 151.178 85.6197 151.41 86.0441L152.288 85.5653ZM152.079 84.5469C152.079 83.9841 152.193 83.556 152.388 83.2341L151.534 82.7151C151.22 83.2318 151.079 83.8519 151.079 84.5469H152.079ZM152.388 83.2341C152.589 82.9031 152.861 82.6659 153.215 82.5125L152.818 81.5949C152.273 81.8308 151.842 82.2075 151.534 82.7151L152.388 83.2341ZM153.516 82.023C153.455 81.0337 153.293 80.2338 152.972 79.7054L152.118 80.2243C152.306 80.5344 152.459 81.1271 152.518 82.0844L153.516 82.023ZM152.966 79.6945C152.782 79.409 152.535 79.1889 152.225 79.0561L151.831 79.9752C151.941 80.0221 152.038 80.1014 152.124 80.2352L152.966 79.6945ZM152.238 79.0616C151.954 78.9307 151.62 78.8809 151.265 78.8809V79.8809C151.538 79.8809 151.713 79.9208 151.819 79.9696L152.238 79.0616ZM151.265 78.8809C149.96 78.8809 148.819 79.8592 147.81 81.4489L148.655 81.9847C149.622 80.4598 150.503 79.8809 151.265 79.8809V78.8809ZM147.813 81.4446C146.866 82.9041 146.099 84.6899 145.505 86.7918L146.467 87.0637C147.041 85.0328 147.772 83.3446 148.652 81.989L147.813 81.4446ZM145.505 86.7923C144.927 88.8441 144.633 90.6879 144.633 92.3184H145.633C145.633 90.8043 145.907 89.0544 146.468 87.0632L145.505 86.7923ZM144.633 92.3184C144.633 93.095 144.671 93.7449 144.751 94.2598L145.739 94.1054C145.67 93.662 145.633 93.0691 145.633 92.3184H144.633ZM144.754 94.2748C144.851 94.7953 145.013 95.248 145.267 95.5984L146.077 95.0129C145.941 94.8243 145.819 94.5283 145.737 94.0905L144.754 94.2748ZM145.256 95.583C145.487 95.9299 145.795 96.1907 146.174 96.3505L146.562 95.4288C146.373 95.349 146.216 95.2205 146.088 95.0283L145.256 95.583ZM146.195 96.3588C146.556 96.4919 146.996 96.5469 147.491 96.5469V95.5469C147.058 95.5469 146.749 95.4971 146.541 95.4205L146.195 96.3588ZM162.271 77V76.5H161.865L161.781 76.8963L162.271 77ZM168.896 77L169.386 77.1003L169.509 76.5H168.896V77ZM168.312 79.8525L167.823 79.7523L167.522 81.2206L168.644 80.2268L168.312 79.8525ZM170.873 77.876L170.624 77.4422L170.619 77.4455L170.873 77.876ZM176.241 78.0557L175.86 78.3797L175.862 78.3811L176.241 78.0557ZM176.848 79.1562L176.372 79.3093L176.373 79.3144L176.848 79.1562ZM176.241 82.7275L176.611 83.0639L176.616 83.0585L176.621 83.0529L176.241 82.7275ZM175.141 83.5137L174.936 83.0574L174.93 83.0602L175.141 83.5137ZM172.198 83.0195L171.746 83.2324L171.751 83.2431L171.756 83.2535L172.198 83.0195ZM171.951 82.2783L172.443 82.1862L172.441 82.1759L171.951 82.2783ZM171.547 80.998L171.967 80.7277L171.962 80.7194L171.956 80.7113L171.547 80.998ZM167.706 82.5254L167.369 82.1561L167.25 82.2647L167.217 82.4223L167.706 82.5254ZM164.022 100V100.5H164.428L164.512 100.103L164.022 100ZM157.396 100L156.907 99.8963L156.779 100.5H157.396V100ZM162.271 77.5H168.896V76.5H162.271V77.5ZM168.407 76.8997L167.823 79.7523L168.802 79.9528L169.386 77.1003L168.407 76.8997ZM168.644 80.2268C169.684 79.3053 170.51 78.6714 171.127 78.3064L170.619 77.4455C169.919 77.8592 169.037 78.543 167.981 79.4782L168.644 80.2268ZM171.122 78.3097C172.08 77.7602 172.991 77.5 173.86 77.5V76.5C172.783 76.5 171.703 76.8238 170.624 77.4422L171.122 78.3097ZM173.86 77.5C174.714 77.5 175.364 77.7961 175.86 78.3797L176.622 77.7316C175.921 76.9077 174.984 76.5 173.86 76.5V77.5ZM175.862 78.3811C176.085 78.6419 176.256 78.9492 176.372 79.3093L177.324 79.0032C177.17 78.5247 176.936 78.0983 176.621 77.7303L175.862 78.3811ZM176.373 79.3144C176.49 79.6633 176.55 80.0438 176.55 80.459H177.55C177.55 79.9458 177.475 79.4578 177.322 78.9981L176.373 79.3144ZM176.55 80.459C176.55 80.8236 176.491 81.1725 176.375 81.5083L177.32 81.8354C177.473 81.3926 177.55 80.9329 177.55 80.459H176.55ZM176.375 81.5083C176.261 81.838 176.09 82.1351 175.862 82.4021L176.621 83.0529C176.931 82.6911 177.165 82.2844 177.32 81.8354L176.375 81.5083ZM175.871 82.3912C175.621 82.6663 175.312 82.8889 174.936 83.0574L175.345 83.9699C175.838 83.7491 176.262 83.4477 176.611 83.0639L175.871 82.3912ZM174.93 83.0602C174.585 83.2203 174.187 83.3057 173.726 83.3057V84.3057C174.313 84.3057 174.858 84.1963 175.351 83.9672L174.93 83.0602ZM173.726 83.3057C173.37 83.3057 173.143 83.2452 173.005 83.1677L172.515 84.0393C172.856 84.2314 173.273 84.3057 173.726 84.3057V83.3057ZM173.005 83.1677C172.853 83.0823 172.732 82.9596 172.64 82.7856L171.756 83.2535C171.934 83.5885 172.187 83.8552 172.515 84.0393L173.005 83.1677ZM172.651 82.8066C172.546 82.5847 172.479 82.3782 172.443 82.1862L171.46 82.3705C171.514 82.6576 171.611 82.9452 171.746 83.2324L172.651 82.8066ZM172.441 82.1759C172.307 81.5396 172.159 81.0252 171.967 80.7277L171.126 81.2684C171.205 81.3901 171.325 81.7292 171.462 82.3808L172.441 82.1759ZM171.956 80.7113C171.736 80.3967 171.398 80.2734 171.053 80.2734V81.2734C171.11 81.2734 171.134 81.2831 171.138 81.2848C171.14 81.2856 171.139 81.2854 171.137 81.2839C171.135 81.2824 171.135 81.2821 171.137 81.2848L171.956 80.7113ZM171.053 80.2734C170.339 80.2734 169.699 80.4232 169.156 80.749L169.67 81.6065C170.026 81.3932 170.479 81.2734 171.053 81.2734V80.2734ZM169.156 80.749C168.664 81.044 168.066 81.5193 167.369 82.1561L168.043 82.8946C168.723 82.2737 169.264 81.8506 169.67 81.6065L169.156 80.749ZM167.217 82.4223L163.533 99.8969L164.512 100.103L168.195 82.6285L167.217 82.4223ZM164.022 99.5H157.396V100.5H164.022V99.5ZM157.886 100.104L162.76 77.1037L161.781 76.8963L156.907 99.8963L157.886 100.104Z" fill="#40A1BF"/>
</g>
</g>
<defs>
<filter id="filter0_i" x="0" y="0" width="200" height="200" filterUnits="userSpaceOnUse" color-interpolation-filters="sRGB">
<feFlood flood-opacity="0" result="BackgroundImageFix"/>
<feBlend mode="normal" in="SourceGraphic" in2="BackgroundImageFix" result="shape"/>
<feColorMatrix in="SourceAlpha" type="matrix" values="0 0 0 0 0 0 0 0 0 0 0 0 0 0 0 0 0 0 127 0" result="hardAlpha"/>
<feOffset/>
<feGaussianBlur stdDeviation="9"/>
<feComposite in2="hardAlpha" operator="arithmetic" k2="-1" k3="1"/>
<feColorMatrix type="matrix" values="0 0 0 0 0 0 0 0 0 0 0 0 0 0 0 0 0 0 0.25 0"/>
<feBlend mode="normal" in2="shape" result="effect1_innerShadow"/>
</filter>
<filter id="filter1_i" x="0" y="0" width="200" height="200" filterUnits="userSpaceOnUse" color-interpolation-filters="sRGB">
<feFlood flood-opacity="0" result="BackgroundImageFix"/>
<feBlend mode="normal" in="SourceGraphic" in2="BackgroundImageFix" result="shape"/>
<feColorMatrix in="SourceAlpha" type="matrix" values="0 0 0 0 0 0 0 0 0 0 0 0 0 0 0 0 0 0 127 0" result="hardAlpha"/>
<feOffset/>
<feGaussianBlur stdDeviation="2"/>
<feComposite in2="hardAlpha" operator="arithmetic" k2="-1" k3="1"/>
<feColorMatrix type="matrix" values="0 0 0 0 0 0 0 0 0 0 0 0 0 0 0 0 0 0 0.25 0"/>
<feBlend mode="normal" in2="shape" result="effect1_innerShadow"/>
</filter>
<linearGradient id="paint0_linear" x1="100" y1="0" x2="100" y2="200" gradientUnits="userSpaceOnUse">
<stop stop-color="#3ED831"/>
<stop offset="1" stop-color="#19A98F"/>
<stop offset="1" stop-color="#1BE03B"/>
</linearGradient>
<clipPath id="clip0">
<rect width="200" height="200" rx="100" fill="white"/>
</clipPath>
</defs>
</svg>
