<svg width="103" height="103" viewBox="0 0 103 103" fill="none" xmlns="http://www.w3.org/2000/svg">
<g filter="url(#filter0_di)">
<path d="M82.7447 82.1493C63.865 99.1486 34.7794 97.6243 17.78 78.7447C0.780696 59.865 2.30501 30.7793 21.1847 13.78C40.0643 -3.21933 69.15 -1.69502 86.1493 17.1846C103.149 36.0643 101.624 65.15 82.7447 82.1493Z" fill="url(#paint0_linear)"/>
</g>
<path d="M68.3624 22.0522H69.2039V41.374H68.3624V22.0522Z" fill="black"/>
<path d="M34.7011 22.0522H35.5426V41.374H34.7011V22.0522Z" fill="black"/>
<path d="M51.5318 31.7131H52.3733V50.7643H51.5318V31.7131Z" fill="black"/>
<path d="M51.9525 50.262L68.7832 40.6011V41.374L51.9525 51.0349V50.262Z" fill="black"/>
<path d="M51.9525 31.7131L68.7832 22.0522V22.825L51.9525 32.4859V31.7131Z" fill="black"/>
<path d="M34.7011 22.0522L51.9525 12.3913V13.1642L34.7011 22.8251V22.0522Z" fill="black"/>
<path d="M51.9525 50.262L35.1219 40.6011V41.374L51.9525 51.0349V50.262Z" fill="black"/>
<path d="M51.9525 31.7131L35.1219 22.0522V22.825L51.9525 32.4859V31.7131Z" fill="black"/>
<path d="M68.7831 22.0522L51.9524 12.3913V13.1642L68.7831 22.8251V22.0522Z" fill="black"/>
<path d="M52.3732 32.2541L68.3624 23.0569V40.7557L52.3732 49.9142V32.2541Z" fill="#009CE6"/>
<path d="M35.5425 23.0569L51.5316 32.203V50.0301L35.3742 40.8065L35.5425 23.0569Z" fill="#007DB7"/>
<path d="M51.9944 13.0869L68.1098 22.4L51.9944 31.7131L35.5425 22.4L51.9944 13.0869Z" fill="black"/>
<path d="M52.6243 28.0806C52.5775 28.0803 52.5309 28.0729 52.486 28.0588L48.9525 26.9697C48.7791 26.9164 48.6452 26.7674 48.6012 26.5787L48.0964 24.4004C48.0227 24.1104 48.1809 23.8107 48.4497 23.7312C48.7186 23.6516 48.9963 23.8223 49.07 24.1123C49.0721 24.1205 49.074 24.1286 49.0757 24.1368L49.5098 26.0101L52.6242 26.9707L55.6932 26.0242L56.6018 17.1903H47.5764C47.2977 17.1903 47.0717 16.9465 47.0717 16.6457C47.0717 16.3449 47.2977 16.1011 47.5764 16.1011H57.1671C57.4459 16.0993 57.6733 16.3416 57.675 16.6424C57.6751 16.6635 57.6741 16.6846 57.6719 16.7056L56.6624 26.5078C56.6395 26.7273 56.4959 26.9102 56.2989 26.9706L52.7655 28.0598C52.7196 28.074 52.672 28.0809 52.6243 28.0806Z" fill="#FAFAFA"/>
<path d="M56.6625 21.5458H48.0814C47.8026 21.5458 47.5766 21.302 47.5766 21.0012C47.5766 20.7005 47.8026 20.4567 48.0814 20.4567H56.6625C56.9413 20.4567 57.1673 20.7005 57.1673 21.0012C57.1673 21.302 56.9413 21.5458 56.6625 21.5458Z" fill="#FAFAFA"/>
<path d="M51.111 50.262H51.9525V69.5838H51.111V50.262Z" fill="black"/>
<path d="M17.6179 50.262H18.4595V69.5838H17.6179V50.262Z" fill="black"/>
<path d="M34.2803 59.9229H35.1218V78.9742H34.2803V59.9229Z" fill="black"/>
<path d="M34.7011 78.4718L51.5318 68.8109V69.5838L34.7011 79.2447V78.4718Z" fill="black"/>
<path d="M34.7011 59.9229L51.5318 50.262V51.0349L34.7011 60.6958V59.9229Z" fill="black"/>
<path d="M17.8703 50.262L34.701 40.6011V41.374L17.8703 51.0349V50.262Z" fill="black"/>
<path d="M34.7011 78.4718L17.8705 68.8109V69.5838L34.7011 79.2447V78.4718Z" fill="black"/>
<path d="M34.7011 59.9229L17.8705 50.262V51.0349L34.7011 60.6958V59.9229Z" fill="black"/>
<path d="M51.5317 50.262L34.7011 40.6011V41.374L51.5317 51.0349V50.262Z" fill="black"/>
<path d="M35.1219 60.4305L51.111 51.0349V69.1156L35.1219 78.4718V60.4305Z" fill="#F16524"/>
<path d="M18.2912 51.0349L34.2803 60.3382V78.4718L18.1229 69.0896L18.2912 51.0349Z" fill="#E54C21"/>
<path d="M34.7432 41.2967L50.9427 50.6485L34.7011 59.9229L18.2912 50.6098L34.7432 41.2967Z" fill="black"/>
<path d="M34.5346 56.7541C34.4878 56.7538 34.4412 56.7465 34.3963 56.7323L30.8632 55.6433C30.6898 55.5901 30.5559 55.441 30.512 55.2523L30.0072 53.0742C29.9335 52.7842 30.0917 52.4846 30.3605 52.4051C30.6293 52.3256 30.907 52.4962 30.9807 52.7862C30.9828 52.7943 30.9847 52.8025 30.9864 52.8107L31.4204 54.6838L34.5235 55.64L37.0936 54.7154L37.5094 50.2199H29.9921C29.7364 50.2221 29.5196 50.0176 29.4873 49.7439L28.9826 45.3878C28.9475 45.0895 29.1431 44.8169 29.4197 44.779C29.4421 44.7759 29.4647 44.7745 29.4873 44.7747H39.0771C39.3558 44.7747 39.5818 45.0185 39.5818 45.3192C39.5818 45.6199 39.3558 45.8637 39.0771 45.8637H30.0587L30.4372 49.1308H38.0677C38.3464 49.1293 38.5735 49.3719 38.5749 49.6726C38.575 49.6917 38.5742 49.7108 38.5724 49.7298L38.0677 55.175C38.0481 55.3885 37.9142 55.5698 37.7255 55.6379L34.6971 56.7269C34.6446 56.7452 34.5898 56.7544 34.5346 56.7541Z" fill="#FAFAFA"/>
<path d="M84.8564 49.762H84.3564V50.262V69.5838V70.0838H84.8564H85.698H86.198V69.5838V50.262V49.762H85.698H84.8564Z" fill="black" stroke="black"/>
<path d="M51.5317 49.762H51.0317V50.262V69.5838V70.0838H51.5317H52.3733H52.8733V69.5838V50.262V49.762H52.3733H51.5317Z" fill="black" stroke="black"/>
<path d="M68.3624 59.4229H67.8624V59.9229V78.9742V79.4742H68.3624H69.2039H69.7039V78.9742V59.9229V59.4229H69.2039H68.3624Z" fill="black" stroke="black"/>
<path d="M68.5342 78.0382L68.2831 78.1823V78.4718V79.2447V80.1082L69.032 79.6783L85.8626 70.0174L86.1137 69.8733V69.5838V68.8109V67.9474L85.3648 68.3773L68.5342 78.0382Z" fill="black" stroke="black"/>
<path d="M68.5342 59.4893L68.2831 59.6334V59.9229V60.6958V61.5593L69.032 61.1294L85.8626 51.4685L86.1137 51.3244V51.0349V50.262V49.3985L85.3648 49.8284L68.5342 59.4893Z" fill="black" stroke="black"/>
<path d="M51.7036 49.8284L51.4525 49.9725V50.262V51.0349V51.8984L52.2014 51.4685L69.0321 41.8076L69.2832 41.6635V41.374V40.6011V39.7376L68.5343 40.1675L51.7036 49.8284Z" fill="black" stroke="black"/>
<path d="M69.032 78.0382L69.2831 78.1823V78.4718V79.2447V80.1082L68.5342 79.6783L51.7035 70.0174L51.4524 69.8733V69.5838V68.8109V67.9474L52.2013 68.3773L69.032 78.0382Z" fill="black" stroke="black"/>
<path d="M69.032 59.4893L69.2831 59.6334V59.9229V60.6958V61.5593L68.5342 61.1294L51.7035 51.4685L51.4524 51.3244V51.0349V50.262V49.3985L52.2013 49.8284L69.032 59.4893Z" fill="black" stroke="black"/>
<path d="M85.8627 49.8284L86.1138 49.9725V50.262V51.0349V51.8984L85.3649 51.4685L68.5342 41.8076L68.2831 41.6635V41.374V40.6011V39.7376L69.032 40.1675L85.8627 49.8284Z" fill="black" stroke="black"/>
<path d="M69.2039 60.4305L85.193 51.0349V69.1156L69.2039 78.4718V60.4305Z" fill="#FFCA3E"/>
<path d="M52.4574 51.1122L68.4465 60.4155V78.5491L52.2891 69.1669L52.4574 51.1122Z" fill="#FA9C2A"/>
<path d="M68.699 41.3354L84.8143 50.6484L68.699 59.9615L52.247 50.6484L68.699 41.3354Z" fill="black"/>
<path d="M65.5113 53.3847C64.998 53.3847 64.5213 53.298 64.0813 53.1247C63.648 52.9447 63.298 52.6814 63.0313 52.3347C62.7713 51.988 62.6346 51.5714 62.6213 51.0847C62.6213 51.0247 62.6413 50.9747 62.6813 50.9347C62.7213 50.888 62.7746 50.8647 62.8413 50.8647H64.1913C64.278 50.8647 64.3446 50.888 64.3913 50.9347C64.4446 50.9814 64.4913 51.0514 64.5313 51.1447C64.638 51.678 64.9813 51.9447 65.5613 51.9447C65.8946 51.9447 66.1513 51.8347 66.3313 51.6147C66.5113 51.3947 66.6013 51.078 66.6013 50.6647V47.7747H63.3613C63.2946 47.7747 63.2346 47.7514 63.1813 47.7047C63.1346 47.6514 63.1113 47.5914 63.1113 47.5247V46.5347C63.1113 46.4614 63.1346 46.4014 63.1813 46.3547C63.2346 46.308 63.2946 46.2847 63.3613 46.2847H68.2013C68.2746 46.2847 68.3346 46.308 68.3813 46.3547C68.4346 46.4014 68.4613 46.4614 68.4613 46.5347V50.7147C68.4613 51.2814 68.338 51.7647 68.0913 52.1647C67.8446 52.5647 67.498 52.868 67.0513 53.0747C66.6046 53.2814 66.0913 53.3847 65.5113 53.3847ZM72.4103 53.3847C71.7769 53.3847 71.2336 53.2914 70.7803 53.1047C70.3269 52.918 69.9836 52.6747 69.7503 52.3747C69.5236 52.068 69.4036 51.7347 69.3903 51.3747C69.3903 51.3214 69.4103 51.2747 69.4503 51.2347C69.4969 51.188 69.5503 51.1647 69.6103 51.1647H70.8703C70.9503 51.1647 71.0136 51.1814 71.0603 51.2147C71.1136 51.2414 71.1669 51.2847 71.2203 51.3447C71.3069 51.518 71.4469 51.6614 71.6403 51.7747C71.8336 51.888 72.0903 51.9447 72.4103 51.9447C72.7903 51.9447 73.0803 51.8847 73.2803 51.7647C73.4803 51.6447 73.5803 51.4814 73.5803 51.2747C73.5803 51.128 73.5269 51.008 73.4203 50.9147C73.3203 50.8214 73.1603 50.738 72.9403 50.6647C72.7203 50.5914 72.3936 50.508 71.9603 50.4147C71.1603 50.248 70.5603 50.0047 70.1603 49.6847C69.7669 49.358 69.5703 48.8947 69.5703 48.2947C69.5703 47.888 69.6836 47.5247 69.9103 47.2047C70.1369 46.8847 70.4603 46.6347 70.8803 46.4547C71.3003 46.2747 71.7903 46.1847 72.3503 46.1847C72.9303 46.1847 73.4336 46.2847 73.8603 46.4847C74.2869 46.6847 74.6103 46.938 74.8303 47.2447C75.0569 47.5447 75.1769 47.8414 75.1903 48.1347C75.1903 48.1947 75.1703 48.2447 75.1303 48.2847C75.0903 48.3247 75.0403 48.3447 74.9803 48.3447H73.6603C73.5803 48.3447 73.5136 48.3314 73.4603 48.3047C73.4136 48.278 73.3703 48.2347 73.3303 48.1747C73.2903 48.0214 73.1803 47.8914 73.0003 47.7847C72.8269 47.678 72.6103 47.6247 72.3503 47.6247C72.0503 47.6247 71.8203 47.678 71.6603 47.7847C71.5003 47.8914 71.4203 48.048 71.4203 48.2547C71.4203 48.3947 71.4636 48.5114 71.5503 48.6047C71.6436 48.698 71.7903 48.7847 71.9903 48.8647C72.1969 48.938 72.4903 49.0147 72.8703 49.0947C73.4903 49.208 73.9836 49.3514 74.3503 49.5247C74.7236 49.6914 74.9969 49.9114 75.1703 50.1847C75.3436 50.4514 75.4303 50.788 75.4303 51.1947C75.4303 51.6414 75.3003 52.0314 75.0403 52.3647C74.7869 52.6914 74.4303 52.9447 73.9703 53.1247C73.5169 53.298 72.9969 53.3847 72.4103 53.3847Z" fill="white"/>
<defs>
<filter id="filter0_di" x="0.964294" y="0.964264" width="102.001" height="102.001" filterUnits="userSpaceOnUse" color-interpolation-filters="sRGB">
<feFlood flood-opacity="0" result="BackgroundImageFix"/>
<feColorMatrix in="SourceAlpha" type="matrix" values="0 0 0 0 0 0 0 0 0 0 0 0 0 0 0 0 0 0 127 0"/>
<feOffset dy="4"/>
<feGaussianBlur stdDeviation="2.5"/>
<feColorMatrix type="matrix" values="0 0 0 0 0 0 0 0 0 0 0 0 0 0 0 0 0 0 0.3 0"/>
<feBlend mode="normal" in2="BackgroundImageFix" result="effect1_dropShadow"/>
<feBlend mode="normal" in="SourceGraphic" in2="effect1_dropShadow" result="shape"/>
<feColorMatrix in="SourceAlpha" type="matrix" values="0 0 0 0 0 0 0 0 0 0 0 0 0 0 0 0 0 0 127 0" result="hardAlpha"/>
<feOffset/>
<feGaussianBlur stdDeviation="2.5"/>
<feComposite in2="hardAlpha" operator="arithmetic" k2="-1" k3="1"/>
<feColorMatrix type="matrix" values="0 0 0 0 0 0 0 0 0 0 0 0 0 0 0 0 0 0 0.3 0"/>
<feBlend mode="normal" in2="shape" result="effect2_innerShadow"/>
</filter>
<linearGradient id="paint0_linear" x1="86.1493" y1="17.1846" x2="17.78" y2="78.7446" gradientUnits="userSpaceOnUse">
<stop stop-color="#369B9B"/>
<stop offset="1" stop-color="#478979"/>
</linearGradient>
</defs>
</svg>
