<svg width="102" height="102" viewBox="0 0 102 102" fill="none" xmlns="http://www.w3.org/2000/svg">
<g filter="url(#filter0_di)">
<path d="M81.7804 81.185C62.9007 98.1844 33.8151 96.66 16.8157 77.7804C-0.183599 58.9007 1.34072 29.8151 20.2204 12.8157C39.1 -4.1836 68.1857 -2.65928 85.185 16.2204C102.184 35.1 100.66 64.1857 81.7804 81.185Z" fill="url(#paint0_linear)"/>
</g>
<path d="M51 50.9318V66.2685C51 66.308 51.0233 66.3438 51.0594 66.3598L68.3594 74.0487C68.4255 74.0781 68.5 74.0297 68.5 73.9573V58.6207C68.5 58.5811 68.4767 58.5453 68.4406 58.5293L51.1406 50.8404C51.0745 50.811 51 50.8594 51 50.9318Z" fill="#FA9C2A" stroke="black" stroke-width="0.2"/>
<path d="M85.8594 50.8404L68.5594 58.5293C68.5233 58.5453 68.5 58.5811 68.5 58.6207V73.9573C68.5 74.0297 68.5745 74.0781 68.6406 74.0487L85.9406 66.3598C85.9767 66.3438 86 66.308 86 66.2685V50.9318C86 50.8594 85.9255 50.811 85.8594 50.8404Z" fill="#FFCA3E" stroke="black" stroke-width="0.2"/>
<path d="M68.4594 43.0181L51.2056 50.6864C51.1264 50.7216 51.1264 50.834 51.2056 50.8692L68.4594 58.5375C68.4852 58.549 68.5148 58.549 68.5406 58.5375L85.7944 50.8692C85.8736 50.834 85.8736 50.7216 85.7944 50.6864L68.5406 43.0181C68.5148 43.0066 68.4852 43.0066 68.4594 43.0181Z" fill="black" stroke="black" stroke-width="0.2"/>
<path d="M64.95 54.1C64.2233 54.1 63.62 53.92 63.14 53.56C62.66 53.2 62.4067 52.6733 62.38 51.98C62.38 51.92 62.4 51.87 62.44 51.83C62.48 51.7833 62.5333 51.76 62.6 51.76H63.14C63.28 51.76 63.3667 51.8367 63.4 51.99C63.44 52.4167 63.6033 52.7333 63.89 52.94C64.1767 53.1467 64.5367 53.25 64.97 53.25C65.47 53.25 65.8533 53.0867 66.12 52.76C66.3933 52.4267 66.53 51.98 66.53 51.42V47.87H62.98C62.9133 47.87 62.8567 47.85 62.81 47.81C62.77 47.7633 62.75 47.7067 62.75 47.64V47.23C62.75 47.1633 62.77 47.11 62.81 47.07C62.8567 47.0233 62.9133 47 62.98 47H67.29C67.3633 47 67.42 47.0233 67.46 47.07C67.5067 47.11 67.53 47.1667 67.53 47.24V51.44C67.53 52.2533 67.3 52.9 66.84 53.38C66.3867 53.86 65.7567 54.1 64.95 54.1ZM71.4579 54.1C70.9046 54.1 70.4246 54.0133 70.0179 53.84C69.6179 53.6667 69.3112 53.44 69.0979 53.16C68.8846 52.8733 68.7712 52.5667 68.7579 52.24C68.7579 52.1867 68.7779 52.14 68.8179 52.1C68.8646 52.0533 68.9179 52.03 68.9779 52.03H69.4879C69.6146 52.03 69.7012 52.0967 69.7479 52.23C69.8079 52.51 69.9779 52.75 70.2579 52.95C70.5446 53.15 70.9446 53.25 71.4579 53.25C72.0112 53.25 72.4279 53.1533 72.7079 52.96C72.9879 52.76 73.1279 52.4833 73.1279 52.13C73.1279 51.9033 73.0579 51.72 72.9179 51.58C72.7846 51.44 72.5846 51.3167 72.3179 51.21C72.0512 51.1033 71.6512 50.97 71.1179 50.81C70.5979 50.6633 70.1846 50.5067 69.8779 50.34C69.5712 50.1733 69.3412 49.9667 69.1879 49.72C69.0346 49.4733 68.9579 49.1633 68.9579 48.79C68.9579 48.43 69.0546 48.1067 69.2479 47.82C69.4479 47.5333 69.7312 47.31 70.0979 47.15C70.4646 46.9833 70.9012 46.9 71.4079 46.9C71.9279 46.9 72.3746 46.9933 72.7479 47.18C73.1212 47.36 73.4046 47.59 73.5979 47.87C73.7912 48.15 73.8946 48.43 73.9079 48.71C73.9079 48.7633 73.8879 48.81 73.8479 48.85C73.8146 48.89 73.7646 48.91 73.6979 48.91H73.1679C73.0279 48.91 72.9412 48.8467 72.9079 48.72C72.8679 48.44 72.7112 48.21 72.4379 48.03C72.1646 47.8433 71.8212 47.75 71.4079 47.75C70.9546 47.75 70.5979 47.8367 70.3379 48.01C70.0779 48.1833 69.9479 48.44 69.9479 48.78C69.9479 49.0067 70.0079 49.1933 70.1279 49.34C70.2546 49.4867 70.4446 49.6167 70.6979 49.73C70.9512 49.8367 71.3212 49.96 71.8079 50.1C72.3746 50.2533 72.8212 50.4133 73.1479 50.58C73.4746 50.74 73.7179 50.9433 73.8779 51.19C74.0379 51.43 74.1179 51.7367 74.1179 52.11C74.1179 52.73 73.8779 53.2167 73.3979 53.57C72.9179 53.9233 72.2712 54.1 71.4579 54.1Z" fill="white"/>
<path d="M16 50.9318V66.2685C16 66.308 16.0233 66.3438 16.0594 66.3598L33.3594 74.0487C33.4255 74.0781 33.5 74.0297 33.5 73.9573V58.6207C33.5 58.5811 33.4767 58.5453 33.4406 58.5293L16.1406 50.8404C16.0745 50.811 16 50.8594 16 50.9318Z" fill="#E54C21" stroke="black" stroke-width="0.2"/>
<path d="M50.8594 50.8404L33.5594 58.5293C33.5233 58.5453 33.5 58.5811 33.5 58.6207V73.9573C33.5 74.0297 33.5745 74.0781 33.6406 74.0487L50.9406 66.3598C50.9767 66.3438 51 66.308 51 66.2685V50.9318C51 50.8594 50.9255 50.811 50.8594 50.8404Z" fill="#F16524" stroke="black" stroke-width="0.2"/>
<path d="M33.4594 43.0181L16.2056 50.6864C16.1264 50.7216 16.1264 50.834 16.2056 50.8692L33.4594 58.5375C33.4852 58.549 33.5148 58.549 33.5406 58.5375L50.7944 50.8692C50.8736 50.834 50.8736 50.7216 50.7944 50.6864L33.5406 43.0181C33.5148 43.0066 33.4852 43.0066 33.4594 43.0181Z" fill="black" stroke="black" stroke-width="0.2"/>
<path d="M33.716 57C33.6762 56.9997 33.6367 56.993 33.5986 56.98L30.5997 55.98C30.4525 55.9311 30.3389 55.7942 30.3016 55.621L29.8732 53.621C29.8106 53.3547 29.9448 53.0796 30.173 53.0066C30.4012 52.9335 30.6369 53.0902 30.6995 53.3565C30.7012 53.364 30.7028 53.3714 30.7042 53.379L31.0727 55.0989L33.7065 55.977L35.888 55.128L36.241 51H29.8603C29.6433 51.002 29.4592 50.8143 29.4319 50.563L29.0035 46.563C28.9737 46.2891 29.1397 46.0388 29.3744 46.004C29.3935 46.0012 29.4127 45.9998 29.4318 46H37.5716C37.8082 46 38 46.2239 38 46.5C38 46.7762 37.8082 47 37.5716 47H29.9168L30.2382 50H36.7148C36.9514 49.9986 37.1442 50.2214 37.1454 50.4975C37.1454 50.515 37.1447 50.5326 37.1432 50.55L36.7148 55.55C36.6982 55.7461 36.5845 55.9125 36.4244 55.975L33.8539 56.975C33.8093 56.9918 33.7628 57.0003 33.716 57Z" fill="#FAFAFA"/>
<path d="M33.5 27.9318V43.2685C33.5 43.308 33.5233 43.3438 33.5594 43.3598L50.8594 51.0487C50.9255 51.0781 51 51.0297 51 50.9573V35.6207C51 35.5811 50.9767 35.5453 50.9406 35.5293L33.6406 27.8404C33.5745 27.811 33.5 27.8594 33.5 27.9318Z" fill="#007DB7" stroke="black" stroke-width="0.2"/>
<path d="M68.3594 27.8404L51.0594 35.5293C51.0233 35.5453 51 35.5811 51 35.6207V50.9573C51 51.0297 51.0745 51.0781 51.1406 51.0487L68.4406 43.3598C68.4767 43.3438 68.5 43.308 68.5 43.2685V27.9318C68.5 27.8594 68.4255 27.811 68.3594 27.8404Z" fill="#009CE6" stroke="black" stroke-width="0.2"/>
<path d="M50.9594 20.0181L33.7056 27.6864C33.6264 27.7216 33.6264 27.834 33.7056 27.8692L50.9594 35.5375C50.9852 35.549 51.0148 35.549 51.0406 35.5375L68.2944 27.8692C68.3736 27.834 68.3736 27.7216 68.2944 27.6864L51.0406 20.0181C51.0148 20.0066 50.9852 20.0066 50.9594 20.0181Z" fill="black" stroke="black" stroke-width="0.2"/>
<path d="M50.713 32.44C50.6733 32.4398 50.6338 32.434 50.5956 32.4228L47.5965 31.5646C47.4493 31.5226 47.3356 31.4052 47.2983 31.2565L46.8698 29.54C46.8072 29.3114 46.9415 29.0753 47.1697 29.0126C47.3979 28.9499 47.6336 29.0844 47.6962 29.313C47.698 29.3194 47.6995 29.3258 47.701 29.3322L48.0694 30.8084L50.7129 31.5654L53.3179 30.8196L54.0891 23.8583H46.4285C46.1918 23.8583 46 23.6661 46 23.4291C46 23.1921 46.1918 23 46.4285 23H54.569C54.8056 22.9986 54.9985 23.1895 55 23.4265C55.0001 23.4432 54.9992 23.4598 54.9974 23.4763L54.1405 31.2006C54.1211 31.3736 53.9992 31.5177 53.832 31.5654L50.8329 32.4236C50.794 32.4348 50.7536 32.4403 50.713 32.44Z" fill="#FAFAFA"/>
<path d="M54.1406 27.2906H46.857C46.6204 27.2906 46.4286 27.0984 46.4286 26.8614C46.4286 26.6244 46.6204 26.4323 46.857 26.4323H54.1406C54.3773 26.4323 54.5691 26.6244 54.5691 26.8614C54.5691 27.0984 54.3773 27.2906 54.1406 27.2906Z" fill="#FAFAFA"/>
<defs>
<filter id="filter0_di" x="0" y="0" width="102.001" height="102.001" filterUnits="userSpaceOnUse" color-interpolation-filters="sRGB">
<feFlood flood-opacity="0" result="BackgroundImageFix"/>
<feColorMatrix in="SourceAlpha" type="matrix" values="0 0 0 0 0 0 0 0 0 0 0 0 0 0 0 0 0 0 127 0"/>
<feOffset dy="4"/>
<feGaussianBlur stdDeviation="2.5"/>
<feColorMatrix type="matrix" values="0 0 0 0 0 0 0 0 0 0 0 0 0 0 0 0 0 0 0.3 0"/>
<feBlend mode="normal" in2="BackgroundImageFix" result="effect1_dropShadow"/>
<feBlend mode="normal" in="SourceGraphic" in2="effect1_dropShadow" result="shape"/>
<feColorMatrix in="SourceAlpha" type="matrix" values="0 0 0 0 0 0 0 0 0 0 0 0 0 0 0 0 0 0 127 0" result="hardAlpha"/>
<feOffset/>
<feGaussianBlur stdDeviation="2.5"/>
<feComposite in2="hardAlpha" operator="arithmetic" k2="-1" k3="1"/>
<feColorMatrix type="matrix" values="0 0 0 0 0 0 0 0 0 0 0 0 0 0 0 0 0 0 0.3 0"/>
<feBlend mode="normal" in2="shape" result="effect2_innerShadow"/>
</filter>
<linearGradient id="paint0_linear" x1="85.185" y1="16.2204" x2="16.8157" y2="77.7804" gradientUnits="userSpaceOnUse">
<stop stop-color="#369B9B"/>
<stop offset="1" stop-color="#478979"/>
</linearGradient>
</defs>
</svg>
