<svg width="97" height="100" viewBox="0 0 97 100" fill="none" xmlns="http://www.w3.org/2000/svg">
<g filter="url(#filter0_d)">
<path d="M29.5078 4.80002C39.0078 -0.700031 56.0078 -1.50005 66.5078 3C56.4018 2.72858 49.4095 3.33562 42.5078 6.49999C31.727 15.0708 34.5078 21.5 39.0078 28.5C44.2171 34.8291 48.5838 38.3251 58.0078 44.5C66.5078 50.5 70.9739 55.7108 72.5078 66C72.5078 74.057 68.2543 80.8087 57.8978 88.3259C55.3876 90.1479 51.6094 92.0278 48.5078 92C43.0078 91.5 38.5078 91 37.0078 90C48.0078 91.5 53.1468 89.4501 62.0078 81C68.0078 70 62.8205 60.4368 48.0078 49.5C36.3935 43.3003 32.0079 42.5 27.0078 35C17.5079 26 19.5078 14.8 29.5078 4.80002Z" fill="#002B4E"/>
</g>
<path d="M46.5079 48.5C85.5079 74 53.5078 99 31.0078 88C52.5078 94 59.5078 62.8281 28.0079 52C-5.99225 40.3124 14.5079 11 29.5079 4.79999C11.0079 23.8 33.0079 42.5 46.5079 48.5Z" fill="url(#paint0_linear)"/>
<g filter="url(#filter1_d)">
<path d="M31.0079 53C59.0079 62.5 52.5079 94 31.0079 88C27.0079 86.8837 3.50781 73 4.00786 46C4.50786 41 4.00786 24 21.5079 10C-9.49211 41.5 30.0079 51.5 31.0079 53Z" fill="url(#paint1_linear)"/>
</g>
<g filter="url(#filter2_i)">
<path d="M35.0079 19C34.5079 8.5 43.5079 1.5 64.0079 2.5C44.5079 4.5 42.5079 15 57.0079 31.5C60.3971 35.0527 62.5661 37.4358 67.0079 42.5C73.7444 49.4547 76.7665 53.7412 79.0079 63C79.4671 80.9109 65.843 90.9065 49.0078 92C47.5418 92.2091 51.0078 92.0399 48.5078 92C50.0629 92.0248 47.5142 92.097 49.0078 92C57.7078 90.759 65.4452 82.5579 71.0079 74C75.0079 61 68.4842 52.0867 55.0079 42.5C40.7094 32.5844 36.5079 27.5 35.0079 19Z" fill="#005B95"/>
</g>
<path d="M64.0078 39C69.0078 39.5 68.0078 10 87.5078 19C63.5079 -14 25.5078 7.50002 64.0078 39Z" fill="#0088BE"/>
<path d="M62.5079 36.5C48.0078 18.5 76.5078 -3.5 89.5078 22.5C71.0078 1.50006 53.0078 19.5 62.5079 36.5Z" fill="#00A8D9"/>
<path d="M78.0079 59C81.0079 75.5 68.0078 90 49.5078 92C75.0078 92 88.5079 74.5 85.5079 57.5L81.5079 44.5C78.5079 32 87.7293 27.9257 93.5078 31.5C89.5078 18.5 84.1529 15.5071 75.0079 12.5C59.1943 10.2682 54.0079 29.8064 67.0079 42.5C72.3783 47.7439 74.7204 51.4279 78.0079 59Z" fill="#00B1E9"/>
<path d="M93.5078 31.5C97.0078 43 97.0078 52 92.5078 62.9999L94.5079 48C94.5079 21.5 76.5079 32 85.0079 50C88.6914 60.453 88.5234 66.0135 85.0079 75.5C82.0078 79.5 76.0078 84.5 71.0078 87C84.8207 74.2564 86.5079 63.5 82.0078 45.9999C77.0079 32 87.5079 28.0001 93.5078 31.5Z" fill="#00C4F0"/>
<g filter="url(#filter3_i)">
<path d="M92.5079 63C90.1768 68.9566 87.5398 73.1853 84.0078 77C88.1312 65.7288 87.5079 58.5 84.5079 49C79.0078 36 86.5079 28.5 91.0079 33.5C97.5079 40.7221 94.6595 50.8094 92.5079 63Z" fill="#00507D"/>
</g>
<g filter="url(#filter4_d)">
<path d="M42.7245 57.8C41.8978 59.8 40.1645 60.8 37.5245 60.8C36.1911 60.8 35.0978 60.3333 34.2445 59.4C33.5511 58.6267 33.2045 57.8 33.2045 56.92C33.2045 54.92 33.6711 51.7333 34.6045 47.36L37.5245 32L45.6445 31.2L41.7645 51.44C41.3111 53.4133 41.0845 54.7467 41.0845 55.44C41.0845 56.96 41.6311 57.7467 42.7245 57.8Z" fill="white"/>
<path d="M63.0532 60.8C59.8266 60.8 58.2132 59.5467 58.2132 57.04C58.2399 56.3467 58.3599 55.4133 58.5732 54.24L59.2932 50.56C60.0132 47.0933 60.3732 44.9733 60.3732 44.2C60.3732 42.6533 59.9199 41.88 59.0132 41.88C57.4932 41.88 56.3332 43.8667 55.5332 47.84L53.1732 60L45.1332 60.8L49.2932 39.56L55.8532 38.8L55.2132 42.72C56.4666 40.1067 59.0132 38.8 62.8532 38.8C64.7199 38.8 66.0399 39.2 66.8132 40C67.6132 40.7733 68.0132 42.04 68.0132 43.8C68.0132 45.4533 67.5865 48.2133 66.7332 52.08C66.3332 53.8133 66.1332 55.0133 66.1332 55.68C66.1332 56.32 66.3065 56.8267 66.6532 57.2C67.0266 57.5733 67.4799 57.7867 68.0132 57.84C67.7466 58.7467 67.1466 59.4667 66.2132 60C65.3065 60.5333 64.2532 60.8 63.0532 60.8Z" fill="white"/>
</g>
<defs>
<filter id="filter0_d" x="16.8486" y="0.0867615" width="59.6591" height="99.9135" filterUnits="userSpaceOnUse" color-interpolation-filters="sRGB">
<feFlood flood-opacity="0" result="BackgroundImageFix"/>
<feColorMatrix in="SourceAlpha" type="matrix" values="0 0 0 0 0 0 0 0 0 0 0 0 0 0 0 0 0 0 127 0"/>
<feOffset dy="4"/>
<feGaussianBlur stdDeviation="2"/>
<feColorMatrix type="matrix" values="0 0 0 0 0 0 0 0 0 0 0 0 0 0 0 0 0 0 0.25 0"/>
<feBlend mode="normal" in2="BackgroundImageFix" result="effect1_dropShadow"/>
<feBlend mode="normal" in="SourceGraphic" in2="effect1_dropShadow" result="shape"/>
</filter>
<filter id="filter1_d" x="0" y="10" width="53.6497" height="86.7538" filterUnits="userSpaceOnUse" color-interpolation-filters="sRGB">
<feFlood flood-opacity="0" result="BackgroundImageFix"/>
<feColorMatrix in="SourceAlpha" type="matrix" values="0 0 0 0 0 0 0 0 0 0 0 0 0 0 0 0 0 0 127 0"/>
<feOffset dy="4"/>
<feGaussianBlur stdDeviation="2"/>
<feColorMatrix type="matrix" values="0 0 0 0 0 0 0 0 0 0 0 0 0 0 0 0 0 0 0.25 0"/>
<feBlend mode="normal" in2="BackgroundImageFix" result="effect1_dropShadow"/>
<feBlend mode="normal" in="SourceGraphic" in2="effect1_dropShadow" result="shape"/>
</filter>
<filter id="filter2_i" x="34.9882" y="2.40512" width="46.031" height="93.6973" filterUnits="userSpaceOnUse" color-interpolation-filters="sRGB">
<feFlood flood-opacity="0" result="BackgroundImageFix"/>
<feBlend mode="normal" in="SourceGraphic" in2="BackgroundImageFix" result="shape"/>
<feColorMatrix in="SourceAlpha" type="matrix" values="0 0 0 0 0 0 0 0 0 0 0 0 0 0 0 0 0 0 127 0" result="hardAlpha"/>
<feOffset dx="2" dy="4"/>
<feGaussianBlur stdDeviation="2"/>
<feComposite in2="hardAlpha" operator="arithmetic" k2="-1" k3="1"/>
<feColorMatrix type="matrix" values="0 0 0 0 0 0 0 0 0 0 0 0 0 0 0 0 0 0 0.14 0"/>
<feBlend mode="normal" in2="shape" result="effect1_innerShadow"/>
</filter>
<filter id="filter3_i" x="82.5704" y="31.9387" width="12.451" height="49.0613" filterUnits="userSpaceOnUse" color-interpolation-filters="sRGB">
<feFlood flood-opacity="0" result="BackgroundImageFix"/>
<feBlend mode="normal" in="SourceGraphic" in2="BackgroundImageFix" result="shape"/>
<feColorMatrix in="SourceAlpha" type="matrix" values="0 0 0 0 0 0 0 0 0 0 0 0 0 0 0 0 0 0 127 0" result="hardAlpha"/>
<feOffset dy="4"/>
<feGaussianBlur stdDeviation="2"/>
<feComposite in2="hardAlpha" operator="arithmetic" k2="-1" k3="1"/>
<feColorMatrix type="matrix" values="0 0 0 0 0 0 0 0 0 0 0 0 0 0 0 0 0 0 0.25 0"/>
<feBlend mode="normal" in2="shape" result="effect1_innerShadow"/>
</filter>
<filter id="filter4_d" x="29.2045" y="31.2" width="42.8088" height="37.6" filterUnits="userSpaceOnUse" color-interpolation-filters="sRGB">
<feFlood flood-opacity="0" result="BackgroundImageFix"/>
<feColorMatrix in="SourceAlpha" type="matrix" values="0 0 0 0 0 0 0 0 0 0 0 0 0 0 0 0 0 0 127 0"/>
<feOffset dy="4"/>
<feGaussianBlur stdDeviation="2"/>
<feColorMatrix type="matrix" values="0 0 0 0 0 0 0 0 0 0 0 0 0 0 0 0 0 0 0.44 0"/>
<feBlend mode="normal" in2="BackgroundImageFix" result="effect1_dropShadow"/>
<feBlend mode="normal" in="SourceGraphic" in2="effect1_dropShadow" result="shape"/>
</filter>
<linearGradient id="paint0_linear" x1="-4.99207" y1="49" x2="65.0079" y2="25.5" gradientUnits="userSpaceOnUse">
<stop offset="0.271094" stop-color="#1E1A9E"/>
<stop offset="0.864227" stop-color="#603DC5"/>
</linearGradient>
<linearGradient id="paint1_linear" x1="26.5117" y1="10.5" x2="26.5117" y2="87.5073" gradientUnits="userSpaceOnUse">
<stop offset="0.391376" stop-color="#3964D9"/>
<stop offset="1" stop-color="#88D5D8"/>
</linearGradient>
</defs>
</svg>
