<svg width="146" height="185" viewBox="0 0 146 185" fill="none" xmlns="http://www.w3.org/2000/svg">
<ellipse cx="70.8077" cy="70.8078" rx="70.8077" ry="70.8077" transform="rotate(-90 70.8077 70.8078)" fill="url(#paint0_linear)"/>
<path d="M90.3276 60.5035H52.1706C51.1175 60.5035 50.2627 61.2875 50.2627 62.2535V90.2516C50.2627 94.4794 53.5442 98.0106 57.8941 98.8261V107.75C57.8941 110.645 60.462 113 63.6177 113C66.7733 113 69.3412 110.645 69.3412 107.75V99.0011H73.1568V107.75C73.1568 110.645 75.7247 113 78.8803 113C82.036 113 84.6039 110.645 84.6039 107.75V98.8261C88.9537 98.0142 92.2353 94.4794 92.2353 90.2516V62.2535C92.2353 61.2841 91.3807 60.5035 90.3276 60.5035Z" fill="#69EA54"/>
<path d="M81.2346 38.3256L84.4512 31.4415C84.8671 30.5525 84.4169 29.5272 83.4476 29.1456C82.4898 28.7606 81.3566 29.1737 80.9445 30.0661L77.7279 36.9536C75.6865 36.3447 73.5116 36.0052 71.2526 36.0052C68.9938 36.0052 66.8188 36.3447 64.7773 36.9536L61.5534 30.0661C61.1413 29.1737 60.008 28.7571 59.0502 29.1456C58.081 29.527 57.6345 30.556 58.0506 31.4415L61.2672 38.3256C54.7157 41.5874 50.2628 47.9534 50.2628 55.2539C50.2628 56.2198 51.1176 57.0038 52.1707 57.0038H90.3275C91.3806 57.0038 92.2354 56.2198 92.2354 55.2539C92.2352 47.9534 87.7823 41.5874 81.2346 38.3256ZM63.6176 50.0042C62.5645 50.0042 61.7097 49.2202 61.7097 48.2543C61.7097 47.2884 62.5645 46.5044 63.6176 46.5044C64.6707 46.5044 65.5255 47.2884 65.5255 48.2543C65.5255 49.2202 64.6707 50.0042 63.6176 50.0042ZM78.8804 50.0042C77.8273 50.0042 76.9725 49.2202 76.9725 48.2543C76.9725 47.2884 77.8273 46.5044 78.8804 46.5044C79.9336 46.5044 80.7884 47.2884 80.7884 48.2543C80.7884 49.2202 79.9336 50.0042 78.8804 50.0042Z" fill="#69EA54"/>
<path d="M101.775 60.5035C98.619 60.5035 96.0511 62.8588 96.0511 65.7532V83.252C96.0511 86.1464 98.619 88.5017 101.775 88.5017C104.93 88.5017 107.498 86.1464 107.498 83.252V65.7532C107.498 62.859 104.93 60.5035 101.775 60.5035Z" fill="#69EA54"/>
<path d="M40.7235 60.5035C37.5679 60.5035 35 62.8588 35 65.7532V83.252C35 86.1464 37.5679 88.5017 40.7235 88.5017C43.8792 88.5017 46.4471 86.1464 46.4471 83.252V65.7532C46.4471 62.859 43.8792 60.5035 40.7235 60.5035Z" fill="#69EA54"/>
<path d="M0.84 180C0.728 180 0.63 179.958 0.546 179.874C0.462 179.79 0.42 179.692 0.42 179.58C0.42 179.468 0.427 179.391 0.441 179.349L5.649 165.762C5.761 165.454 5.985 165.3 6.321 165.3H7.749C8.085 165.3 8.309 165.454 8.421 165.762L13.608 179.349L13.65 179.58C13.65 179.692 13.608 179.79 13.524 179.874C13.44 179.958 13.342 180 13.23 180H12.159C12.005 180 11.886 179.965 11.802 179.895C11.718 179.811 11.662 179.727 11.634 179.643L10.479 176.661H3.591L2.436 179.643C2.408 179.727 2.345 179.811 2.247 179.895C2.163 179.965 2.051 180 1.911 180H0.84ZM9.87 174.855L7.035 167.4L4.2 174.855H9.87ZM16.1054 180C15.9654 180 15.8464 179.958 15.7484 179.874C15.6644 179.776 15.6224 179.657 15.6224 179.517V169.563C15.6224 169.423 15.6644 169.311 15.7484 169.227C15.8464 169.129 15.9654 169.08 16.1054 169.08H17.0924C17.2324 169.08 17.3444 169.129 17.4284 169.227C17.5264 169.311 17.5754 169.423 17.5754 169.563V170.487C17.9814 169.969 18.4574 169.57 19.0034 169.29C19.5634 169.01 20.2564 168.87 21.0824 168.87C22.4264 168.87 23.4694 169.304 24.2114 170.172C24.9674 171.026 25.3454 172.167 25.3454 173.595V179.517C25.3454 179.657 25.2964 179.776 25.1984 179.874C25.1144 179.958 25.0024 180 24.8624 180H23.8124C23.6724 180 23.5534 179.958 23.4554 179.874C23.3714 179.776 23.3294 179.657 23.3294 179.517V173.7C23.3294 172.706 23.0844 171.936 22.5944 171.39C22.1184 170.844 21.4254 170.571 20.5154 170.571C19.6334 170.571 18.9334 170.851 18.4154 171.411C17.8974 171.957 17.6384 172.72 17.6384 173.7V179.517C17.6384 179.657 17.5894 179.776 17.4914 179.874C17.4074 179.958 17.2954 180 17.1554 180H16.1054ZM32.3477 180.21C30.8917 180.21 29.7927 179.734 29.0507 178.782C28.3087 177.83 27.9167 176.626 27.8747 175.17L27.8537 174.54L27.8747 173.91C27.9167 172.468 28.3087 171.271 29.0507 170.319C29.7927 169.353 30.8917 168.87 32.3477 168.87C33.7897 168.87 34.9237 169.381 35.7497 170.403V165.573C35.7497 165.433 35.7917 165.321 35.8757 165.237C35.9737 165.139 36.0927 165.09 36.2327 165.09H37.2407C37.3807 165.09 37.4927 165.139 37.5767 165.237C37.6747 165.321 37.7237 165.433 37.7237 165.573V179.517C37.7237 179.657 37.6747 179.776 37.5767 179.874C37.4927 179.958 37.3807 180 37.2407 180H36.2957C36.1557 180 36.0367 179.958 35.9387 179.874C35.8547 179.776 35.8127 179.657 35.8127 179.517V178.635C35.0007 179.685 33.8457 180.21 32.3477 180.21ZM32.7887 178.509C33.7547 178.509 34.4757 178.194 34.9517 177.564C35.4417 176.92 35.7077 176.157 35.7497 175.275C35.7637 175.121 35.7707 174.855 35.7707 174.477C35.7707 174.085 35.7637 173.812 35.7497 173.658C35.7217 172.832 35.4557 172.111 34.9517 171.495C34.4477 170.879 33.7267 170.571 32.7887 170.571C31.7947 170.571 31.0667 170.879 30.6047 171.495C30.1567 172.111 29.9117 172.923 29.8697 173.931L29.8487 174.54C29.8487 177.186 30.8287 178.509 32.7887 178.509ZM41.33 180C41.19 180 41.071 179.958 40.973 179.874C40.889 179.776 40.847 179.657 40.847 179.517V169.584C40.847 169.444 40.889 169.325 40.973 169.227C41.071 169.129 41.19 169.08 41.33 169.08H42.296C42.436 169.08 42.555 169.129 42.653 169.227C42.751 169.325 42.8 169.444 42.8 169.584V170.508C43.374 169.556 44.354 169.08 45.74 169.08H46.559C46.699 169.08 46.811 169.129 46.895 169.227C46.993 169.311 47.042 169.423 47.042 169.563V170.424C47.042 170.564 46.993 170.676 46.895 170.76C46.811 170.844 46.699 170.886 46.559 170.886H45.299C44.543 170.886 43.948 171.11 43.514 171.558C43.08 171.992 42.863 172.587 42.863 173.343V179.517C42.863 179.657 42.814 179.776 42.716 179.874C42.618 179.958 42.499 180 42.359 180H41.33ZM53.0924 180.21C51.5524 180.21 50.3554 179.776 49.5014 178.908C48.6614 178.04 48.2134 176.885 48.1574 175.443L48.1364 174.54L48.1574 173.637C48.2134 172.209 48.6684 171.061 49.5224 170.193C50.3764 169.311 51.5664 168.87 53.0924 168.87C54.6184 168.87 55.8084 169.311 56.6624 170.193C57.5164 171.061 57.9714 172.209 58.0274 173.637C58.0414 173.791 58.0484 174.092 58.0484 174.54C58.0484 174.988 58.0414 175.289 58.0274 175.443C57.9714 176.885 57.5164 178.04 56.6624 178.908C55.8224 179.776 54.6324 180.21 53.0924 180.21ZM53.0924 178.593C53.9744 178.593 54.6674 178.313 55.1714 177.753C55.6894 177.193 55.9694 176.388 56.0114 175.338C56.0254 175.198 56.0324 174.932 56.0324 174.54C56.0324 174.148 56.0254 173.882 56.0114 173.742C55.9694 172.692 55.6894 171.887 55.1714 171.327C54.6674 170.767 53.9744 170.487 53.0924 170.487C52.2104 170.487 51.5104 170.767 50.9924 171.327C50.4744 171.887 50.2014 172.692 50.1734 173.742L50.1524 174.54L50.1734 175.338C50.2014 176.388 50.4744 177.193 50.9924 177.753C51.5104 178.313 52.2104 178.593 53.0924 178.593ZM60.993 167.043C60.853 167.043 60.734 167.001 60.636 166.917C60.552 166.819 60.51 166.7 60.51 166.56V165.426C60.51 165.286 60.552 165.167 60.636 165.069C60.734 164.971 60.853 164.922 60.993 164.922H62.316C62.456 164.922 62.575 164.971 62.673 165.069C62.771 165.167 62.82 165.286 62.82 165.426V166.56C62.82 166.7 62.771 166.819 62.673 166.917C62.575 167.001 62.456 167.043 62.316 167.043H60.993ZM61.161 180C61.021 180 60.902 179.958 60.804 179.874C60.72 179.776 60.678 179.657 60.678 179.517V169.563C60.678 169.423 60.72 169.311 60.804 169.227C60.902 169.129 61.021 169.08 61.161 169.08H62.169C62.309 169.08 62.421 169.129 62.505 169.227C62.603 169.311 62.652 169.423 62.652 169.563V179.517C62.652 179.657 62.603 179.776 62.505 179.874C62.421 179.958 62.309 180 62.169 180H61.161ZM69.754 180.21C68.298 180.21 67.199 179.734 66.457 178.782C65.715 177.83 65.323 176.626 65.281 175.17L65.26 174.54L65.281 173.91C65.323 172.468 65.715 171.271 66.457 170.319C67.199 169.353 68.298 168.87 69.754 168.87C71.196 168.87 72.33 169.381 73.156 170.403V165.573C73.156 165.433 73.198 165.321 73.282 165.237C73.38 165.139 73.499 165.09 73.639 165.09H74.647C74.787 165.09 74.899 165.139 74.983 165.237C75.081 165.321 75.13 165.433 75.13 165.573V179.517C75.13 179.657 75.081 179.776 74.983 179.874C74.899 179.958 74.787 180 74.647 180H73.702C73.562 180 73.443 179.958 73.345 179.874C73.261 179.776 73.219 179.657 73.219 179.517V178.635C72.407 179.685 71.252 180.21 69.754 180.21ZM70.195 178.509C71.161 178.509 71.882 178.194 72.358 177.564C72.848 176.92 73.114 176.157 73.156 175.275C73.17 175.121 73.177 174.855 73.177 174.477C73.177 174.085 73.17 173.812 73.156 173.658C73.128 172.832 72.862 172.111 72.358 171.495C71.854 170.879 71.133 170.571 70.195 170.571C69.201 170.571 68.473 170.879 68.011 171.495C67.563 172.111 67.318 172.923 67.276 173.931L67.255 174.54C67.255 177.186 68.235 178.509 70.195 178.509ZM88.3987 180.21C87.2367 180.21 86.2287 180.028 85.3747 179.664C84.5347 179.3 83.8907 178.824 83.4427 178.236C82.9947 177.634 82.7567 176.99 82.7287 176.304C82.7287 176.192 82.7707 176.094 82.8547 176.01C82.9527 175.912 83.0647 175.863 83.1907 175.863H84.2617C84.5277 175.863 84.7097 176.003 84.8077 176.283C84.9337 176.871 85.2907 177.375 85.8787 177.795C86.4807 178.215 87.3207 178.425 88.3987 178.425C89.5607 178.425 90.4357 178.222 91.0237 177.816C91.6117 177.396 91.9057 176.815 91.9057 176.073C91.9057 175.597 91.7587 175.212 91.4647 174.918C91.1847 174.624 90.7647 174.365 90.2047 174.141C89.6447 173.917 88.8047 173.637 87.6847 173.301C86.5927 172.993 85.7247 172.664 85.0807 172.314C84.4367 171.964 83.9537 171.53 83.6317 171.012C83.3097 170.494 83.1487 169.843 83.1487 169.059C83.1487 168.303 83.3517 167.624 83.7577 167.022C84.1777 166.42 84.7727 165.951 85.5427 165.615C86.3127 165.265 87.2297 165.09 88.2937 165.09C89.3857 165.09 90.3237 165.286 91.1077 165.678C91.8917 166.056 92.4867 166.539 92.8927 167.127C93.2987 167.715 93.5157 168.303 93.5437 168.891C93.5437 169.003 93.5017 169.101 93.4177 169.185C93.3477 169.269 93.2427 169.311 93.1027 169.311H91.9897C91.6957 169.311 91.5137 169.178 91.4437 168.912C91.3597 168.324 91.0307 167.841 90.4567 167.463C89.8827 167.071 89.1617 166.875 88.2937 166.875C87.3417 166.875 86.5927 167.057 86.0467 167.421C85.5007 167.785 85.2277 168.324 85.2277 169.038C85.2277 169.514 85.3537 169.906 85.6057 170.214C85.8717 170.522 86.2707 170.795 86.8027 171.033C87.3347 171.257 88.1117 171.516 89.1337 171.81C90.3237 172.132 91.2617 172.468 91.9477 172.818C92.6337 173.154 93.1447 173.581 93.4807 174.099C93.8167 174.603 93.9847 175.247 93.9847 176.031C93.9847 177.333 93.4807 178.355 92.4727 179.097C91.4647 179.839 90.1067 180.21 88.3987 180.21ZM100.727 180C98.5152 180 97.4092 178.768 97.4092 176.304V170.76H95.7712C95.6312 170.76 95.5122 170.718 95.4142 170.634C95.3302 170.536 95.2882 170.417 95.2882 170.277V169.563C95.2882 169.423 95.3302 169.311 95.4142 169.227C95.5122 169.129 95.6312 169.08 95.7712 169.08H97.4092V165.573C97.4092 165.433 97.4512 165.321 97.5352 165.237C97.6332 165.139 97.7522 165.09 97.8922 165.09H98.8792C99.0192 165.09 99.1312 165.139 99.2152 165.237C99.3132 165.321 99.3622 165.433 99.3622 165.573V169.08H101.966C102.106 169.08 102.218 169.129 102.302 169.227C102.4 169.311 102.449 169.423 102.449 169.563V170.277C102.449 170.417 102.4 170.536 102.302 170.634C102.218 170.718 102.106 170.76 101.966 170.76H99.3622V176.157C99.3622 176.857 99.4812 177.389 99.7192 177.753C99.9572 178.103 100.349 178.278 100.895 178.278H102.176C102.316 178.278 102.428 178.327 102.512 178.425C102.61 178.509 102.659 178.621 102.659 178.761V179.517C102.659 179.657 102.61 179.776 102.512 179.874C102.428 179.958 102.316 180 102.176 180H100.727ZM108.741 180.21C107.411 180.21 106.382 179.783 105.654 178.929C104.926 178.061 104.562 176.913 104.562 175.485V169.563C104.562 169.423 104.604 169.311 104.688 169.227C104.786 169.129 104.905 169.08 105.045 169.08H106.095C106.235 169.08 106.347 169.129 106.431 169.227C106.529 169.311 106.578 169.423 106.578 169.563V175.38C106.578 177.466 107.488 178.509 109.308 178.509C110.19 178.509 110.89 178.236 111.408 177.69C111.926 177.13 112.185 176.36 112.185 175.38V169.563C112.185 169.423 112.227 169.311 112.311 169.227C112.409 169.129 112.528 169.08 112.668 169.08H113.718C113.858 169.08 113.97 169.129 114.054 169.227C114.138 169.311 114.18 169.423 114.18 169.563V179.517C114.18 179.657 114.138 179.776 114.054 179.874C113.97 179.958 113.858 180 113.718 180H112.731C112.591 180 112.472 179.958 112.374 179.874C112.29 179.776 112.248 179.657 112.248 179.517V178.593C111.856 179.125 111.38 179.531 110.82 179.811C110.26 180.077 109.567 180.21 108.741 180.21ZM121.29 180.21C119.834 180.21 118.735 179.734 117.993 178.782C117.251 177.83 116.859 176.626 116.817 175.17L116.796 174.54L116.817 173.91C116.859 172.468 117.251 171.271 117.993 170.319C118.735 169.353 119.834 168.87 121.29 168.87C122.732 168.87 123.866 169.381 124.692 170.403V165.573C124.692 165.433 124.734 165.321 124.818 165.237C124.916 165.139 125.035 165.09 125.175 165.09H126.183C126.323 165.09 126.435 165.139 126.519 165.237C126.617 165.321 126.666 165.433 126.666 165.573V179.517C126.666 179.657 126.617 179.776 126.519 179.874C126.435 179.958 126.323 180 126.183 180H125.238C125.098 180 124.979 179.958 124.881 179.874C124.797 179.776 124.755 179.657 124.755 179.517V178.635C123.943 179.685 122.788 180.21 121.29 180.21ZM121.731 178.509C122.697 178.509 123.418 178.194 123.894 177.564C124.384 176.92 124.65 176.157 124.692 175.275C124.706 175.121 124.713 174.855 124.713 174.477C124.713 174.085 124.706 173.812 124.692 173.658C124.664 172.832 124.398 172.111 123.894 171.495C123.39 170.879 122.669 170.571 121.731 170.571C120.737 170.571 120.009 170.879 119.547 171.495C119.099 172.111 118.854 172.923 118.812 173.931L118.791 174.54C118.791 177.186 119.771 178.509 121.731 178.509ZM130.104 167.043C129.964 167.043 129.845 167.001 129.747 166.917C129.663 166.819 129.621 166.7 129.621 166.56V165.426C129.621 165.286 129.663 165.167 129.747 165.069C129.845 164.971 129.964 164.922 130.104 164.922H131.427C131.567 164.922 131.686 164.971 131.784 165.069C131.882 165.167 131.931 165.286 131.931 165.426V166.56C131.931 166.7 131.882 166.819 131.784 166.917C131.686 167.001 131.567 167.043 131.427 167.043H130.104ZM130.272 180C130.132 180 130.013 179.958 129.915 179.874C129.831 179.776 129.789 179.657 129.789 179.517V169.563C129.789 169.423 129.831 169.311 129.915 169.227C130.013 169.129 130.132 169.08 130.272 169.08H131.28C131.42 169.08 131.532 169.129 131.616 169.227C131.714 169.311 131.763 169.423 131.763 169.563V179.517C131.763 179.657 131.714 179.776 131.616 179.874C131.532 179.958 131.42 180 131.28 180H130.272ZM139.348 180.21C137.808 180.21 136.611 179.776 135.757 178.908C134.917 178.04 134.469 176.885 134.413 175.443L134.392 174.54L134.413 173.637C134.469 172.209 134.924 171.061 135.778 170.193C136.632 169.311 137.822 168.87 139.348 168.87C140.874 168.87 142.064 169.311 142.918 170.193C143.772 171.061 144.227 172.209 144.283 173.637C144.297 173.791 144.304 174.092 144.304 174.54C144.304 174.988 144.297 175.289 144.283 175.443C144.227 176.885 143.772 178.04 142.918 178.908C142.078 179.776 140.888 180.21 139.348 180.21ZM139.348 178.593C140.23 178.593 140.923 178.313 141.427 177.753C141.945 177.193 142.225 176.388 142.267 175.338C142.281 175.198 142.288 174.932 142.288 174.54C142.288 174.148 142.281 173.882 142.267 173.742C142.225 172.692 141.945 171.887 141.427 171.327C140.923 170.767 140.23 170.487 139.348 170.487C138.466 170.487 137.766 170.767 137.248 171.327C136.73 171.887 136.457 172.692 136.429 173.742L136.408 174.54L136.429 175.338C136.457 176.388 136.73 177.193 137.248 177.753C137.766 178.313 138.466 178.593 139.348 178.593Z" fill="white"/>
<defs>
<linearGradient id="paint0_linear" x1="70.8077" y1="3.8147e-05" x2="70.8077" y2="141.615" gradientUnits="userSpaceOnUse">
<stop stop-color="#369B9B"/>
<stop offset="1" stop-color="#478979"/>
</linearGradient>
</defs>
</svg>
