<svg width="143" height="185" viewBox="0 0 143 185" fill="none" xmlns="http://www.w3.org/2000/svg">
<ellipse cx="71" cy="70.8078" rx="70.8077" ry="70.8077" transform="rotate(-90 71 70.8078)" fill="url(#paint0_linear)"/>
<path d="M96.241 30.9206H97.5363V60.6626H96.241V30.9206Z" fill="black"/>
<path d="M44.4263 30.9206H45.7216V60.6626H44.4263V30.9206Z" fill="black"/>
<path d="M70.3337 45.7915H71.6291V75.1171H70.3337V45.7915Z" fill="black"/>
<path d="M70.9813 74.3438L96.8887 59.4728V60.6625L70.9813 75.5335V74.3438Z" fill="black"/>
<path d="M70.9813 45.7916L96.8887 30.9206V32.1103L70.9813 46.9813V45.7916Z" fill="black"/>
<path d="M44.4263 30.9204L70.9814 16.0494V17.2391L44.4263 32.1101V30.9204Z" fill="black"/>
<path d="M70.9813 74.3438L45.0739 59.4728V60.6625L70.9813 75.5335V74.3438Z" fill="black"/>
<path d="M70.9813 45.7916L45.0739 30.9206V32.1103L70.9813 46.9813V45.7916Z" fill="black"/>
<path d="M96.8885 30.9204L70.9811 16.0494V17.2391L96.8885 32.1101V30.9204Z" fill="black"/>
<path d="M71.6289 46.6243L96.2409 32.4671V59.7108L71.6289 73.8084V46.6243Z" fill="#009CE6"/>
<path d="M45.7214 32.4671L70.3334 46.5457V73.9869L45.4623 59.789L45.7214 32.4671Z" fill="#007DB7"/>
<path d="M71.0459 17.1202L95.8522 31.4558L71.0459 45.7914L45.7214 31.4558L71.0459 17.1202Z" fill="black"/>
<path d="M72.0154 40.2002C71.9434 40.1997 71.8717 40.1884 71.8025 40.1666L66.3635 38.4902C66.0965 38.4082 65.8904 38.1787 65.8227 37.8883L65.0457 34.5353C64.9322 34.0888 65.1757 33.6276 65.5895 33.5052C66.0034 33.3827 66.4309 33.6454 66.5444 34.0919C66.5476 34.1044 66.5504 34.1169 66.553 34.1295L67.2212 37.0131L72.0153 38.4917L76.7394 37.0348L78.138 23.4368H64.2453C63.8162 23.4368 63.4683 23.0614 63.4683 22.5985C63.4683 22.1355 63.8162 21.7602 64.2453 21.7602H79.0082C79.4374 21.7574 79.7873 22.1304 79.7899 22.5934C79.7901 22.6259 79.7885 22.6584 79.7852 22.6907L78.2312 37.7791C78.196 38.117 77.975 38.3985 77.6718 38.4917L72.2328 40.1681C72.1622 40.19 72.0889 40.2007 72.0154 40.2002Z" fill="#FAFAFA"/>
<path d="M78.2314 30.1413H65.0225C64.5934 30.1413 64.2455 29.766 64.2455 29.3031C64.2455 28.8401 64.5934 28.4648 65.0225 28.4648H78.2314C78.6605 28.4648 79.0084 28.8401 79.0084 29.3031C79.0084 29.766 78.6605 30.1413 78.2314 30.1413Z" fill="#FAFAFA"/>
<path d="M69.6859 74.3437H70.9813V104.086H69.6859V74.3437Z" fill="black"/>
<path d="M18.1301 74.3437H19.4255V104.086H18.1301V74.3437Z" fill="black"/>
<path d="M43.7784 89.2147H45.0738V118.54H43.7784V89.2147Z" fill="black"/>
<path d="M44.4263 117.767L70.3337 102.896V104.086L44.4263 118.957V117.767Z" fill="black"/>
<path d="M44.4263 89.2147L70.3337 74.3437V75.5334L44.4263 90.4044V89.2147Z" fill="black"/>
<path d="M18.5186 74.3437L44.426 59.4727V60.6624L18.5186 75.5334V74.3437Z" fill="black"/>
<path d="M44.4263 117.767L18.5189 102.896V104.086L44.4263 118.957V117.767Z" fill="black"/>
<path d="M44.4263 89.2147L18.5189 74.3437V75.5334L44.4263 90.4044V89.2147Z" fill="black"/>
<path d="M70.3336 74.3437L44.4262 59.4727V60.6624L70.3336 75.5334V74.3437Z" fill="black"/>
<path d="M45.074 89.9961L69.686 75.5333V103.365L45.074 117.767V89.9961Z" fill="#F16524"/>
<path d="M19.1665 75.5333L43.7785 89.8539V117.767L18.9074 103.325L19.1665 75.5333Z" fill="#E54C21"/>
<path d="M44.491 60.5432L69.4269 74.9383L44.4262 89.2145L19.1665 74.8788L44.491 60.5432Z" fill="black"/>
<path d="M44.17 84.337C44.0979 84.3365 44.0263 84.3252 43.9571 84.3034L38.5187 82.6271C38.2517 82.5452 38.0456 82.3157 37.9779 82.0253L37.201 78.6725C37.0875 78.2261 37.331 77.765 37.7448 77.6425C38.1586 77.5201 38.586 77.7828 38.6995 78.2292C38.7027 78.2417 38.7056 78.2542 38.7082 78.2668L39.3763 81.1501L44.1529 82.622L48.109 81.1988L48.7491 74.2788H37.1777C36.7841 74.2822 36.4503 73.9675 36.4007 73.5462L35.6238 66.8408C35.5697 66.3816 35.8709 65.9621 36.2966 65.9037C36.3311 65.899 36.3659 65.8967 36.4006 65.897H51.1622C51.5913 65.897 51.9392 66.2723 51.9392 66.7352C51.9392 67.1981 51.5913 67.5734 51.1622 67.5734H37.2802L37.8629 72.6025H49.6085C50.0375 72.6001 50.3871 72.9735 50.3893 73.4364C50.3894 73.4658 50.3881 73.4952 50.3854 73.5244L49.6085 81.9062C49.5783 82.2349 49.3721 82.5139 49.0817 82.6187L44.4202 84.295C44.3393 84.3232 44.2549 84.3375 44.17 84.337Z" fill="#FAFAFA"/>
<path d="M121.63 73.8437H121.13V74.3437V104.086V104.586H121.63H122.926H123.426V104.086V74.3437V73.8437H122.926H121.63Z" fill="black" stroke="black"/>
<path d="M70.3336 73.8437H69.8336V74.3437V104.086V104.586H70.3336H71.629H72.129V104.086V74.3437V73.8437H71.629H70.3336Z" fill="black" stroke="black"/>
<path d="M96.241 88.7147H95.741V89.2147V118.54V119.04H96.241H97.5363H98.0363V118.54V89.2147V88.7147H97.5363H96.241Z" fill="black" stroke="black"/>
<path d="M96.6396 117.333L96.3885 117.477V117.767V118.957V119.82L97.1375 119.39L123.045 104.519L123.296 104.375V104.086V102.896V102.032L122.547 102.462L96.6396 117.333Z" fill="black" stroke="black"/>
<path d="M96.6396 88.781L96.3885 88.9252V89.2147V90.4044V91.2679L97.1375 90.838L123.045 75.967L123.296 75.8229V75.5334V74.3437V73.4802L122.547 73.91L96.6396 88.781Z" fill="black" stroke="black"/>
<path d="M70.7324 73.9101L70.4813 74.0542V74.3437V75.5334V76.3969L71.2302 75.967L97.1376 61.096L97.3887 60.9519V60.6624V59.4727V58.6092L96.6398 59.0391L70.7324 73.9101Z" fill="black" stroke="black"/>
<path d="M97.1375 117.333L97.3885 117.477V117.767V118.957V119.82L96.6396 119.39L70.7322 104.519L70.4811 104.375V104.086V102.896V102.032L71.2301 102.462L97.1375 117.333Z" fill="black" stroke="black"/>
<path d="M97.1375 88.781L97.3885 88.9252V89.2147V90.4044V91.2679L96.6396 90.838L70.7322 75.967L70.4811 75.8229V75.5334V74.3437V73.4802L71.2301 73.91L97.1375 88.781Z" fill="black" stroke="black"/>
<path d="M123.045 73.9101L123.296 74.0542V74.3437V75.5334V76.3969L122.547 75.967L96.6398 61.096L96.3887 60.9519V60.6624V59.4727V58.6092L97.1377 59.0391L123.045 73.9101Z" fill="black" stroke="black"/>
<path d="M97.5363 89.9961L122.148 75.5333V103.365L97.5363 117.767V89.9961Z" fill="#FFCA3E"/>
<path d="M71.7585 75.6525L96.3705 89.9731V117.886L71.4994 103.444L71.7585 75.6525Z" fill="#FA9C2A"/>
<path d="M96.7591 60.6029L121.565 74.9385L96.7591 89.2742L71.4346 74.9385L96.7591 60.6029Z" fill="black"/>
<path d="M92.0647 81.3128C90.8293 81.3128 89.8037 81.0068 88.9877 80.3948C88.1717 79.7828 87.741 78.8875 87.6957 77.7088C87.6957 77.6068 87.7297 77.5218 87.7977 77.4538C87.8657 77.3745 87.9563 77.3348 88.0697 77.3348H88.9877C89.2257 77.3348 89.373 77.4652 89.4297 77.7258C89.4977 78.4512 89.7753 78.9895 90.2627 79.3408C90.75 79.6922 91.362 79.8678 92.0987 79.8678C92.9487 79.8678 93.6003 79.5902 94.0537 79.0348C94.5183 78.4682 94.7507 77.7088 94.7507 76.7568V70.7218H88.7157C88.6023 70.7218 88.506 70.6878 88.4267 70.6198C88.3587 70.5405 88.3247 70.4442 88.3247 70.3308V69.6338C88.3247 69.5205 88.3587 69.4298 88.4267 69.3618C88.506 69.2825 88.6023 69.2428 88.7157 69.2428H96.0427C96.1673 69.2428 96.2637 69.2825 96.3317 69.3618C96.411 69.4298 96.4507 69.5262 96.4507 69.6508V76.7908C96.4507 78.1735 96.0597 79.2728 95.2777 80.0888C94.507 80.9048 93.436 81.3128 92.0647 81.3128ZM103.128 81.3128C102.187 81.3128 101.371 81.1655 100.68 80.8708C100 80.5762 99.4788 80.1908 99.1161 79.7148C98.7534 79.2275 98.5608 78.7062 98.5381 78.1508C98.5381 78.0602 98.5721 77.9808 98.6401 77.9128C98.7194 77.8335 98.8101 77.7938 98.9121 77.7938H99.7791C99.9944 77.7938 100.142 77.9072 100.221 78.1338C100.323 78.6098 100.612 79.0178 101.088 79.3578C101.575 79.6978 102.255 79.8678 103.128 79.8678C104.069 79.8678 104.777 79.7035 105.253 79.3748C105.729 79.0348 105.967 78.5645 105.967 77.9638C105.967 77.5785 105.848 77.2668 105.61 77.0288C105.383 76.7908 105.043 76.5812 104.59 76.3998C104.137 76.2185 103.457 75.9918 102.55 75.7198C101.666 75.4705 100.963 75.2042 100.442 74.9208C99.9208 74.6375 99.5298 74.2862 99.2691 73.8668C99.0084 73.4475 98.8781 72.9205 98.8781 72.2858C98.8781 71.6738 99.0424 71.1242 99.3711 70.6368C99.7111 70.1495 100.193 69.7698 100.816 69.4978C101.439 69.2145 102.182 69.0728 103.043 69.0728C103.927 69.0728 104.686 69.2315 105.321 69.5488C105.956 69.8548 106.437 70.2458 106.766 70.7218C107.095 71.1978 107.27 71.6738 107.293 72.1498C107.293 72.2405 107.259 72.3198 107.191 72.3878C107.134 72.4558 107.049 72.4898 106.936 72.4898H106.035C105.797 72.4898 105.65 72.3822 105.593 72.1668C105.525 71.6908 105.259 71.2998 104.794 70.9938C104.329 70.6765 103.746 70.5178 103.043 70.5178C102.272 70.5178 101.666 70.6652 101.224 70.9598C100.782 71.2545 100.561 71.6908 100.561 72.2688C100.561 72.6542 100.663 72.9715 100.867 73.2208C101.082 73.4702 101.405 73.6912 101.836 73.8838C102.267 74.0652 102.896 74.2748 103.723 74.5128C104.686 74.7735 105.446 75.0455 106.001 75.3288C106.556 75.6008 106.97 75.9465 107.242 76.3658C107.514 76.7738 107.65 77.2952 107.65 77.9298C107.65 78.9838 107.242 79.8112 106.426 80.4118C105.61 81.0125 104.511 81.3128 103.128 81.3128Z" fill="white"/>
<path d="M2.31 179.808C2.17 179.808 2.051 179.766 1.953 179.682C1.869 179.584 1.827 179.465 1.827 179.325V165.612C1.827 165.458 1.869 165.339 1.953 165.255C2.051 165.157 2.17 165.108 2.31 165.108H3.381C3.535 165.108 3.654 165.157 3.738 165.255C3.836 165.339 3.885 165.458 3.885 165.612V171.408H11.109V165.612C11.109 165.458 11.151 165.339 11.235 165.255C11.333 165.157 11.452 165.108 11.592 165.108H12.663C12.817 165.108 12.936 165.157 13.02 165.255C13.118 165.339 13.167 165.458 13.167 165.612V179.325C13.167 179.465 13.118 179.584 13.02 179.682C12.922 179.766 12.803 179.808 12.663 179.808H11.592C11.452 179.808 11.333 179.766 11.235 179.682C11.151 179.584 11.109 179.465 11.109 179.325V173.298H3.885V179.325C3.885 179.465 3.836 179.584 3.738 179.682C3.64 179.766 3.521 179.808 3.381 179.808H2.31ZM20.5142 179.808C20.3742 179.808 20.2552 179.766 20.1572 179.682C20.0732 179.584 20.0312 179.465 20.0312 179.325V166.977H15.9992C15.8592 166.977 15.7402 166.935 15.6422 166.851C15.5582 166.753 15.5162 166.634 15.5162 166.494V165.612C15.5162 165.472 15.5582 165.353 15.6422 165.255C15.7402 165.157 15.8592 165.108 15.9992 165.108H26.1212C26.2752 165.108 26.3942 165.157 26.4782 165.255C26.5762 165.339 26.6252 165.458 26.6252 165.612V166.494C26.6252 166.634 26.5762 166.753 26.4782 166.851C26.3802 166.935 26.2612 166.977 26.1212 166.977H22.1102V179.325C22.1102 179.465 22.0612 179.584 21.9632 179.682C21.8652 179.766 21.7462 179.808 21.6062 179.808H20.5142ZM29.4623 179.808C29.3223 179.808 29.2033 179.766 29.1053 179.682C29.0213 179.584 28.9793 179.465 28.9793 179.325V165.612C28.9793 165.458 29.0213 165.339 29.1053 165.255C29.2033 165.157 29.3223 165.108 29.4623 165.108H30.5123C30.7363 165.108 30.9183 165.22 31.0583 165.444L35.4893 173.928L39.9623 165.444C39.9903 165.36 40.0463 165.283 40.1303 165.213C40.2283 165.143 40.3473 165.108 40.4873 165.108H41.5163C41.6703 165.108 41.7893 165.157 41.8733 165.255C41.9713 165.339 42.0203 165.458 42.0203 165.612V179.325C42.0203 179.465 41.9713 179.584 41.8733 179.682C41.7753 179.766 41.6563 179.808 41.5163 179.808H40.4873C40.3473 179.808 40.2283 179.766 40.1303 179.682C40.0463 179.584 40.0043 179.465 40.0043 179.325V168.993L36.4973 175.839C36.3573 176.133 36.1333 176.28 35.8253 176.28H35.1743C34.8663 176.28 34.6423 176.133 34.5023 175.839L30.9743 168.993V179.325C30.9743 179.465 30.9253 179.584 30.8273 179.682C30.7433 179.766 30.6313 179.808 30.4913 179.808H29.4623ZM46.1352 179.808C45.9952 179.808 45.8762 179.766 45.7782 179.682C45.6942 179.584 45.6522 179.465 45.6522 179.325V165.591C45.6522 165.451 45.6942 165.339 45.7782 165.255C45.8762 165.157 45.9952 165.108 46.1352 165.108H47.2482C47.3882 165.108 47.5002 165.157 47.5842 165.255C47.6822 165.339 47.7312 165.451 47.7312 165.591V177.981H54.7032C54.8572 177.981 54.9762 178.03 55.0602 178.128C55.1582 178.212 55.2072 178.331 55.2072 178.485V179.325C55.2072 179.465 55.1582 179.584 55.0602 179.682C54.9622 179.766 54.8432 179.808 54.7032 179.808H46.1352ZM57.0652 181.383C56.9532 181.383 56.8622 181.341 56.7922 181.257C56.7362 181.173 56.7152 181.068 56.7292 180.942L57.2122 177.939C57.2682 177.533 57.4642 177.33 57.8002 177.33H59.2072C59.3052 177.33 59.3822 177.365 59.4382 177.435C59.5082 177.505 59.5432 177.589 59.5432 177.687C59.5432 177.757 59.5222 177.869 59.4802 178.023L58.3672 180.9C58.2972 181.068 58.2202 181.187 58.1362 181.257C58.0522 181.341 57.9262 181.383 57.7582 181.383H57.0652ZM73.1542 180.018C71.2782 180.018 69.8502 179.514 68.8702 178.506C67.9042 177.498 67.3862 176.105 67.3162 174.327C67.3022 173.949 67.2952 173.333 67.2952 172.479C67.2952 171.611 67.3022 170.981 67.3162 170.589C67.3862 168.825 67.9112 167.439 68.8912 166.431C69.8712 165.409 71.2922 164.898 73.1542 164.898C74.4002 164.898 75.4572 165.122 76.3252 165.57C77.1932 166.004 77.8512 166.578 78.2992 167.292C78.7472 168.006 78.9922 168.769 79.0342 169.581V169.623C79.0342 169.735 78.9852 169.833 78.8872 169.917C78.8032 169.987 78.7052 170.022 78.5932 170.022H77.4382C77.1582 170.022 76.9832 169.861 76.9132 169.539C76.6752 168.489 76.2482 167.754 75.6322 167.334C75.0162 166.9 74.1902 166.683 73.1542 166.683C70.7462 166.683 69.5002 168.02 69.4162 170.694C69.4022 171.072 69.3952 171.653 69.3952 172.437C69.3952 173.221 69.4022 173.816 69.4162 174.222C69.5002 176.896 70.7462 178.233 73.1542 178.233C74.1902 178.233 75.0162 178.023 75.6322 177.603C76.2622 177.169 76.6892 176.427 76.9132 175.377C76.9552 175.195 77.0182 175.069 77.1022 174.999C77.1862 174.929 77.2982 174.894 77.4382 174.894H78.5932C78.7192 174.894 78.8242 174.936 78.9082 175.02C79.0062 175.09 79.0482 175.188 79.0342 175.314C78.9922 176.14 78.7472 176.91 78.2992 177.624C77.8512 178.338 77.1932 178.919 76.3252 179.367C75.4572 179.801 74.4002 180.018 73.1542 180.018ZM86.5735 180.018C85.4115 180.018 84.4035 179.836 83.5495 179.472C82.7095 179.108 82.0655 178.632 81.6175 178.044C81.1695 177.442 80.9315 176.798 80.9035 176.112C80.9035 176 80.9455 175.902 81.0295 175.818C81.1275 175.72 81.2395 175.671 81.3655 175.671H82.4365C82.7025 175.671 82.8845 175.811 82.9825 176.091C83.1085 176.679 83.4655 177.183 84.0535 177.603C84.6555 178.023 85.4955 178.233 86.5735 178.233C87.7355 178.233 88.6105 178.03 89.1985 177.624C89.7865 177.204 90.0805 176.623 90.0805 175.881C90.0805 175.405 89.9335 175.02 89.6395 174.726C89.3595 174.432 88.9395 174.173 88.3795 173.949C87.8195 173.725 86.9795 173.445 85.8595 173.109C84.7675 172.801 83.8995 172.472 83.2555 172.122C82.6115 171.772 82.1285 171.338 81.8065 170.82C81.4845 170.302 81.3235 169.651 81.3235 168.867C81.3235 168.111 81.5265 167.432 81.9325 166.83C82.3525 166.228 82.9475 165.759 83.7175 165.423C84.4875 165.073 85.4045 164.898 86.4685 164.898C87.5605 164.898 88.4985 165.094 89.2825 165.486C90.0665 165.864 90.6615 166.347 91.0675 166.935C91.4735 167.523 91.6905 168.111 91.7185 168.699C91.7185 168.811 91.6765 168.909 91.5925 168.993C91.5225 169.077 91.4175 169.119 91.2775 169.119H90.1645C89.8705 169.119 89.6885 168.986 89.6185 168.72C89.5345 168.132 89.2055 167.649 88.6315 167.271C88.0575 166.879 87.3365 166.683 86.4685 166.683C85.5165 166.683 84.7675 166.865 84.2215 167.229C83.6755 167.593 83.4025 168.132 83.4025 168.846C83.4025 169.322 83.5285 169.714 83.7805 170.022C84.0465 170.33 84.4455 170.603 84.9775 170.841C85.5095 171.065 86.2865 171.324 87.3085 171.618C88.4985 171.94 89.4365 172.276 90.1225 172.626C90.8085 172.962 91.3195 173.389 91.6555 173.907C91.9915 174.411 92.1595 175.055 92.1595 175.839C92.1595 177.141 91.6555 178.163 90.6475 178.905C89.6395 179.647 88.2815 180.018 86.5735 180.018ZM99.637 180.018C98.475 180.018 97.467 179.836 96.613 179.472C95.773 179.108 95.129 178.632 94.681 178.044C94.233 177.442 93.995 176.798 93.967 176.112C93.967 176 94.009 175.902 94.093 175.818C94.191 175.72 94.303 175.671 94.429 175.671H95.5C95.766 175.671 95.948 175.811 96.046 176.091C96.172 176.679 96.529 177.183 97.117 177.603C97.719 178.023 98.559 178.233 99.637 178.233C100.799 178.233 101.674 178.03 102.262 177.624C102.85 177.204 103.144 176.623 103.144 175.881C103.144 175.405 102.997 175.02 102.703 174.726C102.423 174.432 102.003 174.173 101.443 173.949C100.883 173.725 100.043 173.445 98.923 173.109C97.831 172.801 96.963 172.472 96.319 172.122C95.675 171.772 95.192 171.338 94.87 170.82C94.548 170.302 94.387 169.651 94.387 168.867C94.387 168.111 94.59 167.432 94.996 166.83C95.416 166.228 96.011 165.759 96.781 165.423C97.551 165.073 98.468 164.898 99.532 164.898C100.624 164.898 101.562 165.094 102.346 165.486C103.13 165.864 103.725 166.347 104.131 166.935C104.537 167.523 104.754 168.111 104.782 168.699C104.782 168.811 104.74 168.909 104.656 168.993C104.586 169.077 104.481 169.119 104.341 169.119H103.228C102.934 169.119 102.752 168.986 102.682 168.72C102.598 168.132 102.269 167.649 101.695 167.271C101.121 166.879 100.4 166.683 99.532 166.683C98.58 166.683 97.831 166.865 97.285 167.229C96.739 167.593 96.466 168.132 96.466 168.846C96.466 169.322 96.592 169.714 96.844 170.022C97.11 170.33 97.509 170.603 98.041 170.841C98.573 171.065 99.35 171.324 100.372 171.618C101.562 171.94 102.5 172.276 103.186 172.626C103.872 172.962 104.383 173.389 104.719 173.907C105.055 174.411 105.223 175.055 105.223 175.839C105.223 177.141 104.719 178.163 103.711 178.905C102.703 179.647 101.345 180.018 99.637 180.018ZM107.555 181.383C107.443 181.383 107.352 181.341 107.282 181.257C107.226 181.173 107.205 181.068 107.219 180.942L107.702 177.939C107.758 177.533 107.954 177.33 108.29 177.33H109.697C109.795 177.33 109.872 177.365 109.928 177.435C109.998 177.505 110.033 177.589 110.033 177.687C110.033 177.757 110.012 177.869 109.97 178.023L108.857 180.9C108.787 181.068 108.71 181.187 108.626 181.257C108.542 181.341 108.416 181.383 108.248 181.383H107.555ZM122.72 180.018C121.194 180.018 119.927 179.64 118.919 178.884C117.911 178.128 117.379 177.022 117.323 175.566C117.323 175.44 117.365 175.335 117.449 175.251C117.533 175.153 117.645 175.104 117.785 175.104H118.919C119.213 175.104 119.395 175.265 119.465 175.587C119.549 176.483 119.892 177.148 120.494 177.582C121.096 178.016 121.852 178.233 122.762 178.233C123.812 178.233 124.617 177.89 125.177 177.204C125.751 176.504 126.038 175.566 126.038 174.39V166.935H118.583C118.443 166.935 118.324 166.893 118.226 166.809C118.142 166.711 118.1 166.592 118.1 166.452V165.591C118.1 165.451 118.142 165.339 118.226 165.255C118.324 165.157 118.443 165.108 118.583 165.108H127.634C127.788 165.108 127.907 165.157 127.991 165.255C128.089 165.339 128.138 165.458 128.138 165.612V174.432C128.138 176.14 127.655 177.498 126.689 178.506C125.737 179.514 124.414 180.018 122.72 180.018ZM136.387 180.018C135.225 180.018 134.217 179.836 133.363 179.472C132.523 179.108 131.879 178.632 131.431 178.044C130.983 177.442 130.745 176.798 130.717 176.112C130.717 176 130.759 175.902 130.843 175.818C130.941 175.72 131.053 175.671 131.179 175.671H132.25C132.516 175.671 132.698 175.811 132.796 176.091C132.922 176.679 133.279 177.183 133.867 177.603C134.469 178.023 135.309 178.233 136.387 178.233C137.549 178.233 138.424 178.03 139.012 177.624C139.6 177.204 139.894 176.623 139.894 175.881C139.894 175.405 139.747 175.02 139.453 174.726C139.173 174.432 138.753 174.173 138.193 173.949C137.633 173.725 136.793 173.445 135.673 173.109C134.581 172.801 133.713 172.472 133.069 172.122C132.425 171.772 131.942 171.338 131.62 170.82C131.298 170.302 131.137 169.651 131.137 168.867C131.137 168.111 131.34 167.432 131.746 166.83C132.166 166.228 132.761 165.759 133.531 165.423C134.301 165.073 135.218 164.898 136.282 164.898C137.374 164.898 138.312 165.094 139.096 165.486C139.88 165.864 140.475 166.347 140.881 166.935C141.287 167.523 141.504 168.111 141.532 168.699C141.532 168.811 141.49 168.909 141.406 168.993C141.336 169.077 141.231 169.119 141.091 169.119H139.978C139.684 169.119 139.502 168.986 139.432 168.72C139.348 168.132 139.019 167.649 138.445 167.271C137.871 166.879 137.15 166.683 136.282 166.683C135.33 166.683 134.581 166.865 134.035 167.229C133.489 167.593 133.216 168.132 133.216 168.846C133.216 169.322 133.342 169.714 133.594 170.022C133.86 170.33 134.259 170.603 134.791 170.841C135.323 171.065 136.1 171.324 137.122 171.618C138.312 171.94 139.25 172.276 139.936 172.626C140.622 172.962 141.133 173.389 141.469 173.907C141.805 174.411 141.973 175.055 141.973 175.839C141.973 177.141 141.469 178.163 140.461 178.905C139.453 179.647 138.095 180.018 136.387 180.018Z" fill="white"/>
<defs>
<linearGradient id="paint0_linear" x1="71" y1="3.8147e-05" x2="71" y2="141.615" gradientUnits="userSpaceOnUse">
<stop stop-color="#369B9B"/>
<stop offset="1" stop-color="#478979"/>
</linearGradient>
</defs>
</svg>
