<svg width="142" height="185" viewBox="0 0 142 185" fill="none" xmlns="http://www.w3.org/2000/svg">
<ellipse cx="70.8077" cy="70.8078" rx="70.8077" ry="70.8077" transform="rotate(-90 70.8077 70.8078)" fill="url(#paint0_linear)"/>
<path d="M52.31 180C52.17 180 52.051 179.958 51.953 179.874C51.869 179.776 51.827 179.657 51.827 179.517V165.804C51.827 165.65 51.869 165.531 51.953 165.447C52.051 165.349 52.17 165.3 52.31 165.3H57.644C59.226 165.3 60.472 165.685 61.382 166.455C62.292 167.225 62.747 168.338 62.747 169.794C62.747 171.25 62.292 172.363 61.382 173.133C60.486 173.889 59.24 174.267 57.644 174.267H53.927V179.517C53.927 179.657 53.878 179.776 53.78 179.874C53.682 179.958 53.563 180 53.423 180H52.31ZM57.539 172.503C58.561 172.503 59.331 172.272 59.849 171.81C60.381 171.348 60.647 170.676 60.647 169.794C60.647 168.912 60.388 168.24 59.87 167.778C59.352 167.302 58.575 167.064 57.539 167.064H53.906V172.503H57.539ZM65.7836 180C65.6436 180 65.5246 179.958 65.4266 179.874C65.3426 179.776 65.3006 179.657 65.3006 179.517V165.804C65.3006 165.65 65.3426 165.531 65.4266 165.447C65.5246 165.349 65.6436 165.3 65.7836 165.3H66.8546C67.0086 165.3 67.1276 165.349 67.2116 165.447C67.3096 165.531 67.3586 165.65 67.3586 165.804V171.6H74.5826V165.804C74.5826 165.65 74.6246 165.531 74.7086 165.447C74.8066 165.349 74.9256 165.3 75.0656 165.3H76.1366C76.2906 165.3 76.4096 165.349 76.4936 165.447C76.5916 165.531 76.6406 165.65 76.6406 165.804V179.517C76.6406 179.657 76.5916 179.776 76.4936 179.874C76.3956 179.958 76.2766 180 76.1366 180H75.0656C74.9256 180 74.8066 179.958 74.7086 179.874C74.6246 179.776 74.5826 179.657 74.5826 179.517V173.49H67.3586V179.517C67.3586 179.657 67.3096 179.776 67.2116 179.874C67.1136 179.958 66.9946 180 66.8546 180H65.7836ZM80.7748 180C80.6348 180 80.5158 179.958 80.4178 179.874C80.3338 179.776 80.2918 179.657 80.2918 179.517V165.804C80.2918 165.65 80.3338 165.531 80.4178 165.447C80.5158 165.349 80.6348 165.3 80.7748 165.3H86.1088C87.6908 165.3 88.9368 165.685 89.8468 166.455C90.7568 167.225 91.2118 168.338 91.2118 169.794C91.2118 171.25 90.7568 172.363 89.8468 173.133C88.9508 173.889 87.7048 174.267 86.1088 174.267H82.3918V179.517C82.3918 179.657 82.3428 179.776 82.2448 179.874C82.1468 179.958 82.0278 180 81.8878 180H80.7748ZM86.0038 172.503C87.0258 172.503 87.7958 172.272 88.3138 171.81C88.8458 171.348 89.1118 170.676 89.1118 169.794C89.1118 168.912 88.8528 168.24 88.3348 167.778C87.8168 167.302 87.0398 167.064 86.0038 167.064H82.3708V172.503H86.0038Z" fill="white"/>
<path d="M65.8083 50.5769H65.3951L65.3173 50.9827L60.0923 78.2135L59.9783 78.8077H60.5833H66.0521H66.4645L66.543 78.4028L69.102 65.1923H73.0583C73.7289 65.1923 74.261 65.2524 74.662 65.3617C75.0659 65.4717 75.296 65.6202 75.418 65.7658C75.542 65.9151 75.6509 66.1719 75.692 66.5881C75.7328 67.0005 75.703 67.5327 75.5858 68.1894L73.5929 78.2102L73.4741 78.8077H74.0833H79.6333H80.0433L80.1236 78.4057L82.2903 67.5656L82.2904 67.5656L82.2923 67.5552C82.7655 64.8967 82.4387 62.783 81.1127 61.4508L81.1117 61.4498C79.7756 60.1151 77.5112 59.6538 74.4104 59.6538H70.1398L71.7578 51.1706L71.871 50.5769H71.2667H65.8083ZM41.8333 59.6538H41.4108L41.3403 60.0704L37.1174 85.032L37.0187 85.6154H37.6104H43.1271H43.5533L43.6208 85.1946L44.645 78.8077H47.6521C51.2669 78.8077 54.1558 78.3544 56.334 76.9854C58.5381 75.6003 59.9337 73.3317 60.6803 69.8952C61.3309 66.9016 60.837 64.3321 59.419 62.5013C57.9996 60.6687 55.7139 59.6538 52.9417 59.6538H41.8333ZM85.5833 59.6538H85.1608L85.0903 60.0705L80.8695 85.032L80.7709 85.6154H81.3625H86.8792H87.3054L87.3729 85.1946L88.397 78.8077H91.4042C95.018 78.8077 97.9068 78.3543 100.085 76.9854C102.289 75.6003 103.685 73.3317 104.43 69.8952C105.081 66.9016 104.587 64.3321 103.169 62.5013C101.75 60.6687 99.4639 59.6538 96.6917 59.6538H85.5833ZM21.5 71.5C21.5 63.4726 26.8294 56.2346 35.7408 50.9771C44.6448 45.724 57.053 42.5 71 42.5C84.947 42.5 97.3552 45.724 106.259 50.9771C115.171 56.2346 120.5 63.4726 120.5 71.5C120.5 79.5274 115.171 86.7654 106.259 92.0229C97.3552 97.276 84.947 100.5 71 100.5C57.053 100.5 44.6448 97.276 35.7408 92.0229C26.8294 86.7654 21.5 79.5274 21.5 71.5ZM48.5542 73.2692H45.5856L46.9834 65.1923H50.8583C52.5715 65.1923 53.4787 65.6129 53.9522 66.142C54.4268 66.6722 54.5692 67.4265 54.4855 68.3335C54.2548 70.7423 53.4668 71.9166 52.4823 72.5278C51.455 73.1657 50.1028 73.2692 48.5542 73.2692ZM92.3042 73.2692H89.3356L90.7334 65.1923H94.6083C96.3214 65.1923 97.2287 65.6129 97.7025 66.142C98.1773 66.6722 98.3201 67.4262 98.2376 68.3329C98.006 70.742 97.2175 71.9164 96.2326 72.5278C95.205 73.1657 93.8528 73.2692 92.3042 73.2692Z" fill="#0E2833" stroke="black"/>
<defs>
<linearGradient id="paint0_linear" x1="70.8077" y1="3.8147e-05" x2="70.8077" y2="141.615" gradientUnits="userSpaceOnUse">
<stop stop-color="#369B9B"/>
<stop offset="1" stop-color="#478979"/>
</linearGradient>
</defs>
</svg>
