<svg width="142" height="185" viewBox="0 0 142 185" fill="none" xmlns="http://www.w3.org/2000/svg">
<path d="M23.1126 179.81C22.7486 179.81 22.5316 179.621 22.4616 179.243L19.7526 165.761C19.7386 165.691 19.7316 165.614 19.7316 165.53C19.7316 165.418 19.7736 165.32 19.8576 165.236C19.9416 165.152 20.0396 165.11 20.1516 165.11H21.2436C21.5376 165.11 21.7056 165.229 21.7476 165.467L23.8896 176.303L26.1576 168.869C26.2836 168.533 26.5076 168.365 26.8296 168.365H27.6066C27.7886 168.365 27.9286 168.414 28.0266 168.512C28.1386 168.61 28.2156 168.729 28.2576 168.869L30.5466 176.303L32.6676 165.467C32.7096 165.229 32.8846 165.11 33.1926 165.11H34.2846C34.3966 165.11 34.4946 165.152 34.5786 165.236C34.6626 165.32 34.7046 165.418 34.7046 165.53L34.6836 165.761L31.9746 179.243C31.8906 179.621 31.6736 179.81 31.3236 179.81H30.5046C30.1406 179.81 29.9096 179.635 29.8116 179.285L27.2076 171.284L24.6246 179.285C24.5126 179.635 24.2816 179.81 23.9316 179.81H23.1126ZM41.1999 180.02C39.6599 180.02 38.4629 179.586 37.6089 178.718C36.7689 177.85 36.3209 176.695 36.2649 175.253L36.2439 174.35L36.2649 173.447C36.3209 172.019 36.7759 170.871 37.6299 170.003C38.4839 169.121 39.6739 168.68 41.1999 168.68C42.7259 168.68 43.9159 169.121 44.7699 170.003C45.6239 170.871 46.0789 172.019 46.1349 173.447C46.1489 173.601 46.1559 173.902 46.1559 174.35C46.1559 174.798 46.1489 175.099 46.1349 175.253C46.0789 176.695 45.6239 177.85 44.7699 178.718C43.9299 179.586 42.7399 180.02 41.1999 180.02ZM41.1999 178.403C42.0819 178.403 42.7749 178.123 43.2789 177.563C43.7969 177.003 44.0769 176.198 44.1189 175.148C44.1329 175.008 44.1399 174.742 44.1399 174.35C44.1399 173.958 44.1329 173.692 44.1189 173.552C44.0769 172.502 43.7969 171.697 43.2789 171.137C42.7749 170.577 42.0819 170.297 41.1999 170.297C40.3179 170.297 39.6179 170.577 39.0999 171.137C38.5819 171.697 38.3089 172.502 38.2809 173.552L38.2599 174.35L38.2809 175.148C38.3089 176.198 38.5819 177.003 39.0999 177.563C39.6179 178.123 40.3179 178.403 41.1999 178.403ZM49.2684 179.81C49.1284 179.81 49.0094 179.768 48.9114 179.684C48.8274 179.586 48.7854 179.467 48.7854 179.327V169.394C48.7854 169.254 48.8274 169.135 48.9114 169.037C49.0094 168.939 49.1284 168.89 49.2684 168.89H50.2344C50.3744 168.89 50.4934 168.939 50.5914 169.037C50.6894 169.135 50.7384 169.254 50.7384 169.394V170.318C51.3124 169.366 52.2924 168.89 53.6784 168.89H54.4974C54.6374 168.89 54.7494 168.939 54.8334 169.037C54.9314 169.121 54.9804 169.233 54.9804 169.373V170.234C54.9804 170.374 54.9314 170.486 54.8334 170.57C54.7494 170.654 54.6374 170.696 54.4974 170.696H53.2374C52.4814 170.696 51.8864 170.92 51.4524 171.368C51.0184 171.802 50.8014 172.397 50.8014 173.153V179.327C50.8014 179.467 50.7524 179.586 50.6544 179.684C50.5564 179.768 50.4374 179.81 50.2974 179.81H49.2684ZM60.5274 180.02C59.0714 180.02 57.9724 179.544 57.2304 178.592C56.4884 177.64 56.0964 176.436 56.0544 174.98L56.0334 174.35L56.0544 173.72C56.0964 172.278 56.4884 171.081 57.2304 170.129C57.9724 169.163 59.0714 168.68 60.5274 168.68C61.9694 168.68 63.1034 169.191 63.9294 170.213V165.383C63.9294 165.243 63.9714 165.131 64.0554 165.047C64.1534 164.949 64.2724 164.9 64.4124 164.9H65.4204C65.5604 164.9 65.6724 164.949 65.7564 165.047C65.8544 165.131 65.9034 165.243 65.9034 165.383V179.327C65.9034 179.467 65.8544 179.586 65.7564 179.684C65.6724 179.768 65.5604 179.81 65.4204 179.81H64.4754C64.3354 179.81 64.2164 179.768 64.1184 179.684C64.0344 179.586 63.9924 179.467 63.9924 179.327V178.445C63.1804 179.495 62.0254 180.02 60.5274 180.02ZM60.9684 178.319C61.9344 178.319 62.6554 178.004 63.1314 177.374C63.6214 176.73 63.8874 175.967 63.9294 175.085C63.9434 174.931 63.9504 174.665 63.9504 174.287C63.9504 173.895 63.9434 173.622 63.9294 173.468C63.9014 172.642 63.6354 171.921 63.1314 171.305C62.6274 170.689 61.9064 170.381 60.9684 170.381C59.9744 170.381 59.2464 170.689 58.7844 171.305C58.3364 171.921 58.0914 172.733 58.0494 173.741L58.0284 174.35C58.0284 176.996 59.0084 178.319 60.9684 178.319ZM69.5307 183.8C69.3907 183.8 69.2717 183.751 69.1737 183.653C69.0897 183.569 69.0477 183.457 69.0477 183.317V169.373C69.0477 169.233 69.0897 169.121 69.1737 169.037C69.2717 168.939 69.3907 168.89 69.5307 168.89H70.4967C70.6367 168.89 70.7487 168.939 70.8327 169.037C70.9307 169.121 70.9797 169.233 70.9797 169.373V170.297C71.7637 169.219 72.9117 168.68 74.4237 168.68C75.8937 168.68 76.9927 169.142 77.7207 170.066C78.4627 170.99 78.8617 172.18 78.9177 173.636C78.9317 173.79 78.9387 174.028 78.9387 174.35C78.9387 174.672 78.9317 174.91 78.9177 175.064C78.8617 176.506 78.4627 177.696 77.7207 178.634C76.9787 179.558 75.8797 180.02 74.4237 180.02C72.9677 180.02 71.8337 179.495 71.0217 178.445V183.317C71.0217 183.457 70.9797 183.569 70.8957 183.653C70.8117 183.751 70.6997 183.8 70.5597 183.8H69.5307ZM73.9827 178.319C74.9767 178.319 75.6977 178.011 76.1457 177.395C76.6077 176.779 76.8597 175.967 76.9017 174.959C76.9157 174.819 76.9227 174.616 76.9227 174.35C76.9227 171.704 75.9427 170.381 73.9827 170.381C73.0167 170.381 72.2887 170.703 71.7987 171.347C71.3227 171.977 71.0637 172.733 71.0217 173.615L71.0007 174.413L71.0217 175.232C71.0497 176.058 71.3157 176.779 71.8197 177.395C72.3237 178.011 73.0447 178.319 73.9827 178.319ZM82.0194 179.81C81.8794 179.81 81.7604 179.768 81.6624 179.684C81.5784 179.586 81.5364 179.467 81.5364 179.327V169.394C81.5364 169.254 81.5784 169.135 81.6624 169.037C81.7604 168.939 81.8794 168.89 82.0194 168.89H82.9854C83.1254 168.89 83.2444 168.939 83.3424 169.037C83.4404 169.135 83.4894 169.254 83.4894 169.394V170.318C84.0634 169.366 85.0434 168.89 86.4294 168.89H87.2484C87.3884 168.89 87.5004 168.939 87.5844 169.037C87.6824 169.121 87.7314 169.233 87.7314 169.373V170.234C87.7314 170.374 87.6824 170.486 87.5844 170.57C87.5004 170.654 87.3884 170.696 87.2484 170.696H85.9884C85.2324 170.696 84.6374 170.92 84.2034 171.368C83.7694 171.802 83.5524 172.397 83.5524 173.153V179.327C83.5524 179.467 83.5034 179.586 83.4054 179.684C83.3074 179.768 83.1884 179.81 83.0484 179.81H82.0194ZM93.6769 180.02C92.2349 180.02 91.0799 179.579 90.2119 178.697C89.3579 177.801 88.8889 176.583 88.8049 175.043L88.7839 174.329L88.8049 173.636C88.9029 172.124 89.3789 170.92 90.2329 170.024C91.1009 169.128 92.2419 168.68 93.6559 168.68C95.2099 168.68 96.4139 169.177 97.2679 170.171C98.1219 171.151 98.5489 172.481 98.5489 174.161V174.518C98.5489 174.658 98.4999 174.777 98.4019 174.875C98.3179 174.959 98.2059 175.001 98.0659 175.001H90.7999V175.19C90.8419 176.1 91.1149 176.877 91.6189 177.521C92.1369 178.151 92.8159 178.466 93.6559 178.466C94.2999 178.466 94.8249 178.34 95.2309 178.088C95.6509 177.822 95.9589 177.549 96.1549 177.269C96.2809 177.101 96.3719 177.003 96.4279 176.975C96.4979 176.933 96.6169 176.912 96.7849 176.912H97.8139C97.9399 176.912 98.0449 176.947 98.1289 177.017C98.2129 177.087 98.2549 177.185 98.2549 177.311C98.2549 177.619 98.0589 177.99 97.6669 178.424C97.2889 178.858 96.7499 179.236 96.0499 179.558C95.3639 179.866 94.5729 180.02 93.6769 180.02ZM96.5539 173.552V173.489C96.5539 172.523 96.2879 171.739 95.7559 171.137C95.2379 170.521 94.5379 170.213 93.6559 170.213C92.7739 170.213 92.0739 170.521 91.5559 171.137C91.0519 171.739 90.7999 172.523 90.7999 173.489V173.552H96.5539ZM104.84 180.02C103.86 180.02 103.034 179.866 102.362 179.558C101.704 179.236 101.207 178.872 100.871 178.466C100.549 178.06 100.388 177.724 100.388 177.458C100.388 177.318 100.437 177.213 100.535 177.143C100.647 177.059 100.759 177.017 100.871 177.017H101.816C101.956 177.017 102.082 177.087 102.194 177.227C102.53 177.619 102.894 177.927 103.286 178.151C103.678 178.375 104.203 178.487 104.861 178.487C105.589 178.487 106.177 178.347 106.625 178.067C107.087 177.773 107.318 177.374 107.318 176.87C107.318 176.534 107.22 176.261 107.024 176.051C106.842 175.827 106.52 175.638 106.058 175.484C105.61 175.316 104.938 175.134 104.042 174.938C102.824 174.672 101.956 174.287 101.438 173.783C100.934 173.279 100.682 172.628 100.682 171.83C100.682 171.298 100.836 170.794 101.144 170.318C101.466 169.828 101.928 169.436 102.53 169.142C103.146 168.834 103.881 168.68 104.735 168.68C105.631 168.68 106.394 168.827 107.024 169.121C107.654 169.415 108.123 169.765 108.431 170.171C108.753 170.563 108.914 170.892 108.914 171.158C108.914 171.284 108.865 171.389 108.767 171.473C108.683 171.557 108.578 171.599 108.452 171.599H107.57C107.402 171.599 107.262 171.529 107.15 171.389C106.926 171.123 106.73 170.92 106.562 170.78C106.408 170.626 106.177 170.493 105.869 170.381C105.575 170.269 105.197 170.213 104.735 170.213C104.063 170.213 103.545 170.36 103.181 170.654C102.817 170.934 102.635 171.305 102.635 171.767C102.635 172.061 102.712 172.313 102.866 172.523C103.02 172.719 103.314 172.901 103.748 173.069C104.196 173.237 104.84 173.412 105.68 173.594C107.01 173.874 107.948 174.28 108.494 174.812C109.054 175.33 109.334 175.995 109.334 176.807C109.334 177.409 109.159 177.955 108.809 178.445C108.459 178.935 107.941 179.32 107.255 179.6C106.583 179.88 105.778 180.02 104.84 180.02ZM115.545 180.02C114.565 180.02 113.739 179.866 113.067 179.558C112.409 179.236 111.912 178.872 111.576 178.466C111.254 178.06 111.093 177.724 111.093 177.458C111.093 177.318 111.142 177.213 111.24 177.143C111.352 177.059 111.464 177.017 111.576 177.017H112.521C112.661 177.017 112.787 177.087 112.899 177.227C113.235 177.619 113.599 177.927 113.991 178.151C114.383 178.375 114.908 178.487 115.566 178.487C116.294 178.487 116.882 178.347 117.33 178.067C117.792 177.773 118.023 177.374 118.023 176.87C118.023 176.534 117.925 176.261 117.729 176.051C117.547 175.827 117.225 175.638 116.763 175.484C116.315 175.316 115.643 175.134 114.747 174.938C113.529 174.672 112.661 174.287 112.143 173.783C111.639 173.279 111.387 172.628 111.387 171.83C111.387 171.298 111.541 170.794 111.849 170.318C112.171 169.828 112.633 169.436 113.235 169.142C113.851 168.834 114.586 168.68 115.44 168.68C116.336 168.68 117.099 168.827 117.729 169.121C118.359 169.415 118.828 169.765 119.136 170.171C119.458 170.563 119.619 170.892 119.619 171.158C119.619 171.284 119.57 171.389 119.472 171.473C119.388 171.557 119.283 171.599 119.157 171.599H118.275C118.107 171.599 117.967 171.529 117.855 171.389C117.631 171.123 117.435 170.92 117.267 170.78C117.113 170.626 116.882 170.493 116.574 170.381C116.28 170.269 115.902 170.213 115.44 170.213C114.768 170.213 114.25 170.36 113.886 170.654C113.522 170.934 113.34 171.305 113.34 171.767C113.34 172.061 113.417 172.313 113.571 172.523C113.725 172.719 114.019 172.901 114.453 173.069C114.901 173.237 115.545 173.412 116.385 173.594C117.715 173.874 118.653 174.28 119.199 174.812C119.759 175.33 120.039 175.995 120.039 176.807C120.039 177.409 119.864 177.955 119.514 178.445C119.164 178.935 118.646 179.32 117.96 179.6C117.288 179.88 116.483 180.02 115.545 180.02Z" fill="white"/>
<ellipse cx="70.8077" cy="70.8078" rx="70.8077" ry="70.8077" transform="rotate(-90 70.8077 70.8078)" fill="url(#paint0_linear)"/>
<path fill-rule="evenodd" clip-rule="evenodd" d="M71.3014 28.0059C82.1786 28.0059 92.0825 32.3031 99.5065 39.3386C95.8677 39.238 92.2364 41.4679 92.0862 46.5741C91.7802 56.897 104.06 59.096 97.443 79.8599L91.9698 97.035L77.0637 51.7675C76.8327 51.0668 77.1012 50.6681 77.9367 50.6681H82.151C82.37 50.6681 82.5491 50.4753 82.5491 50.2392V47.6659C82.5491 47.4299 82.3696 47.2273 82.151 47.2371C74.1703 47.5969 66.2366 47.5993 58.3507 47.2371C58.131 47.2274 57.9527 47.4307 57.9527 47.6668V50.2401C57.9527 50.4759 58.1318 50.669 58.3507 50.669H62.5881C63.5306 50.669 63.7945 50.9928 64.0167 51.6191L70.1414 68.8872L60.9281 97.568L45.7835 51.5804C45.5957 51.0036 45.8229 50.6687 46.3618 50.6687H51.19C51.4089 50.6687 51.588 50.4759 51.588 50.2398V47.6666C51.588 47.4305 51.4083 47.2259 51.19 47.2377C46.1243 47.5151 41.0392 47.5709 36.3024 47.6211C43.7356 35.8166 56.6329 28.005 71.2988 28.005L71.2987 28.0049L71.3014 28.0059ZM107.974 50.5235C111.178 56.6094 112.998 63.5823 112.998 70.9912C112.998 87.2518 104.234 101.404 91.3136 108.71L104.318 70.7376C106.332 64.861 108.202 56.9189 107.973 50.5235H107.973H107.974ZM85.2612 111.505C80.8958 113.105 76.1981 113.978 71.3014 113.978C67.0824 113.978 63.0118 113.33 59.174 112.13L72.0195 74.1793L85.261 111.507L85.2612 111.505ZM53.4587 109.852C39.3578 102.957 29.6039 88.147 29.6039 70.9932C29.6039 64.6341 30.9457 58.5975 33.3506 53.1664L53.4596 109.852L53.4596 109.852L53.4587 109.852ZM71.3 23.972C96.4841 23.972 116.908 45.0281 116.908 70.9912C116.908 96.9543 96.4841 118.01 71.3 118.01C46.116 118.01 25.6916 96.9543 25.6916 70.9912C25.6916 45.0281 46.116 23.972 71.3 23.972ZM71.3 20.9999C98.0763 20.9999 119.792 43.3879 119.792 70.9924C119.792 98.5969 98.0763 120.985 71.3 120.985C44.5238 120.985 22.8076 98.5969 22.8076 70.9924C22.8076 43.3879 44.5238 20.9999 71.3 20.9999Z" fill="#35C1FF"/>
<defs>
<linearGradient id="paint0_linear" x1="70.8077" y1="3.8147e-05" x2="70.8077" y2="141.615" gradientUnits="userSpaceOnUse">
<stop stop-color="#369B9B"/>
<stop offset="1" stop-color="#478979"/>
</linearGradient>
</defs>
</svg>
