<svg width="215" height="215" viewBox="0 0 396 283" fill="none" xmlns="http://www.w3.org/2000/svg">
<g clip-path="url(#clip0)">
<path d="M295.401 279.601C289.92 275.435 286.591 268.854 287.464 262.448C288.337 256.042 293.745 250.153 300.76 248.793C307.775 247.432 315.771 251.198 317.902 257.361C319.074 245.479 320.426 233.099 327.45 222.981C333.81 213.818 344.825 207.262 356.764 206.09C368.702 204.917 381.272 209.346 388.718 217.821C396.164 226.296 397.987 238.617 392.772 248.347C388.93 255.514 381.853 260.848 374.438 265.188C350.476 279.093 321.737 284.748 293.508 281.111" fill="#F2F2F2"/>
<path d="M376.912 209.592C367.061 216.808 358.024 224.879 349.932 233.688C337.267 247.426 327.018 262.829 319.543 279.361C318.996 280.567 321.173 281.092 321.714 279.899C333.945 253.032 353.47 229.352 378.504 211.024C379.629 210.201 378.027 208.776 376.912 209.592Z" fill="white"/>
<path d="M96.8172 282.452H65.7309C64.6805 282.451 63.6734 282.075 62.9306 281.407C62.1879 280.739 61.7701 279.833 61.7689 278.888V220.779C61.7701 219.834 62.1879 218.928 62.9306 218.26C63.6734 217.592 64.6805 217.217 65.7309 217.216H96.8172C97.8676 217.217 98.8746 217.592 99.6174 218.26C100.36 218.928 100.778 219.834 100.779 220.779V278.888C100.778 279.833 100.36 280.739 99.6174 281.407C98.8746 282.075 97.8676 282.451 96.8172 282.452Z" fill="#127384"/>
<path d="M318.767 282.726H287.681C286.63 282.725 285.623 282.349 284.88 281.681C284.138 281.013 283.72 280.107 283.719 279.163V18.766C283.72 17.8212 284.138 16.9155 284.88 16.2475C285.623 15.5795 286.63 15.2037 287.681 15.2026H318.767C319.817 15.2037 320.824 15.5795 321.567 16.2475C322.31 16.9155 322.728 17.8212 322.729 18.766V279.163C322.728 280.107 322.31 281.013 321.567 281.681C320.824 282.349 319.817 282.725 318.767 282.726Z" fill="#2A3C5C"/>
<path d="M249.039 283H217.961C216.911 282.999 215.904 282.792 215.161 282.422C214.419 282.052 214.001 281.551 214 281.029V136.971C214.001 136.449 214.419 135.948 215.161 135.578C215.904 135.208 216.911 135.001 217.961 135H249.039C250.089 135.001 251.096 135.208 251.839 135.578C252.581 135.948 252.999 136.449 253 136.971V281.029C252.999 281.551 252.581 282.052 251.839 282.422C251.096 282.792 250.089 282.999 249.039 283Z" fill="#127384"/>
<path d="M173.039 283H141.961C140.911 283 139.904 282.869 139.161 282.637C138.419 282.405 138.001 282.09 138 281.761V191.239C138.001 190.91 138.419 190.595 139.161 190.363C139.904 190.131 140.911 190 141.961 190H173.039C174.089 190 175.096 190.131 175.839 190.363C176.581 190.595 176.999 190.91 177 191.239V281.761C176.999 282.09 176.581 282.405 175.839 282.637C175.096 282.869 174.089 283 173.039 283Z" fill="#2A3C5C"/>
<path d="M125.43 121.898C125.543 121.098 125.459 120.286 125.185 119.519C124.911 118.752 124.454 118.048 123.844 117.456C123.235 116.865 122.49 116.402 121.66 116.098C120.83 115.794 119.936 115.658 119.041 115.698L108.205 97.8218L105.767 105.497L113.191 121.88C113.366 123.228 114.085 124.471 115.211 125.373C116.338 126.276 117.793 126.776 119.301 126.778C120.81 126.78 122.267 126.285 123.397 125.385C124.526 124.486 125.25 123.245 125.43 121.898V121.898Z" fill="#A0616A"/>
<path d="M41.9458 192.481L47.9808 196.444L67.8486 177.393L58.9408 171.544L41.9458 192.481Z" fill="#A0616A"/>
<path d="M55.5293 209.127L36.5606 196.673L41.9111 190.081L53.551 197.724C55.4947 199 56.7951 200.919 57.1661 203.057C57.5371 205.196 56.9484 207.379 55.5293 209.127V209.127L55.5293 209.127Z" fill="#2F2E41"/>
<path d="M73.8763 213.458L81.3492 213.457L84.904 187.534L73.8751 187.534L73.8763 213.458Z" fill="#A0616A"/>
<path d="M95.7613 219.698L72.2755 219.699L72.2751 211.538L86.6868 211.537C89.0934 211.537 91.4015 212.397 93.1033 213.927C94.8051 215.458 95.7612 217.533 95.7613 219.698V219.698V219.698Z" fill="#2F2E41"/>
<path d="M96.3193 112.349C96.3193 112.349 99.9765 144.145 90.8335 166.073L84.1286 207.737H72.5474L73.7665 158.398L69.4997 114.542C69.4997 114.542 78.0332 94.8066 96.3193 112.349Z" fill="#2F2E41"/>
<path d="M87.7882 29.7204C96.0563 29.7204 102.759 23.6922 102.759 16.2559C102.759 8.81974 96.0563 2.7915 87.7882 2.7915C79.52 2.7915 72.8174 8.81974 72.8174 16.2559C72.8174 23.6922 79.52 29.7204 87.7882 29.7204Z" fill="#A0616A"/>
<path d="M56.6996 114.542L68.8903 152.368L45.1184 186.356L57.0043 195.402L84.1287 157.302L76.2047 110.704L56.6996 114.542Z" fill="#2F2E41"/>
<path d="M75.2903 34.7783C75.2903 34.7783 84.4333 29.2962 94.7954 41.3567L97.5384 117.283C97.5384 117.283 89.6144 107.415 73.1569 116.735C56.6995 126.054 53.0423 115.638 53.0423 115.638C53.0423 115.638 41.4611 37.2452 75.2903 34.7783Z" fill="#CCCCCC"/>
<path d="M94.058 41.1654C96.6876 41.2932 99.1717 42.2911 101.033 43.967C102.893 45.643 103.999 47.8786 104.138 50.2438L106.072 83.2944L118.872 114.542L111.558 120.024L87.7858 82.7461L82.9188 52.1053C82.6957 50.7009 82.8216 49.2695 83.2874 47.9141C83.7533 46.5588 84.5474 45.3131 85.6127 44.2669C86.678 43.2206 87.9879 42.3998 89.4482 41.8635C90.9085 41.3272 92.4829 41.0888 94.058 41.1654V41.1654Z" fill="#CCCCCC"/>
<g filter="url(#filter0_d)">
<path d="M76.7879 26.3557C79.2353 28.7004 83.7806 27.4417 84.0995 24.2384C84.1245 23.9898 84.1227 23.7395 84.0941 23.4911C83.9294 22.0722 83.018 20.784 83.2363 19.2859C83.2857 18.913 83.2551 18.3041 83.5 18C85.4503 15.6512 90.2135 19.3041 92.0541 17.1778C93.1828 15.8739 91.8561 13.8211 92.7222 12.3639C93.8653 10.4406 97.2511 11.3894 99.3744 10.3361C101.737 9.16413 101.595 5.90425 100.04 3.92142C98.1439 1.5033 94.8187 0.212961 91.535 0.0269831C88.2513 -0.158995 84.9901 0.639375 81.9245 1.71389C78.4412 2.93474 74.9871 4.622 72.8436 7.37662C70.2368 10.7265 69.986 15.2302 71.2897 19.1473C72.0827 21.5301 74.7893 24.4409 76.7879 26.3557Z" fill="#2F2E41"/>
</g>
</g>
<defs>
<filter id="filter0_d" x="66.5209" y="0" width="38.6622" height="35.5646" filterUnits="userSpaceOnUse" color-interpolation-filters="sRGB">
<feFlood flood-opacity="0" result="BackgroundImageFix"/>
<feColorMatrix in="SourceAlpha" type="matrix" values="0 0 0 0 0 0 0 0 0 0 0 0 0 0 0 0 0 0 127 0"/>
<feOffset dy="4"/>
<feGaussianBlur stdDeviation="2"/>
<feColorMatrix type="matrix" values="0 0 0 0 0 0 0 0 0 0 0 0 0 0 0 0 0 0 0.25 0"/>
<feBlend mode="normal" in2="BackgroundImageFix" result="effect1_dropShadow"/>
<feBlend mode="normal" in="SourceGraphic" in2="effect1_dropShadow" result="shape"/>
</filter>
<clipPath id="clip0">
<rect width="396" height="283" fill="white"/>
</clipPath>
</defs>
</svg>
