<svg width="230" height="230" viewBox="0 0 454 317" fill="none" xmlns="http://www.w3.org/2000/svg">
<g clip-path="url(#clip0)">
<path d="M261.627 15.4285C265.521 23.0939 257.269 25.2651 247.817 29.3737C238.364 33.4822 231.291 37.9723 227.396 30.3069C223.502 22.6415 220.343 7.42703 233.715 1.61475C247.548 -4.39776 257.733 7.76304 261.627 15.4285Z" fill="#2F2E41"/>
<path d="M242.341 30.5033C249.369 30.5033 255.066 25.2335 255.066 18.7329C255.066 12.2322 249.369 6.9624 242.341 6.9624C235.313 6.9624 229.616 12.2322 229.616 18.7329C229.616 25.2335 235.313 30.5033 242.341 30.5033Z" fill="#FFB8B8"/>
<path d="M305.384 70.9326C304.944 70.4007 304.503 69.8783 304.058 69.3703C303.483 68.709 302.904 68.0684 302.322 67.4486C295.727 60.4086 288.711 55.9757 280.987 55.5013H280.976L280.862 55.4917L265.469 69.3703L260.236 74.086L260.351 74.3447L263.174 80.848H312.648C310.419 77.4259 307.994 74.1161 305.384 70.9326Z" fill="#2F2E41"/>
<path d="M228.504 23.4717L233.059 21.4917L232.424 15.4135L235.47 20.4436L237.647 19.4973L237.277 15.9516L239.054 18.8858L255.232 11.8543C253.712 8.8634 250.971 6.55334 247.61 5.43227C244.249 4.3112 240.544 4.47094 237.311 5.87636L234.966 6.89545C231.733 8.30088 229.235 10.8369 228.023 13.9455C226.811 17.0541 226.984 20.4808 228.504 23.4717Z" fill="#2F2E41"/>
<path d="M333.932 237.125H68.2279C65.9614 237.123 63.7885 236.289 62.1859 234.806C60.5832 233.324 59.6818 231.314 59.6792 229.218V81.54C59.681 80.0041 60.3415 78.5316 61.5156 77.4456C62.6896 76.3595 64.2815 75.7486 65.942 75.7468H336.109C337.798 75.7486 339.418 76.3701 340.612 77.4749C341.807 78.5797 342.479 80.0777 342.48 81.6401V229.218C342.478 231.314 341.576 233.324 339.974 234.806C338.371 236.289 336.198 237.123 333.932 237.125Z" fill="#F2F2F2" fill-opacity="0.5"/>
<path d="M76.5176 229.218H325.642C327.841 229.218 329.949 228.41 331.504 226.972C333.058 225.534 333.932 223.583 333.932 221.55V96.2073C333.932 94.1737 333.058 92.2234 331.504 90.7854C329.949 89.3474 327.841 88.5396 325.642 88.5396H76.5176C74.319 88.5396 72.2105 89.3474 70.6559 90.7854C69.1013 92.2234 68.2279 94.1737 68.2279 96.2073V221.55C68.2279 223.583 69.1013 225.534 70.6559 226.972C72.2105 228.41 74.319 229.218 76.5176 229.218Z" fill="#323232"/>
<path d="M342.361 81.0876H59.5592V77.0618C59.5625 74.9584 60.4677 72.9421 62.0761 71.4552C63.6846 69.9684 65.865 69.1324 68.139 69.1306H333.782C336.056 69.1323 338.236 69.9683 339.844 71.4552C341.453 72.9421 342.358 74.9584 342.361 77.0618V81.0876Z" fill="#127383"/>
<path d="M75.1518 77.1736C76.3774 77.1736 77.371 76.2546 77.371 75.1209C77.371 73.9872 76.3774 73.0681 75.1518 73.0681C73.9261 73.0681 72.9325 73.9872 72.9325 75.1209C72.9325 76.2546 73.9261 77.1736 75.1518 77.1736Z" fill="white"/>
<path d="M83.5755 77.1736C84.8011 77.1736 85.7947 76.2546 85.7947 75.1209C85.7947 73.9872 84.8011 73.0681 83.5755 73.0681C82.3498 73.0681 81.3562 73.9872 81.3562 75.1209C81.3562 76.2546 82.3498 77.1736 83.5755 77.1736Z" fill="white"/>
<path d="M91.9992 77.1736C93.2248 77.1736 94.2184 76.2546 94.2184 75.1209C94.2184 73.9872 93.2248 73.0681 91.9992 73.0681C90.7735 73.0681 89.7799 73.9872 89.7799 75.1209C89.7799 76.2546 90.7735 77.1736 91.9992 77.1736Z" fill="white"/>
<path d="M208.853 202.035H186.575C185.27 202.033 184.019 201.553 183.096 200.7C182.173 199.846 181.654 198.689 181.653 197.482V176.875C181.654 175.668 182.173 174.511 183.096 173.657C184.019 172.804 185.27 172.324 186.575 172.322H208.853C210.158 172.324 211.409 172.804 212.332 173.657C213.255 174.511 213.774 175.668 213.775 176.875V197.482C213.774 198.689 213.255 199.846 212.332 200.7C211.409 201.553 210.158 202.033 208.853 202.035ZM186.575 173.281C185.544 173.282 184.557 173.661 183.828 174.335C183.1 175.008 182.69 175.922 182.689 176.875V197.482C182.69 198.435 183.1 199.349 183.828 200.022C184.557 200.696 185.544 201.075 186.575 201.076H208.853C209.883 201.075 210.871 200.696 211.599 200.022C212.328 199.349 212.738 198.435 212.739 197.482V176.875C212.738 175.922 212.328 175.008 211.599 174.335C210.871 173.661 209.883 173.282 208.853 173.281H186.575Z" fill="#CCCCCC"/>
<path d="M204.449 196.284H190.979C190.566 196.284 190.171 196.132 189.88 195.863C189.589 195.593 189.425 195.228 189.424 194.846V179.511C189.425 179.13 189.589 178.764 189.88 178.495C190.171 178.225 190.566 178.074 190.979 178.073H200.739C201.093 178.074 201.437 178.185 201.713 178.39L205.423 181.148C205.604 181.282 205.751 181.453 205.852 181.647C205.952 181.841 206.004 182.053 206.004 182.268V194.846C206.003 195.228 205.839 195.593 205.548 195.863C205.256 196.132 204.861 196.284 204.449 196.284ZM190.979 179.032C190.841 179.032 190.709 179.082 190.612 179.172C190.515 179.262 190.461 179.384 190.46 179.511V194.846C190.461 194.974 190.515 195.095 190.612 195.185C190.709 195.275 190.841 195.326 190.979 195.326H204.449C204.587 195.326 204.718 195.275 204.815 195.185C204.913 195.095 204.967 194.974 204.967 194.846V182.268C204.968 182.197 204.95 182.126 204.917 182.061C204.883 181.997 204.834 181.94 204.774 181.895L201.064 179.137C200.972 179.069 200.857 179.032 200.739 179.032H190.979Z" fill="#CCCCCC"/>
<path d="M201.859 184.782H193.569C193.432 184.782 193.3 184.732 193.203 184.642C193.105 184.552 193.051 184.43 193.051 184.303C193.051 184.176 193.105 184.054 193.203 183.964C193.3 183.874 193.432 183.824 193.569 183.824H201.859C201.996 183.824 202.128 183.874 202.225 183.964C202.322 184.054 202.377 184.176 202.377 184.303C202.377 184.43 202.322 184.552 202.225 184.642C202.128 184.732 201.996 184.782 201.859 184.782Z" fill="#CCCCCC"/>
<path d="M201.859 187.658H193.569C193.432 187.658 193.3 187.607 193.203 187.518C193.105 187.428 193.051 187.306 193.051 187.179C193.051 187.052 193.105 186.93 193.203 186.84C193.3 186.75 193.432 186.699 193.569 186.699H201.859C201.996 186.699 202.128 186.75 202.225 186.84C202.322 186.93 202.377 187.052 202.377 187.179C202.377 187.306 202.322 187.428 202.225 187.518C202.128 187.607 201.996 187.658 201.859 187.658Z" fill="#CCCCCC"/>
<path d="M201.859 190.533H193.569C193.432 190.533 193.3 190.483 193.203 190.393C193.105 190.303 193.051 190.181 193.051 190.054C193.051 189.927 193.105 189.805 193.203 189.715C193.3 189.625 193.432 189.575 193.569 189.575H201.859C201.996 189.575 202.128 189.625 202.225 189.715C202.322 189.805 202.377 189.927 202.377 190.054C202.377 190.181 202.322 190.303 202.225 190.393C202.128 190.483 201.996 190.533 201.859 190.533Z" fill="#CCCCCC"/>
<path d="M261.7 202.035H239.421C238.116 202.033 236.865 201.553 235.943 200.7C235.02 199.846 234.501 198.689 234.499 197.482V176.875C234.501 175.668 235.02 174.511 235.943 173.657C236.865 172.804 238.116 172.324 239.421 172.322H261.7C263.005 172.324 264.256 172.804 265.178 173.657C266.101 174.511 266.62 175.668 266.622 176.875V197.482C266.62 198.689 266.101 199.846 265.178 200.7C264.256 201.553 263.005 202.033 261.7 202.035ZM239.421 173.281C238.391 173.282 237.403 173.661 236.675 174.335C235.946 175.008 235.537 175.922 235.535 176.875V197.482C235.537 198.435 235.946 199.349 236.675 200.022C237.403 200.696 238.391 201.075 239.421 201.076H261.7C262.73 201.075 263.718 200.696 264.446 200.022C265.175 199.349 265.584 198.435 265.586 197.482V176.875C265.584 175.922 265.175 175.008 264.446 174.335C263.718 173.661 262.73 173.282 261.7 173.281H239.421Z" fill="#CCCCCC"/>
<path d="M257.814 192.45H243.307C242.895 192.45 242.5 192.298 242.208 192.029C241.917 191.759 241.753 191.394 241.753 191.012V183.345C241.753 182.964 241.917 182.598 242.208 182.329C242.5 182.059 242.895 181.907 243.307 181.907H257.814C258.226 181.907 258.621 182.059 258.912 182.329C259.204 182.598 259.368 182.964 259.368 183.345V191.012C259.368 191.394 259.204 191.759 258.912 192.029C258.621 192.298 258.226 192.45 257.814 192.45ZM243.307 182.865C243.17 182.866 243.038 182.916 242.941 183.006C242.844 183.096 242.789 183.218 242.789 183.345V191.012C242.789 191.14 242.844 191.261 242.941 191.351C243.038 191.441 243.17 191.492 243.307 191.492H257.814C257.951 191.492 258.083 191.441 258.18 191.351C258.277 191.261 258.332 191.14 258.332 191.012V183.345C258.332 183.218 258.277 183.096 258.18 183.006C258.083 182.916 257.951 182.866 257.814 182.865H243.307Z" fill="#CCCCCC"/>
<path d="M250.56 188.443C250.269 188.443 249.984 188.368 249.737 188.226L241.996 183.751C241.88 183.684 241.797 183.576 241.767 183.452C241.736 183.329 241.759 183.199 241.832 183.091C241.905 182.983 242.021 182.907 242.155 182.878C242.288 182.849 242.429 182.871 242.546 182.938L250.286 187.413C250.369 187.46 250.464 187.485 250.561 187.485C250.658 187.485 250.753 187.46 250.835 187.413L258.575 182.938C258.692 182.871 258.832 182.849 258.966 182.878C259.1 182.907 259.216 182.983 259.289 183.091C259.361 183.199 259.385 183.329 259.354 183.452C259.324 183.576 259.241 183.684 259.125 183.751L251.385 188.226C251.137 188.368 250.852 188.443 250.56 188.443Z" fill="#CCCCCC"/>
<path d="M156.007 202.035H133.728C132.423 202.033 131.172 201.553 130.249 200.7C129.327 199.846 128.808 198.689 128.806 197.482V176.875C128.808 175.668 129.327 174.511 130.249 173.657C131.172 172.804 132.423 172.324 133.728 172.322H156.007C157.311 172.324 158.563 172.804 159.485 173.657C160.408 174.511 160.927 175.668 160.928 176.875V197.482C160.927 198.689 160.408 199.846 159.485 200.7C158.563 201.553 157.311 202.033 156.007 202.035ZM133.728 173.281C132.698 173.282 131.71 173.661 130.982 174.335C130.253 175.008 129.843 175.922 129.842 176.875V197.482C129.843 198.435 130.253 199.349 130.982 200.022C131.71 200.696 132.698 201.075 133.728 201.076H156.007C157.037 201.075 158.024 200.696 158.753 200.022C159.481 199.349 159.891 198.435 159.892 197.482V176.875C159.891 175.922 159.481 175.008 158.753 174.335C158.024 173.661 157.037 173.282 156.007 173.281H133.728Z" fill="#CCCCCC"/>
<path d="M152.121 192.45H137.614C137.202 192.45 136.807 192.298 136.515 192.029C136.224 191.759 136.06 191.394 136.059 191.012V183.345C136.06 182.964 136.224 182.598 136.515 182.329C136.807 182.059 137.202 181.907 137.614 181.907H152.121C152.533 181.907 152.928 182.059 153.219 182.329C153.511 182.598 153.675 182.964 153.675 183.345V191.012C153.675 191.394 153.511 191.759 153.219 192.029C152.928 192.298 152.533 192.45 152.121 192.45ZM137.614 182.865C137.476 182.866 137.345 182.916 137.248 183.006C137.15 183.096 137.096 183.218 137.096 183.345V191.012C137.096 191.14 137.15 191.261 137.248 191.351C137.345 191.441 137.476 191.492 137.614 191.492H152.121C152.258 191.492 152.39 191.441 152.487 191.351C152.584 191.261 152.639 191.14 152.639 191.012V183.345C152.639 183.218 152.584 183.096 152.487 183.006C152.39 182.916 152.258 182.866 152.121 182.865H137.614Z" fill="#CCCCCC"/>
<path d="M149.821 192.45H139.395C139.213 192.45 139.034 192.406 138.877 192.322C138.719 192.238 138.588 192.117 138.497 191.971C138.406 191.825 138.359 191.66 138.359 191.492C138.359 191.324 138.407 191.158 138.498 191.013L141.638 185.981C141.729 185.835 141.86 185.714 142.017 185.63C142.175 185.546 142.354 185.501 142.536 185.501C142.717 185.501 142.896 185.546 143.054 185.63C143.211 185.714 143.342 185.835 143.433 185.981L145.461 189.23L146.636 187.348C146.727 187.202 146.858 187.081 147.016 186.997C147.173 186.913 147.352 186.868 147.534 186.868C147.716 186.868 147.895 186.913 148.052 186.997C148.21 187.081 148.34 187.202 148.431 187.348L150.719 191.013C150.81 191.158 150.858 191.324 150.858 191.492C150.858 191.66 150.81 191.825 150.719 191.971C150.628 192.117 150.497 192.238 150.339 192.322C150.182 192.406 150.003 192.45 149.821 192.45H149.821ZM149.821 191.492L147.534 187.827L145.91 190.429C145.865 190.501 145.799 190.562 145.721 190.604C145.642 190.646 145.552 190.668 145.461 190.668C145.37 190.668 145.281 190.646 145.202 190.604C145.124 190.562 145.058 190.501 145.013 190.429L142.536 186.46L139.395 191.492H149.821Z" fill="#CCCCCC"/>
<path d="M150.566 185.741C151.139 185.741 151.603 185.312 151.603 184.782C151.603 184.253 151.139 183.824 150.566 183.824C149.994 183.824 149.53 184.253 149.53 184.782C149.53 185.312 149.994 185.741 150.566 185.741Z" fill="#CCCCCC"/>
<path d="M398.331 310.615L391.979 310.615L388.958 287.953L398.332 287.953L398.331 310.615Z" fill="#FFB8B8"/>
<path d="M399.951 316.31L379.47 316.31V316.07C379.47 315.102 379.677 314.143 380.077 313.248C380.478 312.354 381.065 311.541 381.805 310.856C382.546 310.171 383.424 309.628 384.392 309.258C385.359 308.887 386.395 308.697 387.442 308.697H387.443L399.952 308.697L399.951 316.31Z" fill="#2F2E41"/>
<path d="M424.237 310.615L417.885 310.615L414.863 287.953L424.238 287.953L424.237 310.615Z" fill="#FFB8B8"/>
<path d="M425.857 316.31L405.376 316.31V316.07C405.376 315.102 405.582 314.143 405.982 313.248C406.383 312.354 406.97 311.541 407.71 310.856C408.451 310.171 409.33 309.628 410.297 309.258C411.264 308.887 412.301 308.697 413.347 308.697H413.348L425.857 308.697L425.857 316.31Z" fill="#2F2E41"/>
<path d="M422.332 300.791L416.45 299.136C416.011 299.013 415.622 298.773 415.33 298.446C415.038 298.119 414.857 297.72 414.809 297.299L409.325 249.219C409.321 249.161 409.293 249.107 409.247 249.067C409.201 249.027 409.14 249.005 409.077 249.005C409.014 248.999 408.951 249.017 408.902 249.053C408.852 249.09 408.82 249.143 408.812 249.201L399.626 295.782C399.57 296.065 399.454 296.334 399.284 296.575C399.114 296.815 398.894 297.022 398.636 297.182C398.379 297.343 398.089 297.455 397.785 297.51C397.48 297.566 397.166 297.565 396.862 297.507L389.344 296.074C388.792 295.968 388.301 295.681 387.96 295.266C387.619 294.851 387.451 294.336 387.488 293.816L393.076 217.468L430.969 213.687L425.338 298.859C425.302 299.407 425.041 299.921 424.61 300.297C424.178 300.673 423.608 300.884 423.015 300.885C422.784 300.885 422.554 300.853 422.332 300.791Z" fill="#2F2E41"/>
<path d="M422.296 150.982C429.324 150.982 435.022 145.712 435.022 139.211C435.022 132.71 429.324 127.441 422.296 127.441C415.269 127.441 409.571 132.71 409.571 139.211C409.571 145.712 415.269 150.982 422.296 150.982Z" fill="#FFB8B8"/>
<path d="M393.017 217.917L401.234 170.065C401.671 167.521 402.688 165.092 404.219 162.94C405.75 160.788 407.758 158.962 410.111 157.583C412.464 156.205 415.108 155.306 417.865 154.946C420.623 154.587 423.432 154.774 426.105 155.497C430.779 156.747 434.782 159.564 437.33 163.398C439.879 167.232 440.791 171.807 439.888 176.229L431.292 218.963L393.017 217.917Z" fill="#127383"/>
<path d="M425.809 226.479C426.445 226.091 426.981 225.578 427.379 224.978C427.778 224.377 428.029 223.704 428.115 223.004C428.201 222.304 428.121 221.595 427.879 220.927C427.637 220.259 427.239 219.648 426.715 219.137L435.21 203.921L425.643 204.865L419.043 219.17C418.174 220.042 417.681 221.179 417.658 222.365C417.634 223.551 418.082 224.704 418.916 225.605C419.75 226.506 420.913 227.092 422.183 227.253C423.454 227.415 424.744 227.139 425.809 226.479V226.479Z" fill="#FFB8B8"/>
<path d="M427.628 216.453C427.159 216.392 426.72 216.199 426.371 215.902L423.121 213.124C422.77 212.822 422.527 212.428 422.426 211.995C422.325 211.562 422.37 211.11 422.555 210.702L429.051 196.46L428.13 168.319C428.262 167.415 428.586 166.543 429.083 165.754C429.58 164.965 430.24 164.275 431.025 163.722C431.811 163.17 432.706 162.766 433.661 162.533C434.615 162.301 435.61 162.245 436.587 162.368C437.565 162.492 438.507 162.792 439.36 163.252C440.212 163.713 440.958 164.324 441.554 165.051C442.151 165.778 442.587 166.607 442.837 167.49C443.088 168.373 443.148 169.293 443.013 170.197L444.589 187.887C445.068 193.255 443.422 198.602 439.958 202.933L429.828 215.6C429.633 215.844 429.385 216.047 429.1 216.195C428.815 216.344 428.499 216.436 428.173 216.465C427.991 216.481 427.809 216.477 427.628 216.453Z" fill="#127383"/>
<path d="M349.016 132.798C349.155 133.491 349.456 134.147 349.899 134.72C350.341 135.294 350.914 135.771 351.577 136.117C352.24 136.463 352.978 136.671 353.737 136.726C354.497 136.78 355.26 136.68 355.973 136.432L367.809 149.6L370.599 141.083L358.931 129.884C358.401 128.804 357.462 127.941 356.29 127.459C355.119 126.976 353.796 126.908 352.574 127.268C351.352 127.627 350.315 128.388 349.659 129.407C349.003 130.427 348.775 131.633 349.016 132.798Z" fill="#FFB8B8"/>
<path d="M358.288 138.257C358.532 137.88 358.895 137.582 359.327 137.401L363.36 135.715C363.797 135.534 364.284 135.481 364.755 135.564C365.225 135.646 365.657 135.861 365.992 136.178L377.638 147.264L406.013 157.451C406.862 157.916 407.603 158.532 408.195 159.262C408.787 159.993 409.217 160.825 409.461 161.709C409.705 162.594 409.758 163.514 409.618 164.418C409.477 165.322 409.145 166.191 408.641 166.976C408.137 167.761 407.47 168.446 406.68 168.992C405.889 169.539 404.989 169.936 404.033 170.161C403.076 170.385 402.081 170.434 401.104 170.302C400.127 170.171 399.188 169.863 398.34 169.396L380.115 163.841C374.583 162.155 369.902 158.669 366.941 154.03L358.28 140.463C358.113 140.202 358.008 139.911 357.971 139.61C357.934 139.309 357.966 139.004 358.064 138.716C358.119 138.555 358.194 138.401 358.288 138.257Z" fill="#127383"/>
<path opacity="0.1" d="M432.618 180.025L432.1 195.36L422.555 210.701L430.525 193.605L432.618 180.025Z" fill="black"/>
<path d="M420.839 141.423C420.039 141.519 419.23 141.344 418.56 140.929C417.89 140.515 417.405 139.89 417.196 139.17C416.994 138.341 416.553 137.579 415.918 136.965C415.284 136.351 414.481 135.908 413.595 135.684C411.26 135.191 408.407 136.207 406.697 134.571C406.331 134.198 406.066 133.749 405.924 133.262C405.782 132.775 405.767 132.264 405.881 131.771C406.196 130.181 407.425 128.98 408.763 128.02C411.579 126.008 414.986 124.83 418.538 124.641C420.376 124.592 422.216 124.676 424.04 124.894C425.951 125.006 427.84 125.325 429.669 125.846C431.753 126.573 433.605 127.775 435.054 129.339C436.503 130.904 437.502 132.781 437.96 134.798C438.378 136.821 438.313 138.903 437.771 140.901C437.229 142.898 436.223 144.762 434.821 146.362C433.144 148.294 430.981 149.817 428.521 150.799C427.935 151.055 427.263 151.086 426.652 150.887C425.12 150.323 425.371 148.568 426.069 147.397C426.817 146.144 427.967 144.93 427.366 143.405C427.065 142.698 426.486 142.122 425.746 141.792C424.223 141.074 422.519 141.244 420.881 141.419L420.839 141.423Z" fill="#2F2E41"/>
<path d="M344.481 159H187.519C185.261 158.997 183.095 157.967 181.498 156.137C179.901 154.306 179.003 151.824 179 149.235V110.765C179.003 108.176 179.901 105.694 181.498 103.863C183.095 102.033 185.261 101.003 187.519 101H344.481C346.739 101.003 348.905 102.033 350.502 103.863C352.099 105.694 352.997 108.176 353 110.765V149.235C352.997 151.824 352.099 154.306 350.502 156.137C348.905 157.967 346.739 158.997 344.481 159Z" fill="white"/>
<path d="M345.148 159H186.852C184.505 158.997 182.255 157.947 180.596 156.08C178.936 154.212 178.003 151.681 178 149.04V110.96C178.003 108.319 178.936 105.788 180.596 103.92C182.255 102.053 184.505 101.003 186.852 101H345.148C347.495 101.003 349.745 102.053 351.404 103.92C353.064 105.788 353.997 108.319 354 110.96V149.04C353.997 151.681 353.064 154.212 351.404 156.08C349.745 157.947 347.495 158.997 345.148 159ZM186.852 102.172C184.781 102.174 182.796 103.101 181.332 104.749C179.867 106.396 179.044 108.63 179.041 110.96V149.04C179.044 151.37 179.867 153.604 181.332 155.251C182.796 156.899 184.781 157.826 186.852 157.828H345.148C347.219 157.826 349.204 156.899 350.668 155.251C352.133 153.604 352.956 151.37 352.959 149.04V110.96C352.956 108.63 352.133 106.396 350.668 104.749C349.204 103.101 347.219 102.174 345.148 102.172H186.852Z" fill="#3F3D56"/>
<path d="M325.594 140.402H206.43C204.163 140.4 201.99 139.566 200.388 138.084C198.785 136.601 197.884 134.591 197.881 132.495V116.201C197.884 114.105 198.785 112.095 200.388 110.612C201.99 109.13 204.163 108.296 206.43 108.294H325.594C327.86 108.296 330.033 109.13 331.636 110.612C333.238 112.095 334.14 114.105 334.143 116.201V132.495C334.14 134.591 333.238 136.601 331.636 138.084C330.033 139.566 327.86 140.4 325.594 140.402Z" fill="#F2F2F2"/>
<path d="M232.073 131.62C237.72 131.62 242.297 127.386 242.297 122.164C242.297 116.941 237.72 112.707 232.073 112.707C226.427 112.707 221.85 116.941 221.85 122.164C221.85 127.386 226.427 131.62 232.073 131.62Z" fill="#FF6584"/>
<path d="M317.816 148.686L303.485 133.278L289.402 118.135C289.03 117.735 288.56 117.517 288.075 117.518C287.59 117.519 287.121 117.74 286.751 118.141L272.713 133.354L269.284 137.07L264.114 131.511L248.402 114.617C248.03 114.217 247.561 113.999 247.076 114C246.59 114.001 246.121 114.222 245.751 114.623L230.09 131.595L214.182 148.833C214.102 148.92 214.044 149.037 214.017 149.168C213.99 149.299 213.995 149.437 214.032 149.564C214.068 149.691 214.134 149.801 214.22 149.878C214.307 149.956 214.41 149.997 214.516 149.997L247.129 149.916L257.453 149.891L257.352 150L288.124 149.924L317.486 149.851C317.592 149.851 317.695 149.809 317.781 149.732C317.868 149.654 317.933 149.544 317.969 149.417C318.005 149.29 318.01 149.151 317.982 149.021C317.955 148.89 317.897 148.773 317.816 148.686Z" fill="#3F3D56"/>
<path d="M312.964 63.2167C312.55 62.5947 312.004 62.0572 311.358 61.637C310.712 61.2168 309.981 60.9227 309.208 60.7726C308.925 60.7175 308.637 60.6839 308.348 60.6719L268.873 28.0265C268.098 27.2894 267.064 26.8323 265.957 26.7374C265.738 26.7142 265.518 26.7078 265.298 26.7182C264.388 26.7565 263.509 27.0394 262.769 27.5324C262.029 28.0254 261.461 28.707 261.133 29.494C260.806 30.281 260.733 31.1393 260.925 31.9638C261.116 32.7883 261.563 33.5434 262.211 34.1368L277.324 46.3237L302.141 66.3317C302.161 66.7085 302.222 67.0826 302.322 67.4483C302.619 68.5078 303.257 69.4588 304.152 70.1752C305.047 70.8916 306.156 71.3395 307.332 71.4595C308.405 71.5754 309.491 71.4093 310.467 70.9803C311.24 70.6457 311.926 70.1601 312.477 69.5569C312.534 69.4946 312.586 69.4371 312.638 69.37C313.362 68.4968 313.782 67.4399 313.84 66.3405C313.898 65.2411 313.593 64.1513 312.964 63.2167H312.964Z" fill="#FFB8B8"/>
<path d="M245.445 94.6784L245.077 80.8477L244.766 69.37L244.553 61.3381L244.134 45.6815C244.051 44.8433 243.706 44.0455 243.141 43.3856C242.576 42.7257 241.815 42.2322 240.952 41.9654C240.089 41.6986 239.161 41.6701 238.28 41.8832C237.4 42.0963 236.606 42.5419 235.994 43.1656C235.85 43.3081 235.72 43.462 235.606 43.6256C234.968 44.4706 234.681 45.5 234.797 46.525L235.72 69.37L236.181 80.8477L236.771 95.4883C236.601 95.7034 236.447 95.9292 236.311 96.164C235.942 96.8102 235.719 97.519 235.656 98.2473C235.593 98.9755 235.69 99.7081 235.943 100.4C236.206 101.126 236.632 101.793 237.194 102.355C237.756 102.918 238.44 103.364 239.202 103.664C239.963 103.964 240.785 104.112 241.613 104.097C242.441 104.082 243.256 103.905 244.004 103.578C244.874 103.198 245.628 102.625 246.202 101.911C246.775 101.197 247.15 100.363 247.292 99.4836C247.434 98.6039 247.34 97.7054 247.018 96.8673C246.696 96.0292 246.155 95.2774 245.445 94.6784H245.445Z" fill="#FFB8B8"/>
<path d="M280.987 55.5011L277.324 46.3237L271.396 31.4579C270.969 30.3763 270.283 29.3976 269.391 28.5945C268.498 27.7915 267.422 27.1846 266.241 26.8189C266.148 26.7902 266.05 26.7614 265.956 26.7374C264.813 26.4163 263.607 26.328 262.423 26.4786C261.239 26.6291 260.104 27.015 259.097 27.6096L239.134 39.3221C237.306 40.3923 235.999 42.0779 235.49 44.0229C234.98 45.9679 235.308 48.0199 236.404 49.7454C238.9 53.7383 241.62 57.6078 244.553 61.3381C246.88 64.2662 251.211 64.5777 251.963 69.37H266.682L281.583 56.9962L280.987 55.5011Z" fill="#CCCCCC"/>
<path d="M52.4138 167.662C59.0441 167.662 64.4191 162.69 64.4191 156.557C64.4191 150.424 59.0441 145.452 52.4138 145.452C45.7834 145.452 40.4084 150.424 40.4084 156.557C40.4084 162.69 45.7834 167.662 52.4138 167.662Z" fill="#A0616A"/>
<path d="M81.887 148.913C82.0054 149 82.12 149.093 82.2311 149.19C82.7826 149.671 83.2181 150.254 83.509 150.901C83.8 151.548 83.9399 152.245 83.9195 152.945C83.8991 153.646 83.7189 154.334 83.3907 154.966C83.0624 155.598 82.5936 156.158 82.015 156.611C81.8801 156.715 81.7393 156.813 81.5933 156.904L82.4058 182.277C82.4289 183.108 82.1619 183.923 81.6444 184.603C81.1269 185.282 80.3864 185.789 79.5329 186.048L79.4834 186.057L57.2108 188.251C56.6053 188.311 55.993 188.259 55.4093 188.098C54.8256 187.938 54.2821 187.672 53.8101 187.316C53.3382 186.96 52.9471 186.521 52.6595 186.025C52.3719 185.528 52.1935 184.984 52.1346 184.423C52.0756 183.863 52.1374 183.297 52.3162 182.759C52.495 182.22 52.7873 181.72 53.1763 181.286C53.5654 180.853 54.0433 180.495 54.5826 180.234C55.122 179.972 55.712 179.812 56.3186 179.763L72.1955 178.469L74.9412 156.496C74.7616 156.349 74.5934 156.19 74.4379 156.022C73.577 155.079 73.1255 153.874 73.171 152.641C73.2165 151.408 73.7558 150.235 74.6843 149.349C75.6127 148.463 76.8639 147.928 78.1949 147.847C79.526 147.767 80.8419 148.147 81.8871 148.913H81.887Z" fill="#A0616A"/>
<path d="M72.1865 311.106H78.1794L81.03 289.726H72.1854L72.1865 311.106Z" fill="#A0616A"/>
<path d="M70.6581 309.296L82.4595 309.296H82.4599C83.4476 309.296 84.4256 309.476 85.3381 309.825C86.2505 310.175 87.0796 310.687 87.778 311.333C88.4764 311.979 89.0304 312.746 89.4083 313.59C89.7863 314.434 89.9808 315.339 89.9808 316.252V316.479L70.6584 316.479L70.6581 309.296Z" fill="#2F2E41"/>
<path d="M12.6241 303.442L17.7731 306.278L32.0484 289.257L24.4488 285.072L12.6241 303.442Z" fill="#A0616A"/>
<path d="M12.3117 301.164L22.4519 306.749L22.4523 306.749C23.3009 307.216 24.0417 307.834 24.6323 308.566C25.223 309.298 25.6519 310.131 25.8947 311.016C26.1374 311.902 26.1892 312.823 26.0471 313.727C25.9051 314.631 25.5718 315.5 25.0665 316.285L24.9415 316.479L8.33911 307.336L12.3117 301.164Z" fill="#2F2E41"/>
<path d="M79.5933 303.555H72.8829C72.3396 303.556 71.8152 303.37 71.4112 303.034C71.0072 302.698 70.7523 302.235 70.6958 301.735L63.9308 242.915C63.9137 242.767 63.8445 242.628 63.7337 242.52C63.6229 242.412 63.4768 242.341 63.3178 242.317C63.1589 242.294 62.996 242.319 62.8542 242.39C62.7124 242.46 62.5997 242.572 62.5334 242.708L50.3292 267.704L28.7224 300.293C28.4428 300.711 28.0098 301.022 27.5028 301.168C26.9957 301.315 26.4486 301.288 25.9615 301.091L17.3298 297.579C17.0444 297.462 16.7889 297.291 16.5804 297.077C16.3719 296.862 16.215 296.609 16.1202 296.335C16.0254 296.06 15.9949 295.77 16.0306 295.483C16.0663 295.196 16.1674 294.92 16.3273 294.673L36.1899 263.91L42.2816 237.99C40.3657 226.75 48.5792 210.038 48.6625 209.87L48.7032 209.789L71.3275 201.609L71.441 201.738C80.3633 228.821 85.8002 257.967 81.7858 301.691C81.7363 302.198 81.4843 302.67 81.0789 303.014C80.6735 303.359 80.1439 303.552 79.5933 303.555Z" fill="#2F2E41"/>
<path d="M47.7916 212.528L47.6862 212.323C47.6359 212.225 42.6052 202.41 38.7272 191.921C37.9819 189.893 37.7001 187.743 37.8998 185.609C38.0994 183.474 38.7761 181.401 39.887 179.522C41.0123 177.622 42.5518 175.96 44.408 174.64C46.2642 173.319 48.3966 172.37 50.6701 171.852C54.617 170.977 58.7724 171.442 62.3793 173.164C65.9861 174.885 68.8044 177.748 70.3206 181.23C73.3967 188.345 72.4164 195.94 71.4938 201.913L71.4754 202.032L71.3577 202.084L47.7916 212.528Z" fill="#3F3D56"/>
<path d="M66.9699 150.284H47.9069V142.598C52.091 141.061 56.1854 139.753 58.6604 142.598C60.8642 142.598 62.9777 143.408 64.5361 144.85C66.0944 146.291 66.9699 148.246 66.9699 150.284V150.284Z" fill="#2F2E41"/>
<path d="M46.8514 141.242C35.4552 141.242 32.2654 154.455 32.2654 161.909C32.2654 166.066 34.2979 167.553 37.4918 168.056L38.6197 162.492L41.2616 168.295C42.1587 168.3 43.1012 168.283 44.0783 168.267L44.9741 166.561L46.9715 168.236C54.9715 168.247 61.4373 169.326 61.4373 161.909C61.4373 154.455 58.6398 141.242 46.8514 141.242Z" fill="#2F2E41"/>
<path d="M101.865 159.332H79.5861C78.2811 159.331 77.0301 158.851 76.1073 157.997C75.1846 157.144 74.6655 155.986 74.6641 154.779V134.172C74.6655 132.965 75.1846 131.808 76.1073 130.955C77.0301 130.101 78.2811 129.621 79.5861 129.62H101.865C103.169 129.621 104.421 130.101 105.343 130.955C106.266 131.808 106.785 132.965 106.787 134.172V154.779C106.785 155.986 106.266 157.144 105.343 157.997C104.421 158.851 103.169 159.331 101.865 159.332Z" fill="white"/>
<path d="M101.865 159.332H79.5861C78.2811 159.331 77.0301 158.851 76.1073 157.997C75.1846 157.144 74.6655 155.986 74.6641 154.779V134.172C74.6655 132.965 75.1846 131.808 76.1073 130.955C77.0301 130.101 78.2811 129.621 79.5861 129.62H101.865C103.169 129.621 104.421 130.101 105.343 130.955C106.266 131.808 106.785 132.965 106.787 134.172V154.779C106.785 155.986 106.266 157.144 105.343 157.997C104.421 158.851 103.169 159.331 101.865 159.332ZM79.5861 130.578C78.5558 130.579 77.5681 130.958 76.8397 131.632C76.1112 132.306 75.7014 133.219 75.7003 134.172V154.779C75.7014 155.732 76.1112 156.646 76.8397 157.32C77.5681 157.994 78.5558 158.373 79.5861 158.374H101.865C102.895 158.373 103.882 157.994 104.611 157.32C105.339 156.646 105.749 155.732 105.75 154.779V134.172C105.749 133.219 105.339 132.306 104.611 131.632C103.882 130.958 102.895 130.579 101.865 130.578H79.5861Z" fill="#3F3D56"/>
<path d="M97.9788 150.946H83.4719C83.0598 150.945 82.6647 150.794 82.3733 150.524C82.082 150.255 81.9181 149.889 81.9176 149.508V139.444C81.9181 139.063 82.082 138.697 82.3733 138.428C82.6647 138.158 83.0598 138.007 83.4719 138.006H87.5558C87.8214 138.005 88.0828 138.068 88.3147 138.188C88.5466 138.308 88.7412 138.481 88.8796 138.69L90.0185 140.403H97.9788C98.3909 140.403 98.786 140.555 99.0774 140.824C99.3688 141.094 99.5327 141.459 99.5331 141.84V149.508C99.5327 149.889 99.3688 150.255 99.0774 150.524C98.786 150.794 98.3909 150.945 97.9788 150.946Z" fill="#127383"/>
<path d="M97.5069 156.03C97.5794 156.153 97.6463 156.279 97.7077 156.409C98.0144 157.049 98.1713 157.743 98.168 158.444C98.1647 159.145 98.0014 159.837 97.6886 160.475C97.3759 161.114 96.9209 161.684 96.3534 162.148C95.786 162.612 95.1188 162.961 94.3957 163.17C94.2274 163.218 94.0565 163.258 93.8837 163.289L83.9882 186.966C83.6611 187.74 83.073 188.395 82.3111 188.836C81.5492 189.276 80.6542 189.477 79.7588 189.409L79.7091 189.401L58.2613 183.429C57.6782 183.266 57.1356 182.998 56.665 182.641C56.1943 182.284 55.8048 181.843 55.5191 181.346C55.2334 180.849 55.057 180.304 55.0002 179.743C54.9434 179.182 55.0073 178.616 55.1882 178.078C55.3691 177.541 55.6634 177.041 56.0541 176.609C56.4448 176.177 56.9242 175.821 57.4646 175.561C58.005 175.301 58.5956 175.143 59.2024 175.096C59.8093 175.048 60.4202 175.113 61.0001 175.285L76.1755 179.791L87.9242 160.525C87.8204 160.325 87.7319 160.119 87.6594 159.907C87.2614 158.73 87.3507 157.458 87.91 156.337C88.4692 155.217 89.4586 154.329 90.6858 153.846C91.9131 153.363 93.2908 153.319 94.5513 153.722C95.8118 154.126 96.8652 154.948 97.5069 156.03H97.5069Z" fill="#A0616A"/>
</g>
<defs>
<clipPath id="clip0">
<rect width="454" height="317" fill="white"/>
</clipPath>
</defs>
</svg>
