<svg width="220" height="220" viewBox="0 0 778 614" fill="none" xmlns="http://www.w3.org/2000/svg">
<g clip-path="url(#clip0)">
<path d="M141.794 72.334C140.333 72.4953 138.925 72.975 137.669 73.7393C136.413 74.5036 135.34 75.5339 134.526 76.7578C133.712 77.9816 133.175 79.3691 132.955 80.8226C132.735 82.2761 132.836 83.7602 133.251 85.1704L104.177 105.947L121.507 112.616L146.46 91.864C148.783 91.0092 150.711 89.332 151.88 87.1503C153.049 84.9686 153.377 82.4339 152.802 80.0266C152.227 77.6193 150.788 75.5066 148.76 74.0888C146.731 72.671 144.253 72.0466 141.794 72.334L141.794 72.334Z" fill="#FFB8B8"/>
<path d="M139.09 103.628L103.026 139.916C98.0837 144.857 91.5664 147.91 84.6066 148.545L40.0432 152.611C38.4095 152.767 36.7611 152.594 35.1955 152.102C33.6299 151.61 32.1787 150.809 30.9278 149.747C29.1973 148.298 27.9104 146.391 27.2151 144.244C26.5197 142.097 26.4441 139.797 26.9969 137.609C27.5497 135.422 28.7085 133.434 30.3402 131.875C31.9719 130.316 34.0102 129.249 36.2211 128.796L81.7476 119.102L123.196 88.5492C123.772 88.225 124.423 88.0569 125.084 88.0619C125.746 88.0668 126.394 88.2445 126.965 88.5773L138.237 97.811C138.915 98.1827 139.46 98.7573 139.795 99.4543C140.13 100.151 140.238 100.936 140.105 101.697C139.973 102.43 139.619 103.105 139.09 103.628Z" fill="#127383"/>
<path d="M571.476 123.13C571.745 120.653 571.244 118.153 570.042 115.97C568.84 113.788 566.996 112.028 564.759 110.931L340.317 1.23368C338.89 0.535406 337.339 0.125086 335.753 0.0261597C334.167 -0.0727667 332.577 0.141629 331.074 0.657111C329.571 1.17259 328.185 1.97907 326.993 3.03048C325.802 4.08189 324.829 5.35764 324.131 6.78492L324.127 6.79334L239.947 179.027C238.542 181.912 238.338 185.236 239.381 188.271C240.423 191.306 242.626 193.804 245.507 195.217L469.948 304.914C472.833 306.319 476.158 306.523 479.192 305.48C482.227 304.438 484.725 302.235 486.138 299.354L570.318 127.121C570.933 125.868 571.325 124.517 571.476 123.13V123.13Z" fill="#103744"/>
<path d="M439.99 505.403H148.766C145.099 505.399 141.584 503.941 138.992 501.348C136.399 498.756 134.941 495.241 134.937 491.574V96.2246C134.941 92.5582 136.399 89.0431 138.992 86.4505C141.584 83.858 145.099 82.3996 148.766 82.3955H439.99C443.657 82.3996 447.172 83.858 449.764 86.4505C452.357 89.0431 453.815 92.5582 453.819 96.2246V491.574C453.815 495.241 452.357 498.756 449.764 501.348C447.172 503.941 443.657 505.399 439.99 505.403Z" fill="#2D765C"/>
<path d="M226.008 200.285C236.502 200.285 245.008 191.779 245.008 181.285C245.008 170.792 236.502 162.285 226.008 162.285C215.515 162.285 207.008 170.792 207.008 181.285C207.008 191.779 215.515 200.285 226.008 200.285Z" fill="#E6E6E6"/>
<path d="M197.05 233.214C199.735 234.741 202.544 236.035 205.449 237.085L205.962 237.263C211.812 239.317 217.968 240.362 224.168 240.355C225.416 240.355 226.618 240.312 227.74 240.227C230.473 240.059 233.188 239.685 235.863 239.106C237.332 238.786 238.795 238.402 240.212 237.967C240.554 237.866 240.871 237.767 241.218 237.658C246.99 235.787 252.413 232.977 257.27 229.34C256.881 228.603 256.454 227.886 255.991 227.191C253.494 223.376 250.085 220.243 246.072 218.077C242.059 215.91 237.569 214.779 233.008 214.785H223.008C217.734 214.786 212.571 216.303 208.134 219.155C203.697 222.008 200.174 226.075 197.983 230.873C197.633 231.637 197.321 232.419 197.05 233.214Z" fill="#E6E6E6"/>
<path d="M232.456 238.633C231.818 238.68 231.203 238.896 230.676 239.258C233.357 239.091 236.021 238.721 238.647 238.151L232.456 238.633Z" fill="#127383"/>
<path d="M227.16 129.725C214.923 129.726 203.029 133.767 193.323 141.22C183.617 148.673 176.644 159.122 173.484 170.944C170.325 182.766 171.156 195.301 175.849 206.602C180.542 217.903 188.835 227.339 199.44 233.445C202.255 235.075 205.21 236.451 208.27 237.555L208.79 237.735C214.693 239.807 220.904 240.862 227.16 240.855C228.37 240.855 229.58 240.815 230.77 240.725C233.525 240.556 236.262 240.178 238.96 239.595C240.47 239.265 241.95 238.875 243.35 238.445C243.69 238.345 244.01 238.245 244.36 238.135C256.937 234.039 267.64 225.59 274.546 214.309C281.451 203.027 284.106 189.652 282.034 176.589C279.961 163.525 273.297 151.629 263.238 143.038C253.18 134.448 240.387 129.728 227.16 129.725L227.16 129.725ZM259.4 226.915C254.606 230.614 249.211 233.459 243.45 235.325C243.14 235.425 242.82 235.525 242.5 235.625C241.17 236.035 239.77 236.395 238.33 236.705C235.778 237.262 233.187 237.623 230.58 237.785C229.45 237.865 228.3 237.905 227.16 237.905C221.239 237.909 215.359 236.911 209.77 234.955L209.28 234.785C206.237 233.691 203.303 232.312 200.52 230.665C190.826 224.958 183.218 216.291 178.814 205.94C174.41 195.588 173.442 184.097 176.053 173.154C178.664 162.212 184.716 152.395 193.32 145.148C201.924 137.9 212.625 133.603 223.852 132.888C235.079 132.172 246.239 135.077 255.693 141.175C265.146 147.273 272.395 156.242 276.373 166.765C280.351 177.288 280.849 188.809 277.794 199.636C274.739 210.463 268.292 220.024 259.4 226.915V226.915Z" fill="#CCCCCC"/>
<path d="M439.99 505.403H148.766C145.099 505.399 141.584 503.941 138.992 501.348C136.399 498.756 134.941 495.241 134.937 491.574V96.2246C134.941 92.5582 136.399 89.0431 138.992 86.4505C141.584 83.858 145.099 82.3996 148.766 82.3955H439.99C443.657 82.3996 447.172 83.858 449.764 86.4505C452.357 89.0431 453.815 92.5582 453.819 96.2246V491.574C453.815 495.241 452.357 498.756 449.764 501.348C447.172 503.941 443.657 505.399 439.99 505.403ZM148.766 84.0224C145.531 84.0261 142.429 85.3129 140.142 87.6004C137.854 89.888 136.567 92.9895 136.564 96.2246V491.574C136.567 494.809 137.854 497.911 140.142 500.198C142.429 502.486 145.531 503.773 148.766 503.776H439.99C443.225 503.773 446.327 502.486 448.614 500.198C450.902 497.911 452.189 494.809 452.192 491.574V96.2246C452.189 92.9895 450.902 89.888 448.614 87.6004C446.327 85.3129 443.225 84.0261 439.99 84.0225L148.766 84.0224Z" fill="#CCCCCC"/>
<path d="M383.613 185.076H301.206C299.477 185.076 297.819 184.389 296.596 183.166C295.374 181.944 294.687 180.285 294.687 178.556C294.687 176.827 295.374 175.169 296.596 173.947C297.819 172.724 299.477 172.037 301.206 172.037H383.613C385.342 172.037 387 172.724 388.222 173.947C389.445 175.169 390.132 176.827 390.132 178.556C390.132 180.285 389.445 181.944 388.222 183.166C387 184.389 385.342 185.076 383.613 185.076V185.076Z" fill="#E6E6E6"/>
<path d="M410.505 207.078H301.206C299.477 207.078 297.819 206.392 296.596 205.169C295.374 203.946 294.687 202.288 294.687 200.559C294.687 198.83 295.374 197.172 296.596 195.949C297.819 194.727 299.477 194.04 301.206 194.04H410.505C412.234 194.04 413.892 194.727 415.115 195.949C416.337 197.172 417.024 198.83 417.024 200.559C417.024 202.288 416.337 203.946 415.115 205.169C413.892 206.392 412.234 207.078 410.505 207.078V207.078Z" fill="#E6E6E6"/>
<path d="M383.493 291.468H178.251C176.522 291.468 174.864 290.781 173.641 289.558C172.419 288.335 171.732 286.677 171.732 284.948C171.732 283.219 172.419 281.561 173.641 280.338C174.864 279.116 176.522 278.429 178.251 278.429H383.493C385.222 278.429 386.88 279.116 388.102 280.338C389.325 281.561 390.012 283.219 390.012 284.948C390.012 286.677 389.325 288.335 388.102 289.558C386.88 290.781 385.222 291.468 383.493 291.468V291.468Z" fill="#E6E6E6"/>
<path d="M410.385 313.47H178.251C176.522 313.47 174.864 312.783 173.641 311.561C172.419 310.338 171.732 308.68 171.732 306.951C171.732 305.222 172.419 303.563 173.641 302.341C174.864 301.118 176.522 300.431 178.251 300.431H410.385C412.114 300.431 413.772 301.118 414.995 302.341C416.217 303.563 416.904 305.222 416.904 306.951C416.904 308.68 416.217 310.338 414.995 311.561C413.772 312.783 412.114 313.47 410.385 313.47V313.47Z" fill="#E6E6E6"/>
<path d="M383.493 364.041H178.251C176.522 364.041 174.864 363.354 173.641 362.131C172.419 360.908 171.732 359.25 171.732 357.521C171.732 355.792 172.419 354.134 173.641 352.911C174.864 351.689 176.522 351.002 178.251 351.002H383.493C385.222 351.002 386.88 351.689 388.102 352.911C389.325 354.134 390.012 355.792 390.012 357.521C390.012 359.25 389.325 360.908 388.102 362.131C386.88 363.354 385.222 364.041 383.493 364.041Z" fill="#E6E6E6"/>
<path d="M410.385 386.043H178.251C176.522 386.043 174.864 385.356 173.641 384.134C172.419 382.911 171.732 381.253 171.732 379.524C171.732 377.795 172.419 376.136 173.641 374.914C174.864 373.691 176.522 373.004 178.251 373.004H410.385C412.114 373.004 413.772 373.691 414.995 374.914C416.217 376.136 416.904 377.795 416.904 379.524C416.904 381.253 416.217 382.911 414.995 384.134C413.772 385.356 412.114 386.043 410.385 386.043V386.043Z" fill="#E6E6E6"/>
<path d="M383.493 436.614H178.251C176.522 436.614 174.864 435.927 173.641 434.704C172.419 433.481 171.732 431.823 171.732 430.094C171.732 428.365 172.419 426.707 173.641 425.484C174.864 424.262 176.522 423.575 178.251 423.575H383.493C385.222 423.575 386.88 424.262 388.102 425.484C389.325 426.707 390.012 428.365 390.012 430.094C390.012 431.823 389.325 433.481 388.102 434.704C386.88 435.927 385.222 436.614 383.493 436.614Z" fill="#E6E6E6"/>
<path d="M410.385 458.616H178.251C176.522 458.616 174.864 457.929 173.641 456.707C172.419 455.484 171.732 453.826 171.732 452.097C171.732 450.368 172.419 448.71 173.641 447.487C174.864 446.264 176.522 445.578 178.251 445.578H410.385C412.112 445.58 413.769 446.268 414.989 447.49C416.21 448.712 416.896 450.369 416.896 452.097C416.896 453.825 416.21 455.482 414.989 456.704C413.769 457.926 412.112 458.614 410.385 458.616V458.616Z" fill="#E6E6E6"/>
<path d="M561.476 236.13C561.745 233.653 561.244 231.153 560.042 228.97C558.84 226.788 556.996 225.028 554.759 223.931L330.317 114.234C328.89 113.535 327.339 113.125 325.753 113.026C324.167 112.927 322.577 113.142 321.074 113.657C319.571 114.173 318.185 114.979 316.993 116.03C315.802 117.082 314.829 118.358 314.131 119.785L314.127 119.793L229.947 292.027C228.542 294.912 228.338 298.236 229.381 301.271C230.423 304.306 232.626 306.804 235.507 308.217L459.948 417.914C462.833 419.319 466.158 419.523 469.192 418.48C472.227 417.438 474.725 415.235 476.138 412.354L560.318 240.121C560.933 238.868 561.325 237.517 561.476 236.13Z" fill="#0C0B0B"/>
<path d="M561.476 236.13C561.745 233.653 561.244 231.153 560.042 228.97C558.84 226.788 556.996 225.028 554.759 223.931L330.317 114.234C328.89 113.535 327.339 113.125 325.753 113.026C324.167 112.927 322.577 113.142 321.074 113.657C319.571 114.173 318.185 114.979 316.993 116.03C315.802 117.082 314.829 118.358 314.131 119.785L314.127 119.793L229.947 292.027C228.542 294.912 228.338 298.236 229.381 301.271C230.423 304.306 232.626 306.804 235.507 308.217L459.948 417.914C462.833 419.319 466.158 419.523 469.192 418.48C472.227 417.438 474.725 415.235 476.138 412.354L560.318 240.121C560.933 238.868 561.325 237.517 561.476 236.13V236.13ZM474.859 411.729C473.612 414.271 471.408 416.216 468.73 417.135C466.052 418.055 463.119 417.875 460.574 416.635L236.132 306.937C233.59 305.691 231.645 303.487 230.726 300.809C229.806 298.131 229.986 295.198 231.226 292.652L315.407 120.419C316.653 117.876 318.857 115.932 321.535 115.012C324.213 114.093 327.146 114.273 329.692 115.513L554.133 225.21C556.676 226.457 558.62 228.661 559.54 231.339C560.459 234.017 560.279 236.95 559.039 239.495L474.859 411.729Z" fill="#2C455C"/>
<path d="M536.996 243.961L478.216 364.227C477.824 365.03 477.129 365.644 476.284 365.934C475.439 366.225 474.513 366.168 473.71 365.776H473.71L269.55 265.991C269.404 265.922 269.265 265.839 269.133 265.746C268.463 265.29 267.98 264.608 267.773 263.825C267.565 263.043 267.647 262.211 268.002 261.484L326.783 141.218C326.977 140.821 327.247 140.465 327.579 140.172C327.91 139.879 328.296 139.654 328.715 139.511C329.133 139.367 329.576 139.307 330.017 139.334C330.459 139.361 330.891 139.475 331.288 139.669V139.669L535.448 239.454C536.251 239.846 536.865 240.541 537.156 241.386C537.446 242.231 537.389 243.156 536.997 243.959V243.959L536.996 243.961Z" fill="#545454"/>
<path d="M357.759 237.854C374.088 237.854 387.325 224.616 387.325 208.287C387.325 191.958 374.088 178.72 357.759 178.72C341.429 178.72 328.192 191.958 328.192 208.287C328.192 224.616 341.429 237.854 357.759 237.854Z" fill="#6C63FF"/>
<path d="M401.05 330.86L270.737 267.169C270.573 267.091 270.416 266.998 270.269 266.892L384.078 190.259C384.779 189.778 385.596 189.492 386.444 189.43C387.292 189.367 388.141 189.531 388.905 189.905C389.669 190.278 390.32 190.847 390.792 191.555C391.263 192.262 391.539 193.082 391.59 193.931L397.938 285.788L398.244 290.185L401.05 330.86Z" fill="#3F3D56"/>
<path opacity="0.2" d="M401.05 330.86L356.558 309.114L393.905 288.064L396.594 286.548L397.938 285.789L398.244 290.185L401.05 330.86Z" fill="black"/>
<path d="M473.607 366.323L360.897 311.235L398.244 290.185L400.933 288.668L449.6 261.235C452.791 259.437 457.362 261.462 458.399 264.902C458.467 265.135 458.52 265.373 458.559 265.613L473.607 366.323Z" fill="#3F3D56"/>
<path d="M125.844 376.82L138.103 376.819L143.936 329.531L125.841 329.532L125.844 376.82Z" fill="#FFB8B8"/>
<path d="M122.716 372.817L146.86 372.816H146.861C148.882 372.816 150.882 373.214 152.749 373.987C154.616 374.761 156.312 375.894 157.741 377.323C159.17 378.752 160.303 380.448 161.076 382.314C161.85 384.181 162.248 386.182 162.248 388.203V388.703L122.717 388.704L122.716 372.817Z" fill="#127383"/>
<path d="M30.551 369.014L43.253 371.498L58.881 323.688L40.135 320.021L30.551 369.014Z" fill="#FFB8B8"/>
<path d="M28.1228 364.233L53.1371 369.126L53.1381 369.126C55.2315 369.536 57.2238 370.354 59.0012 371.533C60.7785 372.713 62.3061 374.231 63.4968 376C64.6875 377.77 65.5178 379.757 65.9406 381.848C66.3633 383.939 66.37 386.093 65.9604 388.186L65.859 388.704L24.9032 380.692L28.1228 364.233Z" fill="#127383"/>
<path d="M143.68 213.699C143.265 212.288 142.546 210.986 141.573 209.884C140.6 208.782 139.398 207.906 138.05 207.319C136.702 206.732 135.242 206.447 133.773 206.485C132.303 206.524 130.86 206.883 129.544 207.54L103.99 182.561L100.464 200.792L125.271 221.718C126.52 223.855 128.51 225.459 130.863 226.227C133.216 226.995 135.769 226.873 138.038 225.885C140.307 224.896 142.134 223.11 143.174 220.864C144.214 218.618 144.394 216.068 143.68 213.699V213.699Z" fill="#FFB8B8"/>
<path d="M48.871 85.1269C62.4356 85.1269 73.432 74.1306 73.432 60.5659C73.432 47.0012 62.4356 36.0049 48.871 36.0049C35.3063 36.0049 24.3099 47.0012 24.3099 60.5659C24.3099 74.1306 35.3063 85.1269 48.871 85.1269Z" fill="#FFB8B8"/>
<path d="M43.7135 85.5029C45.0184 86.0739 47.6908 75.6755 46.4937 73.5958C44.7135 70.5028 44.8187 70.5251 43.6369 68.4788C42.4551 66.4325 42.1907 63.6317 43.7211 61.8312C45.2515 60.0307 48.793 60.2695 49.4915 62.527C49.0422 58.2392 53.2834 54.7924 57.4845 53.8239C61.6856 52.8553 66.1169 53.4566 70.3412 52.5947C75.2436 51.5944 80.3443 47.485 78.3884 42.094C78.0527 41.1964 77.5502 40.3705 76.9073 39.6599C74.6474 37.119 71.4861 36.034 68.3953 34.9849C61.9652 32.8025 55.3593 30.5926 48.5732 30.8335C42.9818 31.1259 37.5969 33.0418 33.0775 36.347C28.5581 39.6521 25.1002 44.203 23.1269 49.4427C22.6593 50.7536 22.297 52.0996 22.0435 53.4681C19.7142 65.9923 26.9872 78.346 38.7997 83.1152L43.7135 85.5029Z" fill="#121313"/>
<path d="M37.6831 220.427C37.0566 220.048 36.5546 219.494 36.2387 218.834C35.9229 218.174 35.807 217.435 35.9052 216.71L24.8222 161.809L13.5879 119.674H13.5881C12.3547 115.057 12.7272 110.158 14.6444 105.78C16.5617 101.403 19.9097 97.8073 24.1394 95.583L31.5664 88.5557L47.7687 95.5361L55.4678 103.364C60.9898 106.053 65.8882 109.867 69.8481 114.562C73.808 119.257 76.7418 124.729 78.4609 130.625L90.8093 172.88L119.327 215.307C119.803 216.014 120.025 216.861 119.958 217.711C119.891 218.561 119.538 219.363 118.957 219.986C114.99 224.254 37.6831 220.427 37.6831 220.427Z" fill="#127383"/>
<path d="M112.397 216.526L70.3457 187.387C64.6144 183.388 60.4651 177.507 58.6189 170.767L46.7989 127.608C46.3588 126.026 46.2402 124.373 46.45 122.746C46.6597 121.118 47.1936 119.549 48.02 118.131C49.1425 116.173 50.7944 114.572 52.7861 113.51C54.7777 112.449 57.0284 111.971 59.2794 112.132C61.5304 112.292 63.6906 113.085 65.5116 114.417C67.3327 115.75 68.7408 117.57 69.5742 119.667L87.1038 162.787L124.454 198.233C124.874 198.744 125.154 199.355 125.265 200.007C125.376 200.659 125.315 201.328 125.087 201.949L117.974 214.666C117.727 215.399 117.257 216.036 116.63 216.488C116.002 216.94 115.249 217.184 114.476 217.187C113.731 217.186 113.005 216.955 112.397 216.526V216.526Z" fill="#127383"/>
<path d="M25.0364 361.695C24.6927 361.203 24.4725 360.634 24.3946 360.039C24.3167 359.443 24.3834 358.837 24.5889 358.272L44.0425 287.553L45.4806 218.258L110.967 213.767L111.285 213.745L131.009 249.494C137.184 260.671 140.965 273.011 142.109 285.729L148.609 356.959C148.707 357.927 148.422 358.895 147.814 359.655C147.206 360.415 146.325 360.906 145.358 361.023L125.613 362.901C124.662 363.017 123.703 362.757 122.941 362.175C122.179 361.594 121.674 360.738 121.534 359.79L113.516 287.407L84.6663 238.662L74.9823 289.98L54.9195 360.85C54.6571 361.557 54.1858 362.168 53.5682 362.601C52.9505 363.034 52.2157 363.27 51.4612 363.275L28.061 363.285C27.4653 363.288 26.8779 363.144 26.3505 362.867C25.8232 362.59 25.3719 362.188 25.0364 361.695V361.695Z" fill="#2F2E41"/>
<path d="M526.465 594.285H33C24.2509 594.275 15.863 590.795 9.67639 584.609C3.48983 578.422 0.00988299 570.034 0 561.285V290.285C0.00988299 281.536 3.48983 273.148 9.67639 266.962C15.863 260.775 24.2509 257.295 33 257.285H93.5027C101.712 257.278 109.628 260.338 115.698 265.865L181.309 312.716C185.587 316.625 191.173 318.79 196.968 318.785H529.529C533.903 318.785 538.233 319.655 542.268 321.344C546.304 323.032 549.963 325.506 553.033 328.622C556.103 331.737 558.524 335.432 560.153 339.492C561.783 343.551 562.589 347.894 562.525 352.268L559.461 561.768C559.299 570.424 555.756 578.673 549.589 584.75C543.422 590.827 535.122 594.25 526.465 594.285V594.285Z" fill="#323232"/>
<path d="M522.081 578.285H35.9194C31.6988 578.28 27.6524 576.602 24.668 573.617C21.6835 570.633 20.0048 566.586 20 562.366V286.935C20.0048 282.714 21.6835 278.668 24.668 275.683C27.6524 272.699 31.6988 271.02 35.9194 271.015C39.6525 271.019 43.2316 272.504 45.8713 275.144C48.511 277.784 49.9958 281.363 50 285.096V543.366C50.0045 547.321 51.5778 551.113 54.3748 553.91C57.1717 556.707 60.9639 558.281 64.9194 558.285H520.439C522.702 558.26 524.908 558.993 526.705 560.369C528.502 561.744 529.787 563.682 530.354 565.873C530.989 567.95 530.91 570.18 530.13 572.208C529.349 574.235 527.912 575.942 526.047 577.057C524.865 577.827 523.491 578.252 522.081 578.285V578.285Z" fill="#595959"/>
<path d="M283.424 446.013L282.144 444.733C281.879 444.484 281.723 444.141 281.711 443.778C281.7 443.414 281.832 443.061 282.081 442.796C282.101 442.774 282.122 442.753 282.144 442.733L293.374 431.493C293.497 431.361 293.645 431.255 293.809 431.181C293.973 431.107 294.149 431.066 294.329 431.06C294.509 431.054 294.688 431.083 294.857 431.147C295.025 431.21 295.179 431.306 295.311 431.429C295.333 431.45 295.354 431.471 295.374 431.493L306.604 442.723C306.736 442.849 306.841 443.001 306.913 443.168C306.986 443.336 307.025 443.516 307.029 443.698C307.032 443.881 306.999 444.062 306.932 444.232C306.865 444.402 306.766 444.557 306.639 444.688L306.604 444.723L305.324 446.003C305.197 446.134 305.046 446.239 304.879 446.312C304.711 446.385 304.531 446.424 304.349 446.427C304.166 446.43 303.985 446.397 303.815 446.331C303.645 446.264 303.49 446.164 303.359 446.037L303.324 446.003L296.684 439.003V455.613C296.686 455.794 296.651 455.974 296.583 456.141C296.515 456.309 296.414 456.462 296.287 456.591C296.16 456.72 296.009 456.823 295.842 456.894C295.675 456.964 295.496 457.001 295.314 457.003L295.304 457.003H293.454C293.086 457.003 292.732 456.856 292.471 456.596C292.211 456.335 292.064 455.981 292.064 455.613V455.613V439.023L285.424 446.023C285.167 446.287 284.815 446.438 284.447 446.442C284.078 446.447 283.723 446.305 283.459 446.047L283.424 446.013Z" fill="#6C63FF"/>
<path d="M294.354 421.283C298.862 421.283 303.268 422.619 307.016 425.124C310.764 427.628 313.685 431.187 315.41 435.351C317.134 439.516 317.586 444.098 316.706 448.519C315.827 452.94 313.657 457 310.469 460.188C307.282 463.375 303.221 465.545 298.8 466.425C294.38 467.304 289.797 466.853 285.633 465.128C281.469 463.403 277.909 460.482 275.405 456.734C272.901 452.986 271.564 448.58 271.564 444.073C271.57 438.03 273.972 432.236 278.245 427.964C282.518 423.691 288.312 421.288 294.354 421.283ZM294.354 418.283C289.254 418.283 284.267 419.795 280.026 422.629C275.785 425.463 272.479 429.491 270.527 434.203C268.575 438.916 268.065 444.101 269.06 449.104C270.055 454.107 272.511 458.702 276.118 462.309C279.725 465.916 284.32 468.372 289.323 469.367C294.326 470.362 299.511 469.852 304.224 467.9C308.936 465.948 312.964 462.642 315.798 458.401C318.632 454.16 320.144 449.173 320.144 444.073V444.073C320.144 437.233 317.427 430.673 312.591 425.836C307.754 421 301.194 418.283 294.354 418.283V418.283Z" fill="#3F3D56"/>
<path d="M526.465 594.285H33C24.2509 594.275 15.863 590.795 9.67639 584.609C3.48983 578.422 0.00988299 570.034 0 561.285V290.285C0.00988299 281.536 3.48983 273.148 9.67639 266.962C15.863 260.775 24.2509 257.295 33 257.285H93.5027C101.712 257.278 109.628 260.338 115.698 265.865L181.309 312.716C185.587 316.625 191.173 318.79 196.968 318.785H529.529C533.903 318.785 538.233 319.655 542.268 321.344C546.304 323.032 549.963 325.506 553.033 328.622C556.103 331.737 558.524 335.432 560.153 339.492C561.783 343.551 562.589 347.894 562.525 352.268L559.461 561.768C559.299 570.424 555.756 578.673 549.589 584.75C543.422 590.827 535.122 594.25 526.465 594.285V594.285ZM33 259.285C24.7812 259.295 16.9016 262.564 11.09 268.375C5.27841 274.187 2.00934 282.066 2 290.285V561.285C2.00934 569.504 5.27841 577.384 11.09 583.195C16.9016 589.007 24.7812 592.276 33 592.285H526.465C534.598 592.252 542.395 589.037 548.188 583.328C553.98 577.619 557.309 569.87 557.461 561.738L560.525 352.238C560.585 348.13 559.828 344.05 558.297 340.237C556.767 336.423 554.493 332.952 551.609 330.026C548.724 327.099 545.287 324.775 541.496 323.188C537.706 321.602 533.638 320.785 529.529 320.785H196.968C190.695 320.79 184.647 318.454 180.006 314.234L114.395 267.383C108.687 262.168 101.234 259.279 93.5027 259.285H33Z" fill="#3F3D56"/>
<path d="M568.285 599.561H556.025L552.193 552.273L568.287 552.274L568.285 599.561Z" fill="#FFB8B8"/>
<path d="M571.411 611.446L531.881 611.444V610.944C531.881 608.924 532.279 606.923 533.052 605.056C533.825 603.189 534.959 601.493 536.387 600.064C537.816 598.636 539.512 597.502 541.379 596.729C543.246 595.956 545.247 595.558 547.267 595.558H547.268L571.412 595.559L571.411 611.446Z" fill="#127383"/>
<path d="M705.285 599.561H693.025L687.193 552.273L705.287 552.274L705.285 599.561Z" fill="#FFB8B8"/>
<path d="M708.411 611.446L668.881 611.444V610.944C668.881 608.924 669.279 606.923 670.052 605.056C670.825 603.189 671.959 601.493 673.387 600.064C674.816 598.636 676.512 597.502 678.379 596.729C680.246 595.956 682.247 595.558 684.267 595.558H684.268L708.412 595.559L708.411 611.446Z" fill="#127383"/>
<path d="M664.974 453.376C666.666 451.392 667.62 448.884 667.673 446.277C667.726 443.67 666.875 441.125 665.265 439.074C664.939 438.682 664.581 438.317 664.194 437.983L673.428 403.891L658.038 408.997L651.629 440.588C650.565 442.536 650.094 444.753 650.275 446.965C650.456 449.177 651.28 451.288 652.646 453.038C653.36 453.982 654.278 454.754 655.331 455.296C656.384 455.837 657.545 456.136 658.729 456.168C659.912 456.2 661.088 455.966 662.169 455.483C663.25 455 664.209 454.279 664.974 453.376Z" fill="#FFB8B8"/>
<path d="M664.381 432.404C664.188 432.404 663.996 432.39 663.805 432.361L655.785 431.152C655.161 431.044 654.568 430.802 654.048 430.441C653.528 430.081 653.092 429.611 652.773 429.064C652.078 427.901 651.828 426.525 652.07 425.192L662.075 369.31L655.289 333.409C653.981 326.499 657.356 319.521 663.14 317.177C664.856 316.475 666.725 316.23 668.564 316.465C670.403 316.701 672.15 317.409 673.633 318.521C675.234 319.733 676.561 321.269 677.53 323.027C678.498 324.786 679.086 326.729 679.255 328.729L684.057 374.506L684 374.705L668.543 428.953C668.321 429.904 667.793 430.755 667.042 431.378C666.291 432.001 665.356 432.361 664.381 432.404Z" fill="#6C63FF"/>
<path d="M662.013 297.392C675.578 297.392 686.574 286.396 686.574 272.831C686.574 259.266 675.578 248.27 662.013 248.27C648.449 248.27 637.452 259.266 637.452 272.831C637.452 286.396 648.449 297.392 662.013 297.392Z" fill="#FFB8B8"/>
<path d="M649.438 387.001C648.826 387.001 648.22 386.889 647.649 386.668L608.828 371.737C607.778 371.336 606.893 370.591 606.319 369.624C605.745 368.657 605.515 367.524 605.667 366.409L607.226 354.716C606.301 350.571 606.386 346.264 607.474 342.159C608.562 338.053 610.62 334.27 613.476 331.126L614.421 330.086L625.907 309.142C626.685 307.723 627.736 306.472 629 305.462C630.264 304.451 631.715 303.7 633.271 303.253C634.826 302.807 636.454 302.672 638.062 302.857C639.67 303.043 641.225 303.545 642.637 304.334L662.92 315.668C665.589 317.158 667.605 319.593 668.57 322.494C671.299 330.706 671.097 339.61 667.997 347.69L654.11 383.796C653.743 384.738 653.101 385.547 652.268 386.118C651.435 386.69 650.449 386.998 649.438 387.001V387.001Z" fill="#6C63FF"/>
<path d="M547.7 587.951L547.647 587.94C546.985 587.813 546.356 587.553 545.797 587.176C545.238 586.799 544.761 586.313 544.395 585.747C544.028 585.181 543.78 584.547 543.665 583.882C543.55 583.218 543.571 582.537 543.726 581.881L573.474 451.841C578.345 431.227 585.073 411.096 593.576 391.695L606.233 362.839L653.459 384.399L660.202 396.731C665.459 410.467 668.163 425.047 668.178 439.754L716.165 580.386C716.399 581.072 716.481 581.802 716.405 582.523C716.329 583.245 716.097 583.941 715.725 584.564C715.353 585.187 714.85 585.721 714.251 586.13C713.652 586.539 712.971 586.813 712.255 586.932L685.986 586.635C685.738 586.68 685.487 586.701 685.235 586.699C684.239 586.7 683.266 586.401 682.442 585.842C681.618 585.283 680.981 584.49 680.614 583.564L625.759 441.378C625.681 441.189 625.547 441.029 625.375 440.918C625.203 440.807 625.002 440.752 624.797 440.758C624.598 440.762 624.404 440.826 624.242 440.944C624.08 441.061 623.959 441.226 623.895 441.415L571.847 584.309C571.448 585.42 570.667 586.353 569.643 586.941C568.619 587.529 567.42 587.734 566.259 587.519L547.7 587.951Z" fill="#2F2E41"/>
<path d="M583.614 428.035C584.999 427.542 586.259 426.752 587.306 425.719C588.352 424.687 589.16 423.438 589.671 422.06C590.183 420.681 590.386 419.208 590.266 417.742C590.147 416.277 589.707 414.856 588.979 413.579L612.502 386.678L594.103 384.169L574.586 410.099C572.521 411.465 571.03 413.54 570.393 415.932C569.757 418.324 570.02 420.866 571.133 423.077C572.246 425.288 574.131 427.014 576.432 427.927C578.732 428.841 581.287 428.879 583.614 428.035V428.035Z" fill="#FFB8B8"/>
<path d="M594.702 409.085C593.884 409.084 593.078 408.883 592.355 408.499L584.077 404.084C583.47 403.76 582.936 403.314 582.509 402.774C582.082 402.234 581.771 401.611 581.595 400.946C581.42 400.28 581.384 399.585 581.489 398.905C581.595 398.225 581.839 397.574 582.208 396.992L612.783 348.815L618.084 312.459C618.358 310.58 619.011 308.776 620.003 307.156C620.994 305.537 622.304 304.135 623.853 303.037C625.402 301.938 627.158 301.166 629.014 300.766C630.87 300.365 632.789 300.346 634.653 300.709C636.517 301.072 638.288 301.809 639.858 302.876C641.429 303.943 642.767 305.318 643.791 306.917C644.815 308.516 645.504 310.307 645.816 312.18C646.127 314.053 646.056 315.97 645.606 317.815L634.66 362.626L598.596 407.23C598.128 407.811 597.534 408.279 596.86 408.6C596.186 408.921 595.449 409.087 594.702 409.085V409.085Z" fill="#6C63FF"/>
<path d="M639.906 252.566C642.747 243.25 659.16 239.093 672.804 242.959C686.447 246.824 696.248 256.959 698.529 266.867C703.582 288.81 677.229 306.618 682.004 328.563C685.164 343.082 703.44 356.809 724.025 360.124C701.34 364.87 673.651 360.699 652.615 349.365C639.522 342.311 628.538 331.666 628.704 320.93C628.804 314.429 632.939 308.68 637.997 303.714C643.054 298.747 649.108 294.332 653.749 289.149C658.39 283.965 661.606 277.758 660.251 271.177C658.897 264.596 652.016 257.733 642.757 255.819L639.906 252.566Z" fill="#202829"/>
<path d="M776.697 613.285H395.697C395.432 613.285 395.177 613.18 394.99 612.992C394.802 612.805 394.697 612.55 394.697 612.285C394.697 612.02 394.802 611.766 394.99 611.578C395.177 611.391 395.432 611.285 395.697 611.285H776.697C776.962 611.285 777.216 611.391 777.404 611.578C777.592 611.766 777.697 612.02 777.697 612.285C777.697 612.55 777.592 612.805 777.404 612.992C777.216 613.18 776.962 613.285 776.697 613.285Z" fill="#CCCCCC"/>
</g>
<defs>
<clipPath id="clip0">
<rect width="777.697" height="613.285" fill="white"/>
</clipPath>
</defs>
</svg>
