<svg width="800" height="210" viewBox="0 0 800 280" fill="none" xmlns="http://www.w3.org/2000/svg">
<g clip-path="url(#clip0)">
<path d="M679.476 68.4905H670.819C670.378 68.49 669.955 68.3064 669.643 67.9801C669.33 67.6538 669.155 67.2114 669.154 66.7499V57.6988C669.155 57.2374 669.33 56.795 669.643 56.4686C669.955 56.1423 670.378 55.9588 670.819 55.9583H679.476C679.918 55.9588 680.341 56.1423 680.653 56.4686C680.965 56.795 681.141 57.2374 681.141 57.6988V66.7499C681.141 67.2114 680.965 67.6538 680.653 67.9801C680.341 68.3064 679.918 68.49 679.476 68.4905ZM670.819 56.6545C670.554 56.6548 670.301 56.7649 670.113 56.9607C669.926 57.1565 669.821 57.422 669.82 57.6988V66.7499C669.821 67.0268 669.926 67.2923 670.113 67.4881C670.301 67.6838 670.554 67.794 670.819 67.7943H679.476C679.741 67.794 679.995 67.6838 680.182 67.4881C680.37 67.2923 680.475 67.0268 680.475 66.7499V57.6988C680.475 57.422 680.37 57.1565 680.182 56.9607C679.995 56.7649 679.741 56.6548 679.476 56.6545H670.819Z" fill="#E6E6E6"/>
<path d="M578.588 14.5323H569.931C569.49 14.5317 569.067 14.3482 568.755 14.0219C568.443 13.6956 568.267 13.2531 568.266 12.7917V3.74059C568.267 3.27912 568.443 2.8367 568.755 2.51039C569.067 2.18408 569.49 2.00053 569.931 2H578.588C579.03 2.00053 579.453 2.18408 579.765 2.51039C580.077 2.8367 580.253 3.27912 580.253 3.74059V12.7917C580.253 13.2531 580.077 13.6956 579.765 14.0219C579.453 14.3482 579.03 14.5317 578.588 14.5323ZM569.931 2.69624C569.666 2.69654 569.413 2.80667 569.225 3.00245C569.038 3.19824 568.933 3.4637 568.932 3.74059V12.7917C568.933 13.0686 569.038 13.334 569.225 13.5298C569.413 13.7256 569.666 13.8357 569.931 13.836H578.588C578.853 13.8357 579.107 13.7256 579.294 13.5298C579.482 13.334 579.587 13.0686 579.587 12.7917V3.74059C579.587 3.4637 579.482 3.19824 579.294 3.00245C579.107 2.80667 578.853 2.69654 578.588 2.69624H569.931Z" fill="#E6E6E6"/>
<path d="M674.149 63.9651H665.492C665.05 63.9646 664.627 63.781 664.315 63.4547C664.003 63.1284 663.828 62.686 663.827 62.2245V53.1735C663.828 52.712 664.003 52.2696 664.315 51.9433C664.627 51.6169 665.05 51.4334 665.492 51.4329H674.149C674.59 51.4334 675.013 51.6169 675.326 51.9433C675.638 52.2696 675.813 52.712 675.814 53.1735V62.2245C675.813 62.686 675.638 63.1284 675.326 63.4547C675.013 63.781 674.59 63.9646 674.149 63.9651ZM665.492 52.1291C665.227 52.1294 664.973 52.2395 664.786 52.4353C664.599 52.6311 664.493 52.8966 664.493 53.1735V62.2245C664.493 62.5014 664.599 62.7669 664.786 62.9627C664.973 63.1584 665.227 63.2686 665.492 63.2689H674.149C674.414 63.2686 674.668 63.1584 674.855 62.9627C675.042 62.7669 675.147 62.5014 675.148 62.2245V53.1735C675.147 52.8966 675.042 52.6311 674.855 52.4353C674.668 52.2395 674.414 52.1294 674.149 52.1291H665.492Z" fill="#E6E6E6"/>
<path d="M523.649 139.507H514.992C514.551 139.506 514.128 139.323 513.816 138.996C513.503 138.67 513.328 138.228 513.327 137.766V128.715C513.328 128.253 513.503 127.811 513.816 127.485C514.128 127.158 514.551 126.975 514.992 126.974H523.649C524.091 126.975 524.514 127.158 524.826 127.485C525.138 127.811 525.314 128.253 525.314 128.715V137.766C525.314 138.228 525.138 138.67 524.826 138.996C524.514 139.323 524.091 139.506 523.649 139.507ZM514.992 127.671C514.727 127.671 514.474 127.781 514.286 127.977C514.099 128.173 513.994 128.438 513.993 128.715V137.766C513.994 138.043 514.099 138.308 514.286 138.504C514.474 138.7 514.727 138.81 514.992 138.81H523.649C523.914 138.81 524.168 138.7 524.355 138.504C524.543 138.308 524.648 138.043 524.648 137.766V128.715C524.648 128.438 524.543 128.173 524.355 127.977C524.168 127.781 523.914 127.671 523.649 127.671H514.992Z" fill="#E6E6E6"/>
<path d="M518.322 134.981H509.665C509.223 134.981 508.8 134.797 508.488 134.471C508.176 134.145 508.001 133.702 508 133.241V124.19C508.001 123.728 508.176 123.286 508.488 122.959C508.8 122.633 509.223 122.45 509.665 122.449H518.322C518.763 122.45 519.186 122.633 519.499 122.959C519.811 123.286 519.986 123.728 519.987 124.19V133.241C519.986 133.702 519.811 134.145 519.499 134.471C519.186 134.797 518.763 134.981 518.322 134.981ZM509.665 123.145C509.4 123.146 509.146 123.256 508.959 123.451C508.772 123.647 508.666 123.913 508.666 124.19V133.241C508.666 133.518 508.772 133.783 508.959 133.979C509.146 134.175 509.4 134.285 509.665 134.285H518.322C518.587 134.285 518.841 134.175 519.028 133.979C519.215 133.783 519.32 133.518 519.321 133.241V124.19C519.32 123.913 519.215 123.647 519.028 123.451C518.841 123.256 518.587 123.146 518.322 123.145H509.665Z" fill="#E6E6E6"/>
<path d="M538.981 106.541L537.811 106.891L533.594 82.7415L534.907 82.3983L535.351 82.2821L535.273 81.8293L528.863 44.7806C528.601 43.263 528.661 41.7035 529.041 40.2137C529.421 38.7239 530.111 37.3416 531.059 36.1649C532.007 34.9884 533.19 34.0467 534.523 33.4054C535.855 32.7643 537.306 32.4389 538.771 32.4515L539.276 32.4559V32.4515H618.892C622.638 32.4515 626.276 33.784 629.208 36.2347C632.139 38.6857 634.19 42.11 635.017 45.9471L675.498 233.676C675.925 235.655 675.933 237.709 675.52 239.691C675.108 241.674 674.286 243.537 673.114 245.15C671.941 246.763 670.447 248.086 668.736 249.029C667.026 249.971 665.14 250.511 663.211 250.61L580.851 254.853C576.569 255.073 572.353 253.658 568.99 250.865C565.627 248.072 563.346 244.09 562.58 239.662L539.617 106.935L539.521 106.38L538.981 106.541Z" stroke="black"/>
<path d="M544.282 39.2129L617.595 38.924C621.133 38.9101 624.57 40.2072 627.343 42.6022C630.115 44.9972 632.058 48.3475 632.851 52.1024L670.599 230.876C671.011 232.826 671.026 234.85 670.643 236.806C670.261 238.762 669.49 240.604 668.384 242.201C667.279 243.798 665.866 245.112 664.244 246.051C662.623 246.99 660.832 247.532 658.997 247.637L583.647 251.978C579.612 252.21 575.637 250.836 572.462 248.112C569.288 245.388 567.131 241.5 566.395 237.173L544.883 110.758L543.322 111.25L539.206 87.2901L540.814 86.8457L534.809 51.5587C534.552 50.0473 534.604 48.493 534.962 47.0065C535.32 45.52 535.974 44.1379 536.879 42.9589C537.784 41.7798 538.916 40.8328 540.196 40.1853C541.475 39.5378 542.871 39.2058 544.282 39.2129Z" fill="#C4C4C4" fill-opacity="0.3"/>
<path d="M542.628 67.6572H631.688L641.176 112.354L550.952 114.094L542.628 67.6572Z" fill="#63FFC7" fill-opacity="0.6"/>
<path d="M627.201 152.302H648.168L648.834 156.498H627.867L627.201 152.302Z" fill="#63FFC7" fill-opacity="0.6"/>
<path d="M644.26 130.893L555.338 132.862L555.346 133.299L644.269 131.331L644.26 130.893Z" fill="#2F2E41"/>
<path d="M646.98 143.799L556.383 145.987L556.393 146.424L646.99 144.237L646.98 143.799Z" fill="#2F2E41"/>
<path d="M635.858 197.209H656.825L657.491 201.405H636.524L635.858 197.209Z" fill="#63FFC7" fill-opacity="0.6"/>
<path d="M652.917 175.8L563.995 177.769L564.003 178.207L652.926 176.238L652.917 175.8Z" fill="#2F2E41"/>
<path d="M655.637 188.707L565.04 190.894L565.05 191.332L655.647 189.144L655.637 188.707Z" fill="#2F2E41"/>
<path d="M712.959 256.546L708.992 256.546L707.105 240.548L712.96 240.548L712.959 256.546Z" fill="#A0616A"/>
<path d="M713.971 260.567L701.179 260.567V260.397C701.179 259.017 701.703 257.693 702.637 256.717C703.571 255.74 704.837 255.192 706.158 255.192H706.158L713.971 255.192L713.971 260.567Z" fill="#2F2E41"/>
<path d="M762.243 253.831L758.382 254.781L753.037 239.661L758.736 238.258L762.243 253.831Z" fill="#A0616A"/>
<path d="M764.11 257.502L751.658 260.567L751.621 260.403C751.318 259.059 751.539 257.644 752.234 256.47C752.928 255.296 754.041 254.459 755.326 254.142L755.326 254.142L762.931 252.27L764.11 257.502Z" fill="#2F2E41"/>
<path d="M712.148 189.067C712.156 188.233 712.392 168.557 717.551 161.118L717.627 161.008L735.604 163.601L735.202 167.731C735.993 168.535 742.213 175.33 744.009 191.421L763.09 245.002L754.22 245.845L727.96 187.355L714.064 250.934H705.27L712.148 189.067Z" fill="#2F2E41"/>
<path d="M715.445 161.844L717.202 152.198C716.858 151.735 715.334 149.512 715.673 146.905C715.894 145.205 716.865 143.714 718.559 142.472L723.114 131.36L723.175 131.323C723.482 131.134 730.735 126.749 734.688 130.886C734.787 130.966 744.522 139.045 740.613 149.944L735.787 165.082L715.445 161.844Z" fill="#CCCCCC"/>
<path d="M709.331 174.894C709.805 174.837 710.261 174.673 710.667 174.412C711.074 174.151 711.42 173.8 711.683 173.384C711.946 172.967 712.118 172.496 712.188 172.003C712.257 171.509 712.223 171.006 712.086 170.528L721.493 163.443L715.862 161.203L707.792 168.275C707.04 168.568 706.416 169.14 706.04 169.881C705.663 170.623 705.56 171.483 705.75 172.299C705.939 173.115 706.409 173.829 707.069 174.308C707.729 174.786 708.534 174.994 709.331 174.894Z" fill="#A0616A"/>
<path d="M711.06 163.431L725.42 151.602L721.151 136.351C720.95 135.629 720.893 134.872 720.984 134.125C721.075 133.379 721.312 132.661 721.68 132.015C722.021 131.405 722.48 130.877 723.027 130.464C723.574 130.051 724.198 129.762 724.859 129.616C727.317 129.072 729.549 130.511 731.49 133.894L731.505 133.925C731.826 134.746 739.308 154.081 733.595 158.216C728.007 162.261 715.049 168.149 714.919 168.208L714.767 168.277L711.06 163.431Z" fill="#CCCCCC"/>
<path d="M730.146 126.864C734.95 126.864 738.845 122.792 738.845 117.769C738.845 112.746 734.95 108.673 730.146 108.673C725.341 108.673 721.446 112.746 721.446 117.769C721.446 122.792 725.341 126.864 730.146 126.864Z" fill="#A0616A"/>
<path d="M743.785 114.522C748.035 114.522 751.481 110.919 751.481 106.475C751.481 102.031 748.035 98.4287 743.785 98.4287C739.534 98.4287 736.088 102.031 736.088 106.475C736.088 110.919 739.534 114.522 743.785 114.522Z" fill="#2F2E41"/>
<path d="M750.423 113.138C749.427 113.891 748.273 114.384 747.057 114.574C745.842 114.765 744.6 114.649 743.437 114.235C742.273 113.822 741.221 113.122 740.369 112.197C739.516 111.271 738.889 110.145 738.538 108.913C738.671 110.017 739.021 111.08 739.566 112.035C740.112 112.99 740.841 113.816 741.707 114.462C742.573 115.108 743.558 115.559 744.6 115.786C745.641 116.014 746.717 116.013 747.758 115.784C748.799 115.555 749.783 115.103 750.649 114.457C751.515 113.81 752.243 112.982 752.787 112.027C753.332 111.071 753.681 110.008 753.812 108.904C753.944 107.8 753.855 106.68 753.551 105.614C753.724 107.046 753.524 108.5 752.974 109.824C752.423 111.148 751.542 112.293 750.423 113.138Z" fill="#2F2E41"/>
<path d="M720.05 113.147C721.394 110.632 721.908 109.582 723.64 108.053C725.172 106.7 727.056 106.303 728.576 107.584C730.374 106.772 732.375 106.588 734.281 107.059C736.187 107.531 737.897 108.632 739.157 110.2C740.416 111.768 741.158 113.719 741.273 115.764C741.387 117.808 740.868 119.836 739.792 121.548C738.717 123.259 737.141 124.561 735.301 125.262C733.461 125.963 731.453 126.024 729.577 125.437C727.7 124.85 726.055 123.646 724.886 122.003C723.716 120.361 723.084 118.367 723.084 116.32C723.086 115.96 723.106 115.601 723.146 115.244C721.825 115.05 721.371 113.341 720.05 113.147Z" fill="#2F2E41"/>
<path d="M799.667 261H672.808C672.72 261 672.635 260.963 672.572 260.898C672.51 260.833 672.475 260.744 672.475 260.652C672.475 260.56 672.51 260.471 672.572 260.406C672.635 260.34 672.72 260.304 672.808 260.304H799.667C799.755 260.304 799.84 260.34 799.902 260.406C799.965 260.471 800 260.56 800 260.652C800 260.744 799.965 260.833 799.902 260.898C799.84 260.963 799.755 261 799.667 261Z" fill="#3F3D56"/>
</g>
<g clip-path="url(#clip1)">
<path d="M182.203 64.0354V66.0354H183.597V90.9069H182.203V92.9069V245.992C182.203 251.725 180.057 257.201 176.272 261.22C172.49 265.236 167.389 267.467 162.096 267.467H81.1744C75.882 267.467 70.7802 265.236 66.9989 261.22C63.2139 257.201 61.0681 251.725 61.0681 245.992V23.4751C61.0681 20.6388 61.5943 17.8328 62.6142 15.2184C63.6339 12.604 65.1258 10.236 66.999 8.24681C68.872 6.25784 71.089 4.68697 73.52 3.61765C75.9508 2.54848 78.5514 1.99999 81.1745 2H162.096C164.719 2 167.32 2.54849 169.751 3.61767C172.182 4.687 174.399 6.25789 176.272 8.24686C178.145 10.2361 179.637 12.604 180.657 15.2184C181.676 17.8329 182.203 20.6389 182.203 23.4752V64.0354Z" stroke="black" stroke-opacity="0.5" stroke-width="4"/>
<path d="M143.5 6.10744H162.988C165.156 6.10743 167.303 6.56088 169.306 7.4419C171.309 8.32291 173.129 9.61423 174.662 11.2421C176.195 12.87 177.411 14.8026 178.24 16.9296C179.07 19.0565 179.497 21.3362 179.497 23.6384V245.829C179.497 248.131 179.07 250.41 178.24 252.537C177.411 254.664 176.195 256.597 174.662 258.225C173.129 259.853 171.309 261.144 169.306 262.025C167.303 262.906 165.156 263.36 162.988 263.36H81.6767C79.5088 263.36 77.362 262.906 75.3591 262.025C73.3562 261.144 71.5362 259.853 70.0033 258.225C68.4703 256.597 67.2543 254.664 66.4246 252.537C65.595 250.41 65.168 248.131 65.168 245.829V23.6384C65.168 18.9889 66.9073 14.5298 70.0033 11.2421C73.0993 7.95443 77.2984 6.10742 81.6768 6.10742H115.5L143.5 6.10744Z" fill="#C4C4C4" fill-opacity="0.3"/>
<path d="M106.737 278.385H105.691L107.783 129.911H108.829L106.737 278.385Z" fill="#3F3D56"/>
<path d="M135.328 278.385H134.282L132.19 129.911H133.236L135.328 278.385Z" fill="#3F3D56"/>
<path d="M132.539 132.873H108.132V133.984H132.539V132.873Z" fill="#3F3D56"/>
<path d="M132.539 152.126H108.132V153.237H132.539V152.126Z" fill="#3F3D56"/>
<path d="M133.236 171.38H107.784V172.491H133.236V171.38Z" fill="#3F3D56"/>
<path d="M133.585 190.634H107.784V191.744H133.585V190.634Z" fill="#3F3D56"/>
<path d="M133.934 209.887H107.435V210.998H133.934V209.887Z" fill="#3F3D56"/>
<path d="M133.934 229.141H107.086V230.251H133.934V229.141Z" fill="#3F3D56"/>
<path d="M134.282 248.394H106.737V249.505H134.282V248.394Z" fill="#3F3D56"/>
<path d="M134.631 267.648H106.04V268.758H134.631V267.648Z" fill="#3F3D56"/>
<path d="M119.174 202.247C127.264 202.247 133.822 195.283 133.822 186.691C133.822 178.1 127.264 171.136 119.174 171.136C111.083 171.136 104.525 178.1 104.525 186.691C104.525 195.283 111.083 202.247 119.174 202.247Z" fill="#2F2E41"/>
<path d="M127.79 197.443L123.411 198.285L124.831 206.616L129.21 205.775L127.79 197.443Z" fill="#2F2E41"/>
<path d="M119.032 199.127L114.653 199.969L116.073 208.3L120.452 207.458L119.032 199.127Z" fill="#2F2E41"/>
<path d="M118.398 210.052C119.961 208.646 120.825 207.002 120.329 206.38C119.833 205.757 118.163 206.392 116.6 207.798C115.037 209.204 114.173 210.848 114.669 211.47C115.165 212.092 116.835 211.457 118.398 210.052Z" fill="#2F2E41"/>
<path d="M126.973 208.403C128.536 206.998 129.401 205.354 128.905 204.731C128.408 204.109 126.739 204.744 125.176 206.15C123.613 207.555 122.748 209.199 123.245 209.822C123.741 210.444 125.41 209.809 126.973 208.403Z" fill="#2F2E41"/>
<path d="M118.148 188.203C120.913 188.203 123.154 185.823 123.154 182.886C123.154 179.95 120.913 177.57 118.148 177.57C115.383 177.57 113.142 179.95 113.142 182.886C113.142 185.823 115.383 188.203 118.148 188.203Z" fill="white"/>
<path d="M116.09 182.753C117.012 182.753 117.759 181.96 117.759 180.981C117.759 180.002 117.012 179.209 116.09 179.209C115.169 179.209 114.422 180.002 114.422 180.981C114.422 181.96 115.169 182.753 116.09 182.753Z" fill="#3F3D56"/>
<path d="M130.729 169.769C130.949 164.01 126.275 159.132 120.29 158.874C114.304 158.616 109.273 163.075 109.052 168.834C108.832 174.593 112.993 175.901 118.979 176.159C124.965 176.418 130.509 175.528 130.729 169.769Z" fill="#63FFC7" fill-opacity="0.6"/>
<path d="M112.787 185.595C113.071 184.281 110.104 182.437 106.161 181.478C102.219 180.518 98.7924 180.805 98.5086 182.12C98.2249 183.434 101.191 185.278 105.134 186.237C109.077 187.197 112.503 186.91 112.787 185.595Z" fill="#2F2E41"/>
<path d="M141.541 190.673C141.825 189.359 138.859 187.515 134.916 186.555C130.973 185.596 127.547 185.883 127.263 187.198C126.979 188.512 129.946 190.356 133.888 191.315C137.831 192.275 141.257 191.988 141.541 190.673Z" fill="#2F2E41"/>
<path d="M123.197 192.822C123.276 193.28 123.269 193.75 123.176 194.205C123.084 194.66 122.908 195.092 122.659 195.475C122.409 195.858 122.091 196.185 121.723 196.437C121.354 196.69 120.943 196.863 120.511 196.946C120.08 197.029 119.637 197.022 119.209 196.923C118.78 196.825 118.374 196.638 118.013 196.373C117.653 196.108 117.345 195.77 117.108 195.378C116.87 194.987 116.708 194.549 116.629 194.091L116.628 194.084C116.3 192.158 117.702 191.477 119.516 191.128C121.33 190.779 122.868 190.895 123.197 192.822Z" fill="white"/>
<path d="M169.682 94.5052L75.9167 103.429C75.4563 103.472 74.9986 103.32 74.6439 103.005C74.2892 102.691 74.0665 102.239 74.0247 101.751L71.9401 77.0512C71.8994 76.5622 72.043 76.0762 72.3393 75.6995C72.6357 75.3228 73.0606 75.0864 73.5209 75.042L167.286 66.1181C167.747 66.0748 168.204 66.2273 168.559 66.542C168.914 66.8566 169.136 67.3079 169.178 67.7967L171.263 92.4961C171.303 92.985 171.16 93.4711 170.864 93.8477C170.567 94.2244 170.142 94.4609 169.682 94.5052ZM73.5832 75.7796C73.307 75.8062 73.052 75.948 72.8742 76.174C72.6964 76.4 72.6102 76.6917 72.6347 76.9851L74.7193 101.684C74.7443 101.978 74.8779 102.248 75.0907 102.437C75.3036 102.626 75.5782 102.718 75.8545 102.692L169.62 93.7677C169.896 93.7411 170.151 93.5992 170.329 93.3732C170.507 93.1472 170.593 92.8555 170.568 92.5622L168.484 67.8628C168.459 67.5695 168.325 67.2987 168.112 67.1099C167.899 66.9211 167.625 66.8296 167.348 66.8556L73.5832 75.7796Z" fill="#E6E6E6"/>
<path d="M86.8735 95.8541C90.9174 95.8541 94.1956 92.373 94.1956 88.0787C94.1956 83.7844 90.9174 80.3032 86.8735 80.3032C82.8297 80.3032 79.5515 83.7844 79.5515 88.0787C79.5515 92.373 82.8297 95.8541 86.8735 95.8541Z" fill="#3F3D56"/>
<path d="M103.281 81.3129C103.121 81.3281 102.966 81.3766 102.824 81.4555C102.682 81.5344 102.556 81.6422 102.453 81.7728C102.35 81.9034 102.273 82.0542 102.225 82.2166C102.177 82.379 102.16 82.5499 102.174 82.7194C102.189 82.8889 102.234 83.0537 102.308 83.2045C102.383 83.3553 102.484 83.489 102.607 83.5982C102.73 83.7073 102.872 83.7896 103.025 83.8404C103.178 83.8913 103.339 83.9096 103.499 83.8944L160.8 78.4409C160.959 78.4257 161.114 78.3773 161.256 78.2984C161.398 78.2195 161.524 78.1116 161.627 77.981C161.73 77.8505 161.807 77.6996 161.855 77.5372C161.903 77.3748 161.92 77.204 161.906 77.0345C161.892 76.865 161.846 76.7001 161.772 76.5493C161.698 76.3986 161.596 76.2648 161.473 76.1557C161.35 76.0466 161.208 75.9642 161.055 75.9134C160.902 75.8626 160.741 75.8442 160.582 75.8594L103.281 81.3129Z" fill="#E6E6E6"/>
<path d="M103.934 89.0572C103.774 89.0718 103.619 89.1197 103.476 89.1984C103.333 89.277 103.207 89.3848 103.104 89.5155C103 89.6462 102.922 89.7973 102.874 89.9601C102.826 90.1229 102.809 90.2941 102.823 90.4641C102.837 90.634 102.883 90.7993 102.958 90.9503C103.032 91.1014 103.134 91.2354 103.258 91.3445C103.381 91.4536 103.524 91.5358 103.678 91.5863C103.831 91.6367 103.992 91.6545 104.152 91.6386L161.453 86.1852C161.775 86.1541 162.073 85.9886 162.28 85.7249C162.487 85.4612 162.587 85.1209 162.558 84.7789C162.53 84.4368 162.374 84.1209 162.126 83.9005C161.878 83.6801 161.557 83.5734 161.235 83.6037L103.934 89.0572Z" fill="#E6E6E6"/>
<path d="M135.459 100.306C136.939 96.1928 137.153 92.4583 135.937 91.9648C134.722 91.4712 132.536 94.4055 131.055 98.5187C129.575 102.632 129.36 106.366 130.576 106.86C131.792 107.353 133.978 104.419 135.459 100.306Z" fill="#2F2E41"/>
<path d="M134.2 114.008C135.528 105.315 129.969 97.1245 121.783 95.7138C113.596 94.3031 105.883 100.207 104.555 108.9C103.226 117.593 108.786 125.783 116.972 127.194C125.158 128.605 132.871 122.701 134.2 114.008Z" fill="#2F2E41"/>
<path d="M117.096 123.969H112.534V132.648H117.096V123.969Z" fill="#2F2E41"/>
<path d="M126.22 123.969H121.658V132.648H126.22V123.969Z" fill="#2F2E41"/>
<path d="M116.336 134.263C118.436 134.263 120.138 133.585 120.138 132.749C120.138 131.913 118.436 131.235 116.336 131.235C114.236 131.235 112.534 131.913 112.534 132.749C112.534 133.585 114.236 134.263 116.336 134.263Z" fill="#2F2E41"/>
<path d="M125.46 134.061C127.559 134.061 129.261 133.383 129.261 132.547C129.261 131.711 127.559 131.033 125.46 131.033C123.36 131.033 121.658 131.711 121.658 132.547C121.658 133.383 123.36 134.061 125.46 134.061Z" fill="#2F2E41"/>
<path d="M104.811 96.6246C103.598 90.8582 107.474 85.0316 113.468 83.6104C119.462 82.1892 125.303 85.7116 126.516 91.478C127.728 97.2443 123.756 99.371 117.763 100.792C111.769 102.213 106.023 102.391 104.811 96.6246Z" fill="#63FFC7" fill-opacity="0.6"/>
<path d="M109.248 107.472C109.806 106.223 107.221 103.68 103.474 101.793C99.7274 99.9063 96.2379 99.3891 95.6801 100.638C95.1223 101.887 97.7073 104.429 101.454 106.316C105.2 108.203 108.69 108.721 109.248 107.472Z" fill="#2F2E41"/>
<path d="M28.905 273.137C37.1983 273.137 43.9213 265.998 43.9213 257.191C43.9213 248.384 37.1983 241.245 28.905 241.245C20.6118 241.245 13.8887 248.384 13.8887 257.191C13.8887 265.998 20.6118 273.137 28.905 273.137Z" fill="#2F2E41"/>
<path d="M26.6241 269.706H22.0622V278.385H26.6241V269.706Z" fill="#2F2E41"/>
<path d="M35.7479 269.706H31.186V278.385H35.7479V269.706Z" fill="#2F2E41"/>
<path d="M25.8637 280C27.9633 280 29.6653 279.322 29.6653 278.486C29.6653 277.65 27.9633 276.972 25.8637 276.972C23.7642 276.972 22.0621 277.65 22.0621 278.486C22.0621 279.322 23.7642 280 25.8637 280Z" fill="#2F2E41"/>
<path d="M34.9876 279.798C37.0872 279.798 38.7892 279.12 38.7892 278.284C38.7892 277.448 37.0872 276.77 34.9876 276.77C32.888 276.77 31.186 277.448 31.186 278.284C31.186 279.12 32.888 279.798 34.9876 279.798Z" fill="#2F2E41"/>
<path d="M29.2852 258.604C32.1196 258.604 34.4174 256.164 34.4174 253.154C34.4174 250.144 32.1196 247.704 29.2852 247.704C26.4508 247.704 24.153 250.144 24.153 253.154C24.153 256.164 26.4508 258.604 29.2852 258.604Z" fill="white"/>
<path d="M29.2852 254.971C30.23 254.971 30.9959 254.157 30.9959 253.154C30.9959 252.151 30.23 251.337 29.2852 251.337C28.3404 251.337 27.5745 252.151 27.5745 253.154C27.5745 254.157 28.3404 254.971 29.2852 254.971Z" fill="#3F3D56"/>
<path d="M14.3387 242.361C13.1262 236.595 17.0021 230.768 22.9957 229.347C28.9894 227.926 34.8311 231.448 36.0436 237.215C37.2561 242.981 33.2839 245.108 27.2902 246.529C21.2966 247.95 15.5512 248.128 14.3387 242.361Z" fill="#E6E6E6"/>
<path d="M39.8541 200.223C41.3346 196.11 41.549 192.376 40.3331 191.882C39.1171 191.388 36.9312 194.323 35.4508 198.436C33.9703 202.549 33.7559 206.284 34.9718 206.777C36.1878 207.271 38.3737 204.336 39.8541 200.223Z" fill="#2F2E41"/>
<path d="M38.5953 213.925C39.9237 205.232 34.3644 197.042 26.1782 195.631C17.992 194.22 10.2789 200.124 8.95048 208.817C7.62205 217.51 13.1813 225.701 21.3675 227.111C29.5537 228.522 37.2669 222.619 38.5953 213.925Z" fill="#2F2E41"/>
<path d="M21.4919 223.886H16.93V232.565H21.4919V223.886Z" fill="#2F2E41"/>
<path d="M30.6157 223.886H26.0538V232.565H30.6157V223.886Z" fill="#2F2E41"/>
<path d="M20.7316 234.18C22.8312 234.18 24.5332 233.502 24.5332 232.666C24.5332 231.83 22.8312 231.152 20.7316 231.152C18.632 231.152 16.93 231.83 16.93 232.666C16.93 233.502 18.632 234.18 20.7316 234.18Z" fill="#2F2E41"/>
<path d="M29.8554 233.978C31.955 233.978 33.657 233.301 33.657 232.465C33.657 231.628 31.955 230.951 29.8554 230.951C27.7559 230.951 26.0538 231.628 26.0538 232.465C26.0538 233.301 27.7559 233.978 29.8554 233.978Z" fill="#2F2E41"/>
<path d="M24.153 212.784C26.9875 212.784 29.2852 210.344 29.2852 207.334C29.2852 204.324 26.9875 201.884 24.153 201.884C21.3186 201.884 19.0209 204.324 19.0209 207.334C19.0209 210.344 21.3186 212.784 24.153 212.784Z" fill="white"/>
<path d="M24.153 209.151C25.0979 209.151 25.8638 208.338 25.8638 207.334C25.8638 206.331 25.0979 205.518 24.153 205.518C23.2082 205.518 22.4423 206.331 22.4423 207.334C22.4423 208.338 23.2082 209.151 24.153 209.151Z" fill="#3F3D56"/>
<path d="M9.20657 196.542C7.99408 190.775 11.8699 184.949 17.8636 183.528C23.8572 182.106 29.6989 185.629 30.9114 191.395C32.1239 197.162 28.1517 199.288 22.1581 200.709C16.1645 202.131 10.4191 202.308 9.20657 196.542Z" fill="#63FFC7" fill-opacity="0.6"/>
<path d="M13.6433 207.389C14.2012 206.14 11.6162 203.598 7.86957 201.711C4.12297 199.824 0.633542 199.306 0.0757021 200.555C-0.482138 201.804 2.10285 204.347 5.84945 206.234C9.59606 208.121 13.0855 208.638 13.6433 207.389Z" fill="#2F2E41"/>
<path d="M16.3969 217.124C16.3969 218.685 20.1811 221.767 24.3803 221.767C28.5794 221.767 32.5165 217.373 32.5165 215.812C32.5165 214.251 28.5794 216.115 24.3803 216.115C20.1812 216.115 16.3969 215.563 16.3969 217.124Z" fill="white"/>
<path d="M88.3359 211.745C89.8164 207.632 90.0308 203.898 88.8148 203.404C87.5989 202.911 85.413 205.845 83.9325 209.958C82.4521 214.071 82.2376 217.806 83.4536 218.299C84.6695 218.793 86.8554 215.859 88.3359 211.745Z" fill="#2F2E41"/>
<path d="M90.2151 228.78C91.5435 220.087 85.9842 211.896 77.798 210.485C69.6118 209.075 61.8987 214.978 60.5703 223.671C59.2418 232.364 64.8011 240.555 72.9873 241.966C81.1735 243.377 88.8867 237.473 90.2151 228.78Z" fill="#2F2E41"/>
<path d="M68.55 238.741H73.1116L72.219 249.135L68.55 247.42V238.741Z" fill="#2F2E41"/>
<path d="M72.4064 252.188C73.1001 251.793 72.8573 249.88 71.8641 247.915C70.8709 245.951 69.5034 244.679 68.8097 245.075C68.116 245.47 68.3589 247.383 69.3521 249.348C70.3452 251.312 71.7127 252.584 72.4064 252.188Z" fill="#2F2E41"/>
<path d="M78.4951 238.767H83.0571L82.1645 249.162L78.4951 247.447V238.767Z" fill="#2F2E41"/>
<path d="M82.3518 252.215C83.0455 251.82 82.8027 249.907 81.8095 247.943C80.8163 245.978 79.4488 244.706 78.7551 245.102C78.0614 245.497 78.3042 247.411 79.2974 249.375C80.2906 251.339 81.6581 252.611 82.3518 252.215Z" fill="#2F2E41"/>
<path d="M75.7728 227.639C78.6072 227.639 80.905 225.199 80.905 222.189C80.905 219.179 78.6072 216.739 75.7728 216.739C72.9384 216.739 70.6407 219.179 70.6407 222.189C70.6407 225.199 72.9384 227.639 75.7728 227.639Z" fill="white"/>
<path d="M75.7728 224.005C76.7176 224.005 77.4836 223.192 77.4836 222.189C77.4836 221.185 76.7176 220.372 75.7728 220.372C74.828 220.372 74.0621 221.185 74.0621 222.189C74.0621 223.192 74.828 224.005 75.7728 224.005Z" fill="#3F3D56"/>
<path d="M60.8264 211.396C59.6139 205.63 63.4897 199.803 69.4834 198.382C75.477 196.961 81.3187 200.483 82.5312 206.25C83.7437 212.016 79.7715 214.143 73.7779 215.564C67.7843 216.985 62.0389 217.163 60.8264 211.396Z" fill="#F2F2F2"/>
<path d="M63.9861 221.537C65.0332 220.716 63.8849 217.179 61.4213 213.637C58.9577 210.095 56.1117 207.889 55.0646 208.711C54.0175 209.532 55.1658 213.069 57.6294 216.611C60.093 220.153 62.939 222.359 63.9861 221.537Z" fill="#2F2E41"/>
<path d="M82.7192 234.448C82.7192 233.162 79.6004 230.622 76.1395 230.622C72.6787 230.622 69.4338 234.243 69.4338 235.529C69.4338 236.815 72.6787 235.28 76.1395 235.28C79.6003 235.28 82.7192 235.734 82.7192 234.448Z" fill="white"/>
<path d="M66.9997 211C62.6656 211.002 58.3737 210.149 54.3691 208.492C50.3646 206.834 46.726 204.403 43.6614 201.339C40.5967 198.274 38.166 194.635 36.5083 190.631C34.8505 186.626 33.9982 182.334 34 178C34 177.931 34.0002 177.858 34.0041 177.789C34.1052 159.717 48.9072 145 66.9997 145C74.4441 145.001 81.6695 147.519 87.5024 152.144C93.3354 156.77 97.4333 163.232 99.1306 170.48C100.828 177.728 100.025 185.337 96.8523 192.072C93.6795 198.806 88.3232 204.27 81.6533 207.577C77.1015 209.842 72.084 211.014 66.9997 211ZM66.9997 145.695C58.4707 145.714 50.2937 149.097 44.2454 155.111C38.1971 161.125 34.7663 169.282 34.6983 177.811C34.6946 177.885 34.6947 177.944 34.6947 178C34.6925 186.193 37.803 194.08 43.3965 200.066C48.9901 206.052 56.6488 209.689 64.8227 210.241C72.9965 210.793 81.0748 208.219 87.4225 203.04C93.7702 197.86 97.9131 190.463 99.0126 182.345C99.6336 177.777 99.2697 173.129 97.9452 168.713C96.6208 164.298 94.3665 160.217 91.3339 156.745C88.3013 153.273 84.5607 150.491 80.3634 148.585C76.1661 146.679 71.6095 145.693 66.9997 145.695Z" fill="#3F3D56"/>
<path d="M81.9897 179.404L59.3183 165.504C59.2123 165.439 59.0921 165.405 58.9697 165.405C58.8473 165.405 58.727 165.439 58.621 165.504C58.515 165.569 58.427 165.662 58.3657 165.775C58.3045 165.888 58.2723 166.015 58.2723 166.145V193.945C58.2723 194.075 58.3045 194.203 58.3657 194.315C58.427 194.428 58.515 194.521 58.621 194.586C58.727 194.651 58.8473 194.686 58.9697 194.686C59.0921 194.686 59.2123 194.651 59.3183 194.586L81.9897 180.686C82.0957 180.621 82.1838 180.528 82.245 180.415C82.3062 180.303 82.3384 180.175 82.3384 180.045C82.3384 179.915 82.3062 179.787 82.245 179.675C82.1838 179.562 82.0957 179.469 81.9897 179.404L59.3183 165.504C59.2123 165.439 59.0921 165.405 58.9697 165.405C58.8473 165.405 58.727 165.439 58.621 165.504C58.515 165.569 58.427 165.662 58.3657 165.775C58.3045 165.888 58.2723 166.015 58.2723 166.145V193.945C58.2723 194.075 58.3045 194.203 58.3657 194.315C58.427 194.428 58.515 194.521 58.621 194.586C58.727 194.651 58.8473 194.686 58.9697 194.686C59.0921 194.686 59.2123 194.651 59.3183 194.586L81.9897 180.686C82.0957 180.621 82.1838 180.528 82.245 180.415C82.3062 180.303 82.3384 180.175 82.3384 180.045C82.3384 179.915 82.3062 179.787 82.245 179.675C82.1838 179.562 82.0957 179.469 81.9897 179.404Z" fill="#63FFC7" fill-opacity="0.6"/>
<path d="M79.1925 277.645C89.3985 277.645 97.6721 277.313 97.6721 276.904C97.6721 276.495 89.3985 276.164 79.1925 276.164C68.9866 276.164 60.713 276.495 60.713 276.904C60.713 277.313 68.9866 277.645 79.1925 277.645Z" fill="#E6E6E6"/>
<path d="M268.52 270.61C278.726 270.61 287 270.278 287 269.869C287 269.46 278.726 269.129 268.52 269.129C258.315 269.129 250.041 269.46 250.041 269.869C250.041 270.278 258.315 270.61 268.52 270.61Z" fill="#E6E6E6"/>
<path d="M268.432 269.246L185.565 221.807C185.159 221.573 184.856 221.178 184.723 220.708C184.591 220.238 184.639 219.731 184.858 219.299L195.939 197.47C196.159 197.039 196.531 196.717 196.974 196.576C197.417 196.435 197.894 196.487 198.301 196.719L281.168 244.158C281.575 244.391 281.877 244.787 282.01 245.257C282.143 245.727 282.094 246.234 281.875 246.666L270.794 268.495C270.574 268.926 270.202 269.248 269.759 269.389C269.316 269.53 268.839 269.478 268.432 269.246ZM197.97 197.371C197.726 197.232 197.44 197.201 197.174 197.285C196.908 197.37 196.685 197.563 196.553 197.822L185.472 219.65C185.34 219.91 185.311 220.214 185.391 220.496C185.47 220.778 185.652 221.015 185.896 221.155L268.763 268.594C269.007 268.733 269.294 268.764 269.559 268.68C269.825 268.595 270.048 268.402 270.18 268.143L281.261 246.315C281.393 246.055 281.422 245.751 281.342 245.469C281.263 245.187 281.081 244.95 280.837 244.81L197.97 197.371Z" fill="#E6E6E6"/>
<path d="M202.675 223.188C206.719 223.188 209.997 219.706 209.997 215.412C209.997 211.118 206.719 207.637 202.675 207.637C198.631 207.637 195.353 211.118 195.353 215.412C195.353 219.706 198.631 223.188 202.675 223.188Z" fill="#63FFC7" fill-opacity="0.6"/>
<path d="M219.877 219.371C219.736 219.29 219.581 219.24 219.422 219.222C219.262 219.205 219.101 219.221 218.947 219.27C218.794 219.319 218.651 219.399 218.527 219.507C218.402 219.614 218.299 219.747 218.223 219.897C218.147 220.046 218.099 220.211 218.083 220.38C218.067 220.549 218.082 220.72 218.128 220.884C218.174 221.047 218.25 221.198 218.351 221.33C218.453 221.462 218.578 221.572 218.719 221.652L269.359 250.643C269.5 250.724 269.655 250.774 269.815 250.791C269.974 250.809 270.135 250.793 270.289 250.744C270.442 250.695 270.585 250.615 270.71 250.507C270.834 250.4 270.937 250.267 271.013 250.117C271.089 249.967 271.137 249.803 271.153 249.634C271.169 249.464 271.154 249.293 271.108 249.13C271.062 248.967 270.986 248.815 270.885 248.683C270.783 248.552 270.659 248.442 270.518 248.361L219.877 219.371Z" fill="#E6E6E6"/>
<path d="M216.402 226.215C216.117 226.052 215.783 226.016 215.473 226.114C215.163 226.213 214.903 226.438 214.749 226.741C214.595 227.043 214.561 227.398 214.654 227.728C214.747 228.057 214.959 228.333 215.244 228.496L265.885 257.487C266.026 257.568 266.181 257.618 266.34 257.635C266.499 257.653 266.66 257.636 266.814 257.588C266.968 257.539 267.11 257.458 267.235 257.351C267.359 257.243 267.462 257.111 267.538 256.961C267.614 256.811 267.662 256.647 267.678 256.478C267.694 256.308 267.679 256.137 267.633 255.974C267.587 255.811 267.511 255.659 267.41 255.528C267.309 255.396 267.184 255.286 267.043 255.205L216.402 226.215Z" fill="#E6E6E6"/>
</g>
<defs>
<clipPath id="clip0">
<rect width="292" height="259" fill="white" transform="translate(508 2)"/>
</clipPath>
<clipPath id="clip1">
<rect width="287" height="280" fill="white"/>
</clipPath>
</defs>
</svg>
