<svg width="94" height="95" viewBox="0 0 94 95" fill="none" xmlns="http://www.w3.org/2000/svg">
<g id="DarkMode">
<g id="Luna" filter="url(#filter0_i)">
<path d="M53.3277 80.4108C59.7806 79.0837 65.7174 75.8561 70.3875 71.1364C33.7407 89.8855 16.1183 13.106 70.6124 23.6364C65.9868 18.9615 60.0802 15.7913 53.6396 14.5265C47.1989 13.2616 40.5135 13.9591 34.4288 16.5306C28.344 19.1022 23.1332 23.4323 19.4553 28.9734C15.7773 34.5145 13.7974 41.0177 13.766 47.6607C13.7345 54.3037 15.6529 60.7881 19.2786 66.2939C22.9042 71.7997 28.0743 76.0796 34.135 78.5924C40.1957 81.1052 46.8748 81.738 53.3277 80.4108Z" fill="url(#paint0_linear)"/>
</g>
<g id="Sol" filter="url(#filter1_i)">
<path d="M81.4154 47.569C81.4154 66.3852 66.18 81.6387 47.3863 81.6387C28.5925 81.6387 13.3572 66.3852 13.3572 47.569C13.3572 28.7528 28.5925 13.4993 47.3863 13.4993C66.18 13.4993 81.4154 28.7528 81.4154 47.569Z" fill="url(#paint1_linear)"/>
</g>
</g>
<defs>
<filter id="filter0_i" x="13.7656" y="13.912" width="56.8468" height="67.1759" filterUnits="userSpaceOnUse" color-interpolation-filters="sRGB">
<feFlood flood-opacity="0" result="BackgroundImageFix"/>
<feBlend mode="normal" in="SourceGraphic" in2="BackgroundImageFix" result="shape"/>
<feColorMatrix in="SourceAlpha" type="matrix" values="0 0 0 0 0 0 0 0 0 0 0 0 0 0 0 0 0 0 127 0" result="hardAlpha"/>
<feOffset/>
<feGaussianBlur stdDeviation="7"/>
<feComposite in2="hardAlpha" operator="arithmetic" k2="-1" k3="1"/>
<feColorMatrix type="matrix" values="0 0 0 0 0 0 0 0 0 0 0 0 0 0 0 0 0 0 0.25 0"/>
<feBlend mode="normal" in2="shape" result="effect1_innerShadow"/>
</filter>
<filter id="filter1_i" x="13.3572" y="13.4993" width="68.0582" height="68.1394" filterUnits="userSpaceOnUse" color-interpolation-filters="sRGB">
<feFlood flood-opacity="0" result="BackgroundImageFix"/>
<feBlend mode="normal" in="SourceGraphic" in2="BackgroundImageFix" result="shape"/>
<feColorMatrix in="SourceAlpha" type="matrix" values="0 0 0 0 0 0 0 0 0 0 0 0 0 0 0 0 0 0 127 0" result="hardAlpha"/>
<feOffset/>
<feGaussianBlur stdDeviation="7"/>
<feComposite in2="hardAlpha" operator="arithmetic" k2="-1" k3="1"/>
<feColorMatrix type="matrix" values="0 0 0 0 0 0 0 0 0 0 0 0 0 0 0 0 0 0 0.25 0"/>
<feBlend mode="normal" in2="shape" result="effect1_innerShadow"/>
</filter>
<linearGradient id="paint0_linear" x1="70.6125" y1="23.6364" x2="22.8879" y2="70.8586" gradientUnits="userSpaceOnUse">
<stop stop-color="#C4C4C4"/>
<stop offset="1" stop-color="#292929"/>
</linearGradient>
<linearGradient id="paint1_linear" x1="81.4154" y1="13.4993" x2="12.6438" y2="80.911" gradientUnits="userSpaceOnUse">
<stop offset="0.490099" stop-color="#F5FA10"/>
<stop offset="1" stop-color="#D34E30"/>
</linearGradient>
</defs>
</svg>
